<?xml version="1.0" encoding="utf-8"?>
<!-- Generator: Adobe Illustrator 24.3.0, SVG Export Plug-In . SVG Version: 6.00 Build 0)  -->
<svg version="1.1" id="katman_1" xmlns="http://www.w3.org/2000/svg" xmlns:xlink="http://www.w3.org/1999/xlink" x="0px" y="0px"
	 viewBox="0 0 799.37 155.3" style="enable-background:new 0 0 799.37 155.3;" xml:space="preserve">
<style type="text/css">
	.st0{clip-path:url(#SVGID_2_);}
	.st1{clip-path:url(#SVGID_4_);fill:url(#SVGID_5_);}
	.st2{fill:#FFFFFF;}
	.st3{font-family:'Montserrat-Light';}
	.st4{font-size:48px;}
	.st5{clip-path:url(#SVGID_9_);}
	.st6{clip-path:url(#SVGID_11_);fill:#E94666;}
	.st7{fill:none;}
</style>
<g>
	<defs>
		<polyline id="SVGID_1_" points="820.78,-21.26 -21.11,-21.26 -21.11,574.02 820.78,574.02 		"/>
	</defs>
	<clipPath id="SVGID_2_">
		<use xlink:href="#SVGID_1_"  style="overflow:visible;"/>
	</clipPath>
	<g class="st0">
		<defs>
			<rect id="SVGID_3_" width="799.37" height="155.3"/>
		</defs>
		<clipPath id="SVGID_4_">
			<use xlink:href="#SVGID_3_"  style="overflow:visible;"/>
		</clipPath>
		
			<linearGradient id="SVGID_5_" gradientUnits="userSpaceOnUse" x1="-169.2485" y1="225.099" x2="-168.2485" y2="225.099" gradientTransform="matrix(799.3701 0 0 -799.3701 135292.1719 180015.9062)">
			<stop  offset="0" style="stop-color:#672783"/>
			<stop  offset="1" style="stop-color:#E31019"/>
		</linearGradient>
		<rect x="0" y="0.81" class="st1" width="799.37" height="155.3"/>
	</g>
	<g class="st0">
	</g>
	<g class="st0">
	</g>
	<g class="st0">
	</g>
	<g class="st0">
	</g>
	<g class="st0">
	</g>
	<g class="st0">
	</g>
	<g class="st0">
		<text transform="matrix(1 0 0 1 77.1524 144.6845)" class="st2 st3 st4"> </text>
	</g>
	<g class="st0">
		<defs>
			<polyline id="SVGID_6_" points="820.78,574.02 -21.11,574.02 -21.11,-21.26 820.78,-21.26 			"/>
		</defs>
		<clipPath id="SVGID_7_">
			<use xlink:href="#SVGID_6_"  style="overflow:visible;"/>
		</clipPath>
	</g>
	<g class="st0">
		<defs>
			<polyline id="SVGID_8_" points="820.78,574.02 -21.11,574.02 -21.11,-21.26 820.78,-21.26 			"/>
		</defs>
		<clipPath id="SVGID_9_">
			<use xlink:href="#SVGID_8_"  style="overflow:visible;"/>
		</clipPath>
		<g class="st5">
			<g>
				<defs>
					<rect id="SVGID_10_" x="592.67" width="206.7" height="155.3"/>
				</defs>
				<clipPath id="SVGID_11_">
					<use xlink:href="#SVGID_10_"  style="overflow:visible;"/>
				</clipPath>
				<path class="st6" d="M655.04,137.29l-5.42,9.05c0.79,0.55,1.29,1.47,1.27,2.49c-0.04,1.63-1.4,2.92-3.03,2.88
					c-1.63-0.04-2.92-1.39-2.89-3.03c0.04-1.63,1.4-2.92,3.04-2.89c0.45,0.01,0.88,0.13,1.26,0.33l5.41-9.04
					c-0.87-0.6-1.42-1.6-1.4-2.73c0.01-0.31,0.08-0.61,0.17-0.9l-10.88-4.28c-0.53,1.12-1.68,1.88-3,1.85
					c-1.78-0.04-3.2-1.52-3.15-3.3c0.04-1.78,1.52-3.19,3.31-3.15c1.78,0.05,3.19,1.52,3.15,3.3c-0.01,0.32-0.08,0.61-0.16,0.9
					l10.88,4.28c0.53-1.12,1.68-1.89,3-1.85c0.36,0.01,0.7,0.09,1.02,0.21l0.39,0.16c1.06,0.55,1.78,1.66,1.75,2.93
					c-0.02,0.76-0.32,1.45-0.77,1.99l-0.28,0.31c-0.6,0.55-1.39,0.87-2.26,0.85C655.93,137.65,655.46,137.51,655.04,137.29
					 M657.65,91.46c-0.53-0.01-1.04,0.14-1.47,0.38l-10.06-14.51c0.61-0.5,1.01-1.26,1.03-2.11c0.04-1.57-1.21-2.88-2.79-2.92
					c-1.57-0.04-2.88,1.21-2.92,2.78c-0.01,0.45,0.09,0.87,0.27,1.26l-13.33,7.63c-0.66-0.99-1.77-1.65-3.05-1.69
					c-1.42-0.03-2.67,0.73-3.34,1.88l-0.24,0.46c-0.17,0.42-0.28,0.87-0.29,1.36c-0.03,0.93,0.31,1.79,0.86,2.46l0.35,0.38
					c0.65,0.61,1.51,1.01,2.48,1.03c2.09,0.05,3.82-1.61,3.88-3.69c0.01-0.62-0.14-1.21-0.39-1.74l13.34-7.63
					c0.5,0.72,1.32,1.2,2.26,1.22c0.54,0.01,1.03-0.13,1.47-0.38l10.05,14.51c-0.61,0.51-1.01,1.26-1.03,2.11
					c-0.04,1.57,1.21,2.88,2.78,2.92c1.58,0.04,2.88-1.2,2.92-2.78c0.01-0.14-0.01-0.26-0.03-0.39l23.44-4.86
					c0.27,0.78,0.99,1.35,1.87,1.38c1.12,0.03,2.06-0.86,2.08-1.98c0.03-1.12-0.86-2.06-1.98-2.08c-1.12-0.03-2.06,0.86-2.09,1.99
					c0,0.07,0.01,0.13,0.02,0.2l-23.44,4.86C659.95,92.34,658.92,91.49,657.65,91.46 M636.09,109.12c0.64-0.24,1.19-0.61,1.63-1.07
					l0.25-0.28c0.93-1.16,1.25-2.76,0.7-4.25c-0.84-2.26-3.34-3.42-5.59-2.58c-2.26,0.83-3.41,3.34-2.58,5.6
					c0.14,0.36,0.31,0.69,0.52,0.99l-10.67,8.2c-0.86-0.99-2.26-1.41-3.56-0.93c-0.73,0.27-1.29,0.77-1.65,1.39l-0.18,0.33
					c-0.33,0.75-0.39,1.62-0.08,2.45c0.62,1.67,2.48,2.53,4.16,1.91c1.68-0.62,2.53-2.48,1.92-4.16c-0.09-0.25-0.22-0.48-0.37-0.69
					l10.68-8.2C632.4,109.19,634.32,109.77,636.09,109.12 M685.97,145.53c-0.12-0.34-0.31-0.63-0.53-0.9l-0.28-0.32
					c-0.86-0.82-2.14-1.15-3.34-0.7c-0.71,0.27-1.27,0.77-1.63,1.37l-0.2,0.37c-0.32,0.74-0.38,1.6-0.07,2.41
					c0.17,0.47,0.45,0.87,0.8,1.2l-5.36,6.34h0.55l5.13-6.06c0.85,0.63,1.97,0.83,3.03,0.44c0.3-0.11,0.56-0.27,0.8-0.45l5.16,6.07
					h0.55l-5.38-6.34C686.07,148.1,686.43,146.76,685.97,145.53 M786.4,152.29c-0.77-3.09-3.9-4.96-6.98-4.19
					c-2.45,0.61-4.14,2.71-4.34,5.09l-16.89-0.87c0.02-0.68-0.04-1.38-0.22-2.07c-0.54-2.19-1.99-3.92-3.84-4.9l10.69-21.47
					c0.85,0.38,1.84,0.49,2.82,0.25c2.34-0.58,3.75-2.94,3.17-5.27c-0.58-2.33-2.95-3.75-5.27-3.17c-2.34,0.58-3.75,2.94-3.17,5.27
					c0.3,1.22,1.1,2.19,2.12,2.75l-10.68,21.46c-1.54-0.72-3.33-0.94-5.1-0.5c-0.22,0.05-0.42,0.12-0.62,0.19l-1.43-3.84
					c1.23-0.55,1.94-1.92,1.6-3.28c-0.38-1.52-1.93-2.45-3.45-2.07c-1.53,0.38-2.46,1.92-2.08,3.45c0.38,1.52,1.93,2.45,3.46,2.07
					c0.04-0.01,0.08-0.02,0.12-0.03l1.43,3.84c-1.44,0.57-2.62,1.54-3.46,2.75l-41.09-26.8c0.77-1.3,1.05-2.89,0.65-4.47
					c-0.1-0.38-0.22-0.74-0.39-1.08l9.8-4.99c0.98,1.73,3.02,2.67,5.04,2.17c1.15-0.28,2.08-0.99,2.68-1.9l8.56,5.38
					c-0.29,0.5-0.4,1.13-0.24,1.74c0.32,1.26,1.59,2.03,2.86,1.72c1.27-0.31,2.04-1.6,1.72-2.86c-0.32-1.27-1.6-2.03-2.86-1.72
					c-0.59,0.15-1.06,0.5-1.38,0.96l-8.55-5.38c0.6-0.99,0.81-2.21,0.51-3.42c-0.17-0.69-0.5-1.3-0.92-1.8l13.73-11.98
					c0.42,0.43,1.05,0.64,1.68,0.48c0.94-0.23,1.52-1.19,1.28-2.13c-0.23-0.94-1.19-1.51-2.13-1.28c-0.94,0.24-1.51,1.19-1.28,2.13
					c0.06,0.25,0.17,0.47,0.32,0.65l-13.73,11.97c-1.08-1.19-2.77-1.76-4.44-1.35c-2.43,0.61-3.91,3.06-3.31,5.49
					c0.07,0.28,0.17,0.54,0.28,0.79l-9.81,5c-0.53-0.97-1.31-1.76-2.24-2.29l31.76-61.06c1.35,0.61,2.9,0.8,4.44,0.41
					c1.04-0.26,1.95-0.75,2.71-1.39l0.29-0.25c1.73-1.62,2.55-4.1,1.93-6.56c-0.22-0.9-0.62-1.71-1.15-2.41l7.45-5.97
					c1.18,1.36,3.07,2.04,4.94,1.57c1.13-0.28,2.07-0.93,2.73-1.79l6.54,4.84c-0.25,0.37-0.35,0.85-0.23,1.32
					c0.22,0.9,1.13,1.45,2.03,1.22c0.9-0.23,1.45-1.13,1.22-2.03c-0.22-0.9-1.13-1.45-2.03-1.22c-0.36,0.09-0.66,0.29-0.88,0.56
					l-6.54-4.84c0.81-1.14,1.14-2.61,0.77-4.07c-0.31-1.22-1.05-2.22-2.01-2.88l7.29-11.09c0.38,0.22,0.83,0.3,1.3,0.19
					c0.94-0.24,1.51-1.18,1.27-2.12c-0.23-0.94-1.18-1.5-2.12-1.27c-0.94,0.23-1.51,1.18-1.27,2.11c0.11,0.41,0.35,0.74,0.66,0.97
					l-7.29,11.09c-1.1-0.7-2.48-0.96-3.84-0.62c-2.65,0.66-4.28,3.35-3.61,6c0.16,0.66,0.45,1.25,0.83,1.76l-7.45,5.96
					c-1.53-1.82-3.97-2.76-6.43-2.3l-8.35-33.48c1.36-0.44,2.48-1.3,3.25-2.4l3.25,2.17c-0.24,0.4-0.33,0.89-0.2,1.38
					c0.24,0.97,1.23,1.57,2.21,1.33c0.98-0.24,1.57-1.23,1.33-2.21c-0.24-0.98-1.23-1.57-2.21-1.33c-0.43,0.11-0.77,0.36-1.02,0.69
					l-3.26-2.17c0.55-0.86,0.89-1.84,0.97-2.88h-12.43c0.03,0.33,0.07,0.67,0.16,1c0.22,0.87,0.61,1.64,1.12,2.3l-8.41,6.63
					c-1.03-1.19-2.67-1.77-4.3-1.36c-2.31,0.57-3.71,2.91-3.14,5.21c0.57,2.31,2.91,3.71,5.22,3.13c2.31-0.57,3.71-2.91,3.14-5.21
					c-0.14-0.55-0.38-1.04-0.68-1.47l8.42-6.64c1.49,1.71,3.86,2.54,6.21,1.95c0.01,0,0.01,0,0.02,0l8.34,33.44
					c-0.01,0-0.02,0-0.02,0c-2.44,0.61-4.23,2.47-4.87,4.72l-32.72-8.09c0.12-0.59,0.12-1.22-0.04-1.84
					c-0.56-2.26-2.85-3.63-5.1-3.07c-2.26,0.56-3.63,2.85-3.07,5.11c0.19,0.76,0.58,1.42,1.09,1.94l-11.14,11.52
					c-0.61-0.54-1.46-0.79-2.32-0.57c-1.36,0.34-2.2,1.72-1.85,3.08c0.24,0.96,1,1.66,1.9,1.86l-3.53,18.53
					c-0.2-0.02-0.4-0.02-0.61,0.03c-0.88,0.22-1.41,1.11-1.19,1.99c0.22,0.88,1.11,1.41,1.98,1.19c0.88-0.22,1.42-1.11,1.2-1.98
					c-0.15-0.61-0.62-1.04-1.19-1.18l3.53-18.54c0.32,0.05,0.66,0.04,1-0.05c0.65-0.16,1.17-0.56,1.51-1.08l5.05,3.03
					c-0.21,0.39-0.28,0.84-0.17,1.3c0.25,0.98,1.23,1.57,2.21,1.33c0.98-0.24,1.57-1.23,1.33-2.21c-0.24-0.98-1.23-1.58-2.21-1.33
					c-0.46,0.12-0.82,0.39-1.07,0.75l-5.05-3.03c0.3-0.54,0.41-1.19,0.25-1.84c-0.11-0.45-0.34-0.84-0.64-1.14l11.14-11.53
					c1.01,0.93,2.45,1.35,3.88,0.99c1.5-0.37,2.61-1.51,3.02-2.89l32.72,8.09c-0.23,1-0.23,2.05,0.03,3.12
					c0.17,0.68,0.44,1.32,0.79,1.9l-19.29,12.43c-0.62-0.82-1.68-1.24-2.74-0.97c-1.41,0.35-2.26,1.78-1.92,3.18
					c0.35,1.41,1.78,2.27,3.19,1.91c1.41-0.35,2.27-1.77,1.92-3.18c-0.05-0.22-0.14-0.43-0.25-0.62l19.29-12.44
					c0.63,0.9,1.46,1.63,2.42,2.14l-31.75,61.05c-1.23-0.61-2.66-0.81-4.1-0.45c-0.45,0.11-0.86,0.27-1.25,0.47l-2.2-3.95
					c0.68-0.47,1.04-1.32,0.82-2.16c-0.27-1.09-1.37-1.75-2.47-1.48c-1.09,0.27-1.75,1.37-1.48,2.46c0.28,1.09,1.38,1.75,2.47,1.48
					c0.11-0.02,0.22-0.07,0.33-0.11l2.2,3.94c-1.42,0.83-2.42,2.22-2.79,3.8l-16.58-3.22c0.07-0.47,0.05-0.97-0.07-1.46
					c-0.51-2.04-2.57-3.28-4.62-2.78c-2.05,0.51-3.29,2.58-2.78,4.62c0.51,2.04,2.58,3.29,4.62,2.78c1.42-0.35,2.46-1.46,2.78-2.79
					l16.58,3.21c-0.12,0.78-0.1,1.6,0.1,2.41c0.52,2.1,2.1,3.64,4.02,4.24l-2.67,9.36c-0.57-0.13-1.16-0.14-1.77,0.01
					c-2.03,0.5-3.26,2.56-2.75,4.58c0.5,2.02,2.56,3.26,4.58,2.75c2.03-0.5,3.26-2.56,2.76-4.58c-0.32-1.3-1.28-2.26-2.45-2.66
					l2.66-9.36c0.91,0.22,1.88,0.23,2.85-0.01c1.48-0.37,2.69-1.26,3.49-2.44l41.09,26.8c-1.06,1.7-1.45,3.8-0.93,5.89
					c0.11,0.47,0.29,0.92,0.49,1.35h13.87c0.38-0.82,0.63-1.69,0.7-2.61l16.89,0.88c-0.01,0.5,0.04,1,0.16,1.5
					c0.02,0.08,0.05,0.15,0.07,0.22h11.04C786.61,154.35,786.65,153.32,786.4,152.29 M641.1,13.18c-1.48,0.55-2.23,2.18-1.68,3.66
					c0.54,1.48,2.18,2.24,3.66,1.69c0.8-0.3,1.38-0.92,1.67-1.66l16.97,4.83c-0.09,0.5-0.06,1.01,0.12,1.52
					c0.33,0.88,1.05,1.5,1.89,1.75l-2.91,15.09c-0.58-0.07-1.18-0.02-1.77,0.19c-1.96,0.73-2.96,2.9-2.24,4.86
					c0.34,0.9,0.99,1.59,1.78,2.01l0.47,0.21c0.82,0.3,1.73,0.34,2.61,0.01c0.46-0.17,0.85-0.42,1.19-0.72l0.36-0.37
					c0.87-1.01,1.19-2.43,0.7-3.77c-0.45-1.2-1.43-2.04-2.59-2.34l2.91-15.08c0.42,0.04,0.85,0,1.28-0.16
					c1.47-0.54,2.23-2.19,1.69-3.66c-0.55-1.48-2.19-2.23-3.66-1.69c-0.8,0.3-1.38,0.92-1.66,1.66l-16.98-4.82
					c0.09-0.49,0.07-1.01-0.11-1.51c-0.44-1.19-1.58-1.89-2.78-1.85L640.36,0h-0.52l1.64,13.08
					C641.36,13.11,641.23,13.13,641.1,13.18 M594,44c1.04,0.36,2.18-0.18,2.54-1.22c0.14-0.4,0.14-0.8,0.04-1.18l3.55-1.31
					c0.61,1.39,1.76,2.53,3.3,3.07c2.58,0.9,5.37-0.18,6.7-2.45l32.27,16.07c-0.05,0.1-0.09,0.2-0.13,0.31
					c-0.74,2.13,0.38,4.46,2.52,5.21c2.13,0.74,4.46-0.38,5.2-2.51c0.74-2.13-0.38-4.46-2.51-5.2c-1.91-0.67-3.98,0.16-4.92,1.88
					L610.31,40.6c0.11-0.22,0.22-0.45,0.3-0.69c1.03-2.93-0.52-6.14-3.46-7.16c-0.68-0.24-1.38-0.33-2.06-0.31l-0.36,0.03
					c-2.11,0.21-4.01,1.6-4.75,3.73c-0.45,1.28-0.41,2.59,0.02,3.77l-3.54,1.31c-0.22-0.46-0.62-0.84-1.15-1.03
					c-1.03-0.36-2.17,0.19-2.53,1.22C592.42,42.5,592.97,43.64,594,44 M786.65,94.6c-0.16-0.32-0.36-0.63-0.62-0.91
					c-1.43-1.5-3.81-1.56-5.31-0.13c-1.51,1.43-1.56,3.8-0.13,5.31c0.94,0.99,2.28,1.34,3.52,1.07l2.65,9.82
					c-0.74,0.23-1.44,0.63-2.04,1.2c-0.99,0.94-1.52,2.18-1.6,3.44l-0.01,0.37c0.01,1.27,0.48,2.54,1.42,3.52
					c1.65,1.73,4.19,2.07,6.2,1.01l0.33-0.18c0.29-0.18,0.56-0.4,0.82-0.64c1.38-1.32,1.88-3.22,1.47-4.95l-0.1-0.36
					c-0.23-0.73-0.62-1.43-1.19-2.03c-1.31-1.38-3.2-1.87-4.93-1.47l-2.66-9.82c0.52-0.17,1.01-0.44,1.43-0.84
					c1.13-1.07,1.44-2.69,0.91-4.06l12.55-5.54v-0.41L786.65,94.6z M794.81,26.13c-2.37,1.9-2.81,5.3-1.06,7.73l-4.23,3.38
					c-0.73-0.68-1.86-0.76-2.66-0.11c-0.88,0.7-1.02,1.98-0.32,2.85c0.7,0.88,1.98,1.02,2.86,0.32c0.8-0.64,0.98-1.76,0.48-2.62
					l4.24-3.38c1.35,1.52,3.36,2.14,5.26,1.8V25C797.81,24.72,796.15,25.07,794.81,26.13 M783.12,67.09c0.75-0.6,0.88-1.7,0.27-2.45
					c-0.6-0.75-1.7-0.87-2.45-0.27c-0.76,0.6-0.88,1.7-0.27,2.45c0.06,0.07,0.13,0.14,0.2,0.2l-2.84,3.9
					c-0.81-0.58-1.8-0.92-2.87-0.95c-0.83-0.02-1.61,0.16-2.32,0.49l-6.33-12.43c0.7-0.42,1.18-1.17,1.2-2.05
					c0.03-1.35-1.04-2.49-2.4-2.52c-1.36-0.03-2.49,1.04-2.52,2.4c-0.03,1.36,1.04,2.48,2.4,2.52c0.36,0,0.71-0.07,1.02-0.21
					l6.33,12.43c-1.55,0.86-2.63,2.49-2.68,4.39c-0.02,0.67,0.1,1.32,0.32,1.92l-6.52,2.65c-0.57-1.21-1.77-2.06-3.2-2.1
					c-2-0.05-3.67,1.53-3.72,3.53c-0.05,2.01,1.54,3.67,3.54,3.71c2,0.05,3.67-1.53,3.72-3.53c0.01-0.46-0.06-0.9-0.21-1.3
					l6.52-2.66c0.79,1.76,2.53,3.01,4.59,3.06c2.57,0.06,4.73-1.76,5.2-4.2l0.06-0.33c0.02-0.17,0.04-0.34,0.04-0.51
					c0.04-1.65-0.7-3.13-1.88-4.11l2.85-3.92C781.76,67.59,782.54,67.55,783.12,67.09 M779.49,0.98c0.55-0.14,0.97-0.51,1.19-0.98
					h-3.28C777.77,0.76,778.63,1.19,779.49,0.98"/>
			</g>
		</g>
	</g>
	<g class="st0">
		<defs>
			<polyline id="SVGID_12_" points="820.78,574.02 -21.11,574.02 -21.11,-21.26 820.78,-21.26 			"/>
		</defs>
		<clipPath id="SVGID_13_">
			<use xlink:href="#SVGID_12_"  style="overflow:visible;"/>
		</clipPath>
	</g>
	<g class="st0">
		<defs>
			<polyline id="SVGID_14_" points="820.78,574.02 -21.11,574.02 -21.11,-21.26 820.78,-21.26 			"/>
		</defs>
		<clipPath id="SVGID_15_">
			<use xlink:href="#SVGID_14_"  style="overflow:visible;"/>
		</clipPath>
	</g>
</g>
<rect x="367.37" y="78.46" class="st7" width="250.56" height="86.4"/>
</svg>
