<?xml version="1.0" encoding="utf-8"?>
<!-- Generator: Adobe Illustrator 24.3.0, SVG Export Plug-In . SVG Version: 6.00 Build 0)  -->
<svg version="1.1" id="katman_1" xmlns="http://www.w3.org/2000/svg" xmlns:xlink="http://www.w3.org/1999/xlink" x="0px" y="0px"
	 viewBox="0 0 799.37 155.3" style="enable-background:new 0 0 799.37 155.3;" xml:space="preserve">
<style type="text/css">
	.st0{clip-path:url(#SVGID_2_);}
	.st1{clip-path:url(#SVGID_4_);fill:url(#SVGID_5_);}
	.st2{clip-path:url(#SVGID_7_);fill:url(#SVGID_8_);}
	.st3{fill:#FFFFFF;}
	.st4{font-family:'Montserrat-Light';}
	.st5{font-size:48px;}
	.st6{clip-path:url(#SVGID_14_);}
	.st7{clip-path:url(#SVGID_16_);fill:#F4E719;}
</style>
<g>
	<defs>
		<polyline id="SVGID_1_" points="820.82,-21.04 -21.07,-21.04 -21.07,574.23 820.82,574.23 		"/>
	</defs>
	<clipPath id="SVGID_2_">
		<use xlink:href="#SVGID_1_"  style="overflow:visible;"/>
	</clipPath>
	<g class="st0">
		<defs>
			<rect id="SVGID_3_" width="799.37" height="155.3"/>
		</defs>
		<clipPath id="SVGID_4_">
			<use xlink:href="#SVGID_3_"  style="overflow:visible;"/>
		</clipPath>
		
			<linearGradient id="SVGID_5_" gradientUnits="userSpaceOnUse" x1="-100.8937" y1="565.8015" x2="-99.8937" y2="565.8015" gradientTransform="matrix(799.3701 0 0 -799.3701 80651.3984 452362.4375)">
			<stop  offset="0" style="stop-color:#1E9A6B"/>
			<stop  offset="1" style="stop-color:#E0DD00"/>
		</linearGradient>
		<rect class="st1" width="799.37" height="155.3"/>
	</g>
	<g class="st0">
		<defs>
			<rect id="SVGID_6_" width="799.37" height="155.3"/>
		</defs>
		<clipPath id="SVGID_7_">
			<use xlink:href="#SVGID_6_"  style="overflow:visible;"/>
		</clipPath>
		
			<linearGradient id="SVGID_8_" gradientUnits="userSpaceOnUse" x1="-100.8937" y1="565.8015" x2="-99.8937" y2="565.8015" gradientTransform="matrix(799.3701 0 0 -799.3701 80651.3984 452362.4375)">
			<stop  offset="0" style="stop-color:#E84418"/>
			<stop  offset="1" style="stop-color:#FDDC00"/>
		</linearGradient>
		<rect class="st2" width="799.37" height="155.3"/>
	</g>
	<g class="st0">
		<text transform="matrix(1 0 0 1 154.9124 123.0849)" class="st3 st4 st5"> </text>
	</g>
	<g class="st0">
		<defs>
			<polyline id="SVGID_9_" points="820.82,574.23 -21.07,574.23 -21.07,-21.04 820.82,-21.04 			"/>
		</defs>
		<clipPath id="SVGID_10_">
			<use xlink:href="#SVGID_9_"  style="overflow:visible;"/>
		</clipPath>
	</g>
	<g class="st0">
		<defs>
			<polyline id="SVGID_11_" points="820.82,574.23 -21.07,574.23 -21.07,-21.04 820.82,-21.04 			"/>
		</defs>
		<clipPath id="SVGID_12_">
			<use xlink:href="#SVGID_11_"  style="overflow:visible;"/>
		</clipPath>
	</g>
	<g class="st0">
		<defs>
			<polyline id="SVGID_13_" points="820.82,574.23 -21.07,574.23 -21.07,-21.04 820.82,-21.04 			"/>
		</defs>
		<clipPath id="SVGID_14_">
			<use xlink:href="#SVGID_13_"  style="overflow:visible;"/>
		</clipPath>
		<g class="st6">
			<g>
				<defs>
					<rect id="SVGID_15_" x="585.7" width="213.67" height="155.3"/>
				</defs>
				<clipPath id="SVGID_16_">
					<use xlink:href="#SVGID_15_"  style="overflow:visible;"/>
				</clipPath>
				<path class="st7" d="M754.54,47.32l3.34,3.35h11.38l6.89-6.89h7.51c0.06-0.42,0.41-0.75,0.85-0.75c0.48,0,0.86,0.39,0.86,0.86
					c0,0.48-0.39,0.86-0.86,0.86c-0.44,0-0.79-0.33-0.85-0.75h-7.42l-6.89,6.88h-11.57l-3.41-3.41c-0.34,0.26-0.82,0.24-1.13-0.07
					c-0.34-0.34-0.34-0.88,0-1.22c0.34-0.34,0.88-0.34,1.22,0C754.78,46.49,754.8,46.98,754.54,47.32 M737.13,73.84l4.59,4.59h13.77
					l9.18,9.18h0.63c0.06,0.42,0.41,0.75,0.85,0.75c0.48,0,0.86-0.39,0.86-0.86c0-0.48-0.39-0.86-0.86-0.86
					c-0.44,0-0.79,0.33-0.85,0.75h-0.53l-9.18-9.18h-13.77l-4.59-4.59h-11.57l-1.12,1.12c-0.34-0.26-0.82-0.24-1.13,0.07
					c-0.34,0.34-0.34,0.88,0,1.22c0.34,0.34,0.88,0.34,1.22,0c0.31-0.31,0.33-0.79,0.07-1.13l1.05-1.05H737.13z M795.42,131.97
					c0.44,0,0.8-0.33,0.85-0.75h3.1v-0.23h-3.1c-0.06-0.42-0.41-0.75-0.85-0.75c-0.48,0-0.86,0.39-0.86,0.86
					C794.56,131.58,794.95,131.97,795.42,131.97 M738.4,92.09c-0.34-0.34-0.88-0.34-1.22,0c-0.34,0.34-0.34,0.88,0,1.22
					c0.31,0.31,0.79,0.33,1.13,0.07l5.71,5.71h32.23l11.54-11.54v-2.92c0.42-0.06,0.75-0.41,0.75-0.85c0-0.48-0.39-0.86-0.86-0.86
					c-0.48,0-0.86,0.39-0.86,0.86c0,0.44,0.33,0.8,0.75,0.85v2.83l-11.41,11.41h-32.04l-5.64-5.64
					C738.73,92.88,738.71,92.4,738.4,92.09 M799.37,79.26v2.27l-20.55,20.54h-37.39l-9.24-9.23c-1.32,0.8-3.06,0.64-4.2-0.5
					c-1.33-1.33-1.33-3.5,0-4.84c1.33-1.33,3.5-1.33,4.84,0c1.14,1.14,1.31,2.88,0.5,4.2l8.77,8.77h36.06L799.37,79.26z
					 M732.37,88.17L732.37,88.17c-0.01-0.01-0.03-0.04-0.06-0.06c-0.01-0.01-0.03-0.03-0.04-0.04l-0.04-0.04l0.02,0.02
					c-1.02-1.01-2.67-1-3.69,0.01c-1.02,1.02-1.02,2.68,0,3.7c0.82,0.82,2.06,0.98,3.05,0.48c0.24-0.12,0.46-0.28,0.66-0.48
					c0.2-0.2,0.36-0.42,0.48-0.66C733.23,90.17,733.11,88.99,732.37,88.17 M737.23,44.01h9.71c0.06,0.42,0.41,0.75,0.85,0.75
					c0.48,0,0.86-0.39,0.86-0.86c0-0.48-0.39-0.86-0.86-0.86c-0.44,0-0.79,0.33-0.85,0.75h-9.81L718.71,62.2v5.22
					c-0.42,0.06-0.75,0.41-0.75,0.85c0,0.48,0.39,0.86,0.86,0.86c0.48,0,0.86-0.39,0.86-0.86c0-0.44-0.33-0.79-0.75-0.85V62.3
					L737.23,44.01z M760.46,17.15h-25.25l-6.88,6.89h-21.32l-9.18-9.18h-6.69c-0.36,1.5-1.72,2.62-3.33,2.62
					c-1.89,0-3.42-1.53-3.42-3.42c0-1.89,1.54-3.42,3.42-3.42c1.61,0,2.96,1.12,3.33,2.62h7.36l9.18,9.18h19.99l6.89-6.89h25.25
					l13.77-13.77h25.8v1.61h-25.14L760.46,17.15z M690.43,14.05c0-0.28-0.04-0.55-0.13-0.8c-0.34-1.05-1.33-1.82-2.49-1.82
					c-1.44,0-2.62,1.17-2.62,2.62c0,1.44,1.17,2.62,2.62,2.62c1.16,0,2.15-0.76,2.49-1.82C690.39,14.6,690.43,14.33,690.43,14.05
					 M711.89,50.66h-13.67l-4.59-4.59h-2.92c-0.06-0.42-0.41-0.75-0.85-0.75c-0.48,0-0.86,0.39-0.86,0.86
					c0,0.48,0.39,0.86,0.86,0.86c0.44,0,0.79-0.33,0.85-0.75h2.83l4.59,4.59h13.86l25.31-25.31v-0.63c0.42-0.06,0.75-0.41,0.75-0.85
					c0-0.48-0.39-0.86-0.86-0.86c-0.48,0-0.86,0.39-0.86,0.86c0,0.44,0.33,0.79,0.75,0.85v0.53L711.89,50.66z M758.7,70
					c0-0.48-0.39-0.86-0.86-0.86c-0.48,0-0.86,0.39-0.86,0.86c0,0.44,0.33,0.8,0.75,0.85v2.92l4.66,4.66h13.87l9.18-9.18h2.3
					l9.18-9.18h2.47v-0.23h-2.56l-9.18,9.18h-2.3l-9.18,9.18h-13.68l-4.52-4.52v-2.83C758.37,70.79,758.7,70.44,758.7,70
					 M699.38,7.17c-0.34-0.34-0.88-0.34-1.22,0c-0.34,0.34-0.34,0.88,0,1.22c0.31,0.31,0.79,0.33,1.13,0.07l5.71,5.71h6.98
					l11.48-11.48h15.97l3.34,3.35c-0.26,0.34-0.24,0.82,0.07,1.13c0.34,0.34,0.88,0.34,1.22,0c0.34-0.34,0.34-0.88,0-1.22
					c-0.31-0.31-0.79-0.33-1.13-0.07l-3.41-3.41h-16.16l-11.48,11.48h-6.79l-5.64-5.64C699.72,7.96,699.69,7.48,699.38,7.17
					 M781.37,82.79h-18.89l-6.89-6.89h-9.81c-0.06-0.42-0.41-0.75-0.85-0.75c-0.48,0-0.86,0.39-0.86,0.86
					c0,0.48,0.39,0.86,0.86,0.86c0.44,0,0.79-0.33,0.85-0.75h9.71l6.89,6.89h18.99c0.06,0.42,0.41,0.75,0.85,0.75
					c0.48,0,0.86-0.39,0.86-0.86c0-0.48-0.39-0.86-0.86-0.86C781.78,82.04,781.43,82.37,781.37,82.79 M744.11,23.35h29.84l6.89-6.89
					h11.38l6.88,6.89h0.27v-0.23h-0.17l-6.89-6.88h-11.57l-6.89,6.88h-29.84l-18.43,18.43v0.63c-0.42,0.06-0.75,0.41-0.75,0.85
					c0,0.48,0.39,0.86,0.86,0.86c0.48,0,0.86-0.39,0.86-0.86c0-0.44-0.33-0.79-0.75-0.85v-0.53L744.11,23.35z M708.42,32.41
					c0.34,0.34,0.88,0.34,1.22,0c0.34-0.34,0.34-0.88,0-1.22c-0.31-0.31-0.79-0.33-1.13-0.07l-10.3-10.3h-6.98l-2.29,2.29h-13.68
					l-3.34-3.34c0.26-0.34,0.24-0.82-0.07-1.13c-0.34-0.34-0.88-0.34-1.22,0c-0.34,0.34-0.34,0.88,0,1.22
					c0.31,0.31,0.79,0.33,1.13,0.07l3.41,3.41h13.87l2.3-2.3h6.79l10.23,10.23C708.09,31.62,708.11,32.11,708.42,32.41
					 M661.39,44.01l20.66,20.66h7.51c0.06,0.42,0.41,0.75,0.85,0.75c0.48,0,0.86-0.39,0.86-0.86c0-0.48-0.39-0.86-0.86-0.86
					c-0.44,0-0.79,0.33-0.85,0.75h-7.42l-20.66-20.66h-13.87l-1.12,1.12c-0.34-0.26-0.82-0.24-1.13,0.07
					c-0.34,0.34-0.34,0.88,0,1.22c0.34,0.34,0.88,0.34,1.22,0c0.31-0.31,0.33-0.79,0.07-1.13l1.05-1.05H661.39z M792.41,80.96
					h-30.12l-8.69-8.69c-0.77,0.55-1.84,0.5-2.56-0.15c-0.03-0.03-0.05-0.05-0.08-0.07c-0.03-0.03-0.05-0.05-0.07-0.08
					c-0.73-0.81-0.7-2.05,0.07-2.83c0.8-0.8,2.1-0.8,2.9,0c0.72,0.72,0.79,1.84,0.22,2.64l8.49,8.49h29.55l6.89-6.89h0.36v0.69
					h-0.08L792.41,80.96z M753.52,69.48c-0.61-0.61-1.61-0.61-2.22,0c-0.61,0.61-0.61,1.61,0,2.22c0.53,0.53,1.35,0.6,1.95,0.22
					c0.1-0.06,0.19-0.13,0.27-0.22c0.08-0.08,0.16-0.17,0.22-0.27C754.12,70.82,754.04,70,753.52,69.48 M695.82,7.28l11.47,11.48
					h20.75l6.89-6.89h25.25L772.05,0h-0.33l-11.64,11.64h-25.25l-6.89,6.89h-20.56L695.92,7.05h-13.87l-1.12,1.12
					c-0.34-0.26-0.82-0.24-1.13,0.07c-0.34,0.34-0.34,0.88,0,1.22c0.34,0.34,0.88,0.34,1.22,0c0.31-0.31,0.33-0.79,0.07-1.13
					l1.05-1.05H695.82z M753.29,110.33l-2.3-2.29h-18.36l-6.89-6.89h-16.69c-0.06-0.42-0.41-0.75-0.85-0.75
					c-0.48,0-0.86,0.39-0.86,0.86c0,0.48,0.39,0.86,0.86,0.86c0.44,0,0.79-0.33,0.85-0.75h16.6l6.89,6.89h18.36l2.29,2.29h20.75
					l12.59-12.59c0.34,0.26,0.82,0.24,1.13-0.07c0.34-0.34,0.34-0.88,0-1.22c-0.34-0.34-0.88-0.34-1.22,0
					c-0.31,0.31-0.33,0.79-0.07,1.13l-12.53,12.52H753.29z M614.46,53.07c-0.34-0.34-0.88-0.34-1.22,0c-0.34,0.34-0.34,0.88,0,1.22
					c0.31,0.31,0.79,0.33,1.13,0.07l3.41,3.41h6.98l16.07-16.07h20.56l18.36,18.36h2.92c0.06,0.42,0.41,0.75,0.85,0.75
					c0.48,0,0.86-0.39,0.86-0.86c0-0.48-0.39-0.86-0.86-0.86c-0.44,0-0.79,0.33-0.85,0.75h-2.83l-18.36-18.36h-20.75l-16.07,16.07
					h-6.79l-3.34-3.34C614.8,53.86,614.77,53.38,614.46,53.07 M653.12,1.15c0.44,0,0.79-0.33,0.85-0.75h7.51l0.4-0.4h-0.32
					l-0.17,0.17h-7.42c-0.01-0.06-0.03-0.11-0.05-0.17h-1.6c-0.03,0.09-0.06,0.18-0.06,0.28C652.26,0.76,652.65,1.15,653.12,1.15
					 M665.98,115.15h25.25l6.89,6.89h7.51c0.06,0.42,0.42,0.75,0.85,0.75c0.48,0,0.86-0.39,0.86-0.86c0-0.48-0.39-0.86-0.86-0.86
					c-0.44,0-0.79,0.33-0.85,0.75h-7.42l-6.89-6.89h-25.25l-11.41-11.41v-0.53c0.42-0.06,0.75-0.41,0.75-0.85
					c0-0.48-0.39-0.86-0.86-0.86c-0.48,0-0.86,0.39-0.86,0.86c0,0.44,0.33,0.8,0.75,0.85v0.63L665.98,115.15z M679.47,69.94
					l-18.36-18.36h-24.58l-9.18,9.18h-14.24c-0.36,1.5-1.72,2.62-3.33,2.62c-1.89,0-3.42-1.54-3.42-3.42c0-1.89,1.54-3.42,3.42-3.42
					c1.61,0,2.96,1.12,3.33,2.62h13.58l9.18-9.18h25.91l18.36,18.36h24.58l36.72-36.72h57.93v2.16l-0.55-0.55H742.1l-36.72,36.72
					H679.47z M612.4,59.96c0-0.28-0.04-0.55-0.13-0.8c-0.34-1.05-1.33-1.82-2.49-1.82c-1.44,0-2.62,1.17-2.62,2.62
					c0,1.44,1.18,2.62,2.62,2.62c1.16,0,2.15-0.76,2.49-1.82C612.36,60.5,612.4,60.24,612.4,59.96 M783.19,155.3
					c-0.03-0.06-0.06-0.12-0.11-0.17c-0.31-0.31-0.79-0.33-1.13-0.07l-1.12-1.12h-9.27l-1.36,1.36h0.33l1.13-1.13h9.09l1.05,1.05
					c-0.02,0.02-0.03,0.05-0.04,0.08H783.19z M696.01,144.53h-14.06l-2.29,2.29h-12.33c-0.16-0.84-0.9-1.47-1.78-1.47
					c-1,0-1.81,0.81-1.81,1.81c0,1,0.81,1.81,1.81,1.81c0.88,0,1.62-0.63,1.78-1.47h12.62l2.3-2.29h13.49l10.08,10.08h0.97
					L696.01,144.53z M658.88,62.25c0.71,0.71,1.86,0.71,2.56,0c0.71-0.71,0.71-1.85,0-2.56c-0.62-0.62-1.59-0.7-2.29-0.22
					l-4.45-4.45h-16.35L626.87,66.5h-26.1c-0.16-0.84-0.9-1.47-1.78-1.47c-1,0-1.81,0.81-1.81,1.81c0,1,0.81,1.81,1.81,1.81
					c0.88,0,1.62-0.63,1.78-1.47h26.39l11.47-11.48h15.78l4.25,4.24C658.18,60.66,658.25,61.63,658.88,62.25 M636.15,94.5l2.3,2.3
					h18.36l9.18,9.18h18.46l3.41-3.41c0.34,0.26,0.82,0.24,1.13-0.07c0.34-0.34,0.34-0.88,0-1.22c-0.34-0.34-0.88-0.34-1.22,0
					c-0.31,0.31-0.33,0.79-0.07,1.13l-3.34,3.35h-18.27l-9.18-9.18h-18.36l-2.29-2.29h-13.86l-5.71,5.71
					c-0.34-0.26-0.82-0.24-1.13,0.07c-0.34,0.34-0.34,0.88,0,1.22c0.34,0.34,0.88,0.34,1.22,0c0.31-0.31,0.33-0.79,0.07-1.13
					l5.64-5.64H636.15z M790.83,107.29c-0.48,0-0.86,0.39-0.86,0.86c0,0.48,0.39,0.86,0.86,0.86c0.44,0,0.79-0.33,0.85-0.75h7.69
					v-0.23h-7.69C791.63,107.62,791.27,107.29,790.83,107.29 M670.67,112.63L656.9,98.86h-2.92c-0.06-0.42-0.41-0.75-0.85-0.75
					c-0.48,0-0.86,0.39-0.86,0.86c0,0.48,0.39,0.86,0.86,0.86c0.44,0,0.79-0.33,0.85-0.75h2.83l13.77,13.77h25.34l6.89-6.89h9.71
					c0.06,0.42,0.41,0.75,0.85,0.75c0.48,0,0.86-0.39,0.86-0.86c0-0.48-0.39-0.86-0.86-0.86c-0.44,0-0.79,0.33-0.85,0.75h-9.81
					l-6.89,6.89H670.67z M698.16,102.34c-0.34,0.34-0.34,0.88,0,1.22c0.34,0.34,0.88,0.34,1.22,0c0.31-0.31,0.33-0.79,0.07-1.13
					l3.34-3.34h22.86l6.89,6.89h14.4c0.06,0.42,0.41,0.75,0.85,0.75c0.48,0,0.86-0.39,0.86-0.86c0-0.48-0.39-0.86-0.86-0.86
					c-0.44,0-0.79,0.33-0.85,0.75h-14.3l-6.89-6.89h-23.05l-3.41,3.41C698.96,102.01,698.47,102.03,698.16,102.34 M796.85,101.27
					c-0.71,0.71-0.71,1.85,0,2.56c0.62,0.62,1.59,0.7,2.29,0.22l0.22,0.22v-3.04C798.66,100.57,797.55,100.58,796.85,101.27
					 M685.26,134.26c0.44,0,0.79-0.33,0.85-0.75h5.22l4.59-4.59h18.36l3.41-3.41c0.34,0.26,0.82,0.24,1.13-0.07
					c0.34-0.34,0.34-0.88,0-1.22c-0.34-0.34-0.88-0.34-1.22,0c-0.31,0.31-0.33,0.79-0.07,1.13l-3.34,3.35h-18.36l-4.59,4.59h-5.12
					c-0.06-0.42-0.41-0.75-0.85-0.75c-0.48,0-0.86,0.39-0.86,0.86C684.39,133.88,684.78,134.26,685.26,134.26 M759,104.57
					l-1.12-1.12h-20.66l-9.18-9.18h-11.57l-2.29,2.29h-12.33c-0.06-0.42-0.41-0.75-0.85-0.75c-0.48,0-0.86,0.39-0.86,0.86
					c0,0.48,0.39,0.86,0.86,0.86c0.44,0,0.79-0.33,0.85-0.75h12.43l2.29-2.3h11.38l9.18,9.18h20.66l1.05,1.05
					c-0.26,0.34-0.24,0.82,0.07,1.13c0.34,0.34,0.88,0.34,1.22,0c0.34-0.34,0.34-0.88,0-1.22
					C759.82,104.33,759.34,104.31,759,104.57 M700.46,136.18l2.15,2.15h11.76l13.77-13.77h15.78l2.29,2.29h27.83l11.47-11.48h13.85
					v-0.69h-14.14l-11.47,11.47H746.5l-2.29-2.29h-16.35l-13.77,13.77H702.9l-1.95-1.95c0.48-0.71,0.4-1.67-0.22-2.3
					c-0.71-0.71-1.86-0.71-2.56,0c-0.71,0.71-0.71,1.86,0,2.56C698.79,136.59,699.75,136.66,700.46,136.18 M799.15,87.5
					c0.07,0.07,0.14,0.11,0.22,0.15v-1.52c-0.08,0.04-0.16,0.09-0.22,0.15C798.81,86.61,798.81,87.16,799.15,87.5 M794.23,93.58
					h5.06c0.02-0.09,0.06-0.17,0.08-0.25v2.11c-0.03-0.08-0.06-0.16-0.08-0.25h-4.4l-20.66,20.66h-21.32l-4.59-4.59h-38.35
					l-4.17,4.18c0.8,1.32,0.64,3.06-0.5,4.2c-1.33,1.33-3.5,1.33-4.84,0c-1.33-1.33-1.33-3.5,0-4.84c1.14-1.14,2.88-1.31,4.2-0.5
					l4.64-4.65h39.68l4.59,4.59h19.99L794.23,93.58z M705.21,116.01c-0.12-0.24-0.28-0.46-0.48-0.66c-0.2-0.2-0.42-0.36-0.66-0.48
					c-0.98-0.5-2.22-0.34-3.05,0.48c-1.02,1.02-1.02,2.68,0,3.7c1.02,1.02,2.67,1.02,3.69,0.01l-0.02,0.02l0.04-0.04
					c0.02-0.02,0.03-0.03,0.04-0.04c0.02-0.02,0.03-0.04,0.05-0.05C705.57,118.14,705.69,116.96,705.21,116.01 M744.02,112.86
					l6.89,6.89h9.81c0.06,0.42,0.41,0.75,0.85,0.75c0.48,0,0.86-0.39,0.86-0.86c0-0.48-0.39-0.86-0.86-0.86
					c-0.44,0-0.79,0.33-0.85,0.75H751l-6.89-6.89h-29.93l-3.41,3.41c-0.34-0.26-0.82-0.24-1.13,0.07c-0.34,0.34-0.34,0.88,0,1.22
					c0.34,0.34,0.88,0.34,1.22,0c0.31-0.31,0.33-0.79,0.07-1.13l3.34-3.34H744.02z M692.14,125.65c-0.48,0-0.86,0.39-0.86,0.86
					c0,0.48,0.39,0.86,0.86,0.86c0.44,0,0.79-0.33,0.85-0.75h21.28l4.59-4.59h25.15l2.29,2.29h25.34l10.3-10.3
					c0.34,0.26,0.82,0.24,1.13-0.07c0.34-0.34,0.34-0.88,0-1.22c-0.34-0.34-0.88-0.34-1.22,0c-0.31,0.31-0.33,0.79-0.07,1.13
					l-10.23,10.23h-25.15l-2.29-2.3h-25.34l-4.59,4.59h-21.19C692.94,125.98,692.58,125.65,692.14,125.65 M773.42,146.69
					c0.88,0,1.62-0.63,1.78-1.47h7.74l10.08,10.08h0.97l-10.77-10.77h-8.03c-0.16-0.84-0.9-1.47-1.78-1.47c-1,0-1.81,0.81-1.81,1.81
					C771.61,145.88,772.42,146.69,773.42,146.69 M783.13,137.88h-12.1c-0.06-0.42-0.41-0.75-0.85-0.75c-0.48,0-0.86,0.39-0.86,0.86
					c0,0.48,0.39,0.86,0.86,0.86c0.44,0,0.79-0.33,0.85-0.75h12.01l11.41,11.41v4.59l1.2,1.19h0.33l-1.29-1.29v-4.59L783.13,137.88z
					 M746.31,133.29l-2.29,2.29h-18.36l-4.66,4.66v2.92c-0.42,0.06-0.75,0.41-0.75,0.85c0,0.48,0.39,0.86,0.86,0.86
					c0.48,0,0.86-0.39,0.86-0.86c0-0.44-0.33-0.8-0.75-0.85v-2.83l4.52-4.52h18.36l2.29-2.3h36.63l16.34,16.33v-0.32l-16.24-16.24
					H746.31z M637.06,118.2c0.44,0,0.79-0.33,0.85-0.75h18.89l25.25,25.25h18.36l9.18,9.18h9.81c0.06,0.42,0.41,0.75,0.85,0.75
					c0.48,0,0.86-0.39,0.86-0.86c0-0.48-0.39-0.86-0.86-0.86c-0.44,0-0.8,0.33-0.85,0.75h-9.71l-9.18-9.18h-18.36l-25.25-25.25
					h-18.99c-0.06-0.42-0.41-0.75-0.85-0.75c-0.48,0-0.86,0.39-0.86,0.86C636.2,117.81,636.58,118.2,637.06,118.2 M783.13,135.58
					h-36.82l-4.59,4.59h-0.53c-0.06-0.42-0.41-0.75-0.85-0.75c-0.48,0-0.86,0.39-0.86,0.86c0,0.48,0.39,0.86,0.86,0.86
					c0.44,0,0.8-0.33,0.85-0.75h0.63l4.59-4.59h36.63l16.34,16.33v-0.32L783.13,135.58z M674.35,75.16c-0.44,0-0.8,0.33-0.85,0.75
					h-5.12L656.9,64.43h-11.57l-9.18,9.18h-5.12c-0.06-0.42-0.41-0.75-0.85-0.75c-0.48,0-0.86,0.39-0.86,0.86
					c0,0.48,0.39,0.86,0.86,0.86c0.44,0,0.79-0.33,0.85-0.75h5.22l9.18-9.18h11.38l11.48,11.48h5.22c0.06,0.42,0.41,0.75,0.85,0.75
					c0.48,0,0.86-0.39,0.86-0.86C675.21,75.55,674.83,75.16,674.35,75.16 M677.56,85.09h-7.51c-0.06-0.42-0.41-0.75-0.85-0.75
					c-0.48,0-0.86,0.39-0.86,0.86c0,0.48,0.39,0.86,0.86,0.86c0.44,0,0.79-0.33,0.85-0.75h7.42l4.59,4.59h11.57l1.12-1.12
					c0.34,0.26,0.82,0.24,1.13-0.07c0.34-0.34,0.34-0.88,0-1.22c-0.34-0.34-0.88-0.34-1.22,0c-0.31,0.31-0.33,0.79-0.07,1.13
					l-1.05,1.05h-11.38L677.56,85.09z M627.01,98.97c0-1,0.81-1.81,1.81-1.81c0.88,0,1.62,0.63,1.78,1.47h17.21l20.66,20.66h4.96
					c0.16-0.97,1.01-1.71,2.02-1.71c1.13,0,2.05,0.92,2.05,2.05c0,1.13-0.92,2.05-2.05,2.05c-1.02,0-1.86-0.74-2.02-1.71h-5.25
					l-20.66-20.66h-16.92c-0.16,0.84-0.9,1.47-1.78,1.47C627.83,100.79,627.01,99.97,627.01,98.97 M673.88,119.63
					c0,0.12,0.01,0.23,0.04,0.34c0.16,0.7,0.78,1.23,1.53,1.23c0.87,0,1.57-0.7,1.57-1.57c0-0.87-0.7-1.57-1.57-1.57
					c-0.75,0-1.38,0.53-1.53,1.23C673.9,119.4,673.88,119.51,673.88,119.63 M704.91,84.86h-12.33c-0.16-0.84-0.9-1.47-1.78-1.47
					c-1,0-1.81,0.81-1.81,1.81c0,1,0.81,1.81,1.81,1.81c0.88,0,1.62-0.63,1.78-1.47h12.62l4.59-4.59h20.37l11.48,11.48h14.91
					c0.16,0.84,0.9,1.47,1.78,1.47c1,0,1.81-0.81,1.81-1.81c0-1-0.81-1.81-1.81-1.81c-0.88,0-1.62,0.63-1.78,1.47h-14.63
					l-11.48-11.47H709.5L704.91,84.86z M650.83,143.44c0.44,0,0.79-0.33,0.85-0.75h5.22l2.3-2.3h11.38l3.35,3.34
					c-0.26,0.34-0.24,0.82,0.07,1.13c0.34,0.34,0.88,0.34,1.22,0c0.34-0.34,0.34-0.88,0-1.22c-0.31-0.31-0.79-0.33-1.13-0.07
					l-3.41-3.41H659.1l-2.3,2.3h-5.12c-0.06-0.42-0.41-0.75-0.85-0.75c-0.48,0-0.86,0.39-0.86,0.86
					C649.97,143.06,650.35,143.44,650.83,143.44 M689.03,149.35h-18.46l-4.59,4.59h-9.71c-0.06-0.42-0.41-0.75-0.85-0.75
					c-0.48,0-0.86,0.39-0.86,0.86c0,0.48,0.39,0.86,0.86,0.86c0.44,0,0.79-0.33,0.85-0.75h9.81l4.59-4.59h18.27l5.72,5.72h0.32
					L689.03,149.35z M586.57,72.29c0.44,0,0.79-0.33,0.85-0.75h16.69l2.3-2.29h20.66l11.47-11.47h13.68l16.07,16.06h41.94
					c0.06,0.42,0.41,0.75,0.85,0.75c0.48,0,0.86-0.39,0.86-0.86c0-0.48-0.39-0.86-0.86-0.86c-0.44,0-0.79,0.33-0.85,0.75h-41.85
					l-16.07-16.07h-13.87l-11.48,11.48h-20.66l-2.3,2.29h-16.6c-0.06-0.42-0.41-0.75-0.85-0.75c-0.48,0-0.86,0.39-0.86,0.86
					C585.7,71.91,586.09,72.29,586.57,72.29 M729.95,154.89l-0.41,0.41h-0.97l0.9-0.9c-0.57-0.8-0.5-1.92,0.22-2.64
					c0.8-0.8,2.1-0.8,2.9,0c0.78,0.78,0.8,2.04,0.06,2.84c-0.02,0.02-0.04,0.04-0.06,0.06c-0.02,0.02-0.04,0.04-0.06,0.06
					C731.81,155.39,730.73,155.44,729.95,154.89 M729.81,154.05c0.06,0.1,0.13,0.19,0.22,0.27c0.08,0.08,0.17,0.16,0.27,0.21
					c0.61,0.39,1.42,0.31,1.95-0.21c0.61-0.61,0.61-1.61,0-2.22c-0.61-0.61-1.61-0.61-2.22,0
					C729.5,152.63,729.43,153.45,729.81,154.05 M716.52,66.84c0.48,0,0.86-0.39,0.86-0.86c0-0.44-0.33-0.79-0.75-0.85V62.3
					l20.59-20.59h9.18l4.59-4.59h16.6c0.06,0.42,0.41,0.75,0.85,0.75c0.48,0,0.86-0.39,0.86-0.86c0-0.48-0.39-0.86-0.86-0.86
					c-0.44,0-0.79,0.33-0.85,0.75H750.9l-4.59,4.59h-9.18L716.41,62.2v2.92c-0.42,0.06-0.75,0.41-0.75,0.85
					C715.66,66.46,716.05,66.84,716.52,66.84 M785.43,151.65h-13.86l-3.65,3.65h0.32l3.42-3.42h13.67l3.42,3.42h0.32L785.43,151.65z
					 M672.05,152.62c0.48,0,0.86-0.39,0.86-0.86c0-0.48-0.39-0.86-0.86-0.86c-0.44,0-0.79,0.33-0.85,0.75h-0.63l-3.65,3.65h0.33
					l3.42-3.42h0.53C671.26,152.3,671.62,152.62,672.05,152.62 M799.37,143.96v2.27l-14.33-14.33h-59.01l-9.18,9.18h-32.8
					l-27.54-27.54h-6.69c-0.36,1.5-1.72,2.62-3.33,2.62c-1.89,0-3.42-1.54-3.42-3.42c0-1.89,1.54-3.42,3.42-3.42
					c1.61,0,2.96,1.12,3.33,2.62h7.36l27.54,27.54h31.47l9.18-9.18h60.34L799.37,143.96z M649.12,112.74c0-0.28-0.04-0.55-0.13-0.8
					c-0.34-1.05-1.33-1.82-2.49-1.82c-1.44,0-2.62,1.17-2.62,2.62c0,1.44,1.18,2.62,2.62,2.62c1.16,0,2.15-0.76,2.49-1.82
					C649.08,113.29,649.12,113.02,649.12,112.74 M791.05,155.3h0.32l-5.95-5.95h-20.66l-5.64-5.64c0.26-0.34,0.24-0.82-0.07-1.13
					c-0.34-0.34-0.88-0.34-1.22,0c-0.34,0.34-0.34,0.88,0,1.22c0.31,0.31,0.79,0.33,1.13,0.07l5.71,5.71h20.66L791.05,155.3z
					 M790.08,131.06v-2.83c0.42-0.06,0.75-0.41,0.75-0.85c0-0.48-0.39-0.86-0.86-0.86c-0.48,0-0.86,0.39-0.86,0.86
					c0,0.44,0.33,0.8,0.75,0.85v2.92l9.52,9.52v-0.33L790.08,131.06z M661.49,2.69L664.18,0h-0.33l-2.46,2.46h-11.38L647.55,0h-0.33
					l2.69,2.69H661.49z M682.96,21.8c0.44,0,0.8-0.33,0.85-0.75h5.22l2.3-2.3h6.79l9.18,9.18h12.1c0.06,0.42,0.41,0.75,0.85,0.75
					c0.48,0,0.86-0.39,0.86-0.86c0-0.48-0.39-0.86-0.86-0.86c-0.44,0-0.8,0.33-0.85,0.75h-12.01l-9.18-9.18h-6.98l-2.29,2.29h-5.12
					c-0.06-0.42-0.42-0.75-0.85-0.75c-0.48,0-0.86,0.39-0.86,0.86C682.1,21.42,682.48,21.8,682.96,21.8 M783.95,54.5
					c-0.48,0-0.86,0.39-0.86,0.86c0,0.48,0.39,0.86,0.86,0.86c0.44,0,0.79-0.33,0.85-0.75h14.57v-0.23H784.8
					C784.74,54.83,784.38,54.5,783.95,54.5 M788.54,12.62c0.44,0,0.79-0.33,0.85-0.75h9.71l0.27,0.27v-0.33l-0.17-0.17h-9.81
					c-0.06-0.42-0.41-0.75-0.85-0.75c-0.48,0-0.86,0.39-0.86,0.86C787.67,12.24,788.06,12.62,788.54,12.62 M792.22,75.91h-5.12
					c-0.06-0.42-0.41-0.75-0.85-0.75c-0.48,0-0.86,0.39-0.86,0.86c0,0.48,0.39,0.86,0.86,0.86c0.44,0,0.8-0.33,0.85-0.75h5.22
					l6.89-6.89h0.17v-0.23h-0.27L792.22,75.91z M775.87,72.92l16.07-16.07h7.44v1.61h-6.77l-16.07,16.07h-7.36
					c-0.36,1.5-1.72,2.62-3.33,2.62c-1.89,0-3.42-1.54-3.42-3.42c0-1.89,1.53-3.42,3.42-3.42c1.61,0,2.96,1.12,3.33,2.62H775.87z
					 M768.47,73.73c0-0.28-0.04-0.55-0.13-0.8c-0.34-1.05-1.33-1.82-2.49-1.82c-1.44,0-2.62,1.17-2.62,2.62
					c0,1.44,1.17,2.62,2.62,2.62c1.16,0,2.15-0.76,2.49-1.82C768.42,74.28,768.47,74.01,768.47,73.73 M676.51,4.53
					c-0.16-0.84-0.89-1.47-1.78-1.47c-1,0-1.81,0.81-1.81,1.81s0.81,1.81,1.81,1.81c0.88,0,1.62-0.63,1.78-1.47h0h35.57L717.29,0
					h-0.97l-4.53,4.53H676.51L676.51,4.53z M767.16,2.92L770.08,0h-0.97l-2.23,2.23h-15.78L748.86,0h-0.97l2.92,2.92H767.16z
					 M799.37,0.4V0.17h-18.54L780.67,0h-0.33l0.4,0.4H799.37z M704.47,7.05c-0.06-0.42-0.41-0.75-0.85-0.75
					c-0.48,0-0.86,0.39-0.86,0.86c0,0.48,0.39,0.86,0.86,0.86c0.44,0,0.8-0.33,0.85-0.75h7.51l6.89-6.89h27.45l5.64,5.64
					c-0.26,0.34-0.24,0.82,0.07,1.13c0.34,0.34,0.88,0.34,1.22,0c0.34-0.34,0.34-0.88,0-1.22c-0.31-0.31-0.79-0.33-1.13-0.07
					l-5.71-5.71h-27.64l-6.89,6.89H704.47z M767.06,0.4l0.4-0.4h-0.32l-0.17,0.17H751L750.83,0h-0.32l0.4,0.4H767.06z M693.62,43.78
					h-6.98l-1.12,1.12c-0.34-0.26-0.82-0.24-1.13,0.07c-0.34,0.34-0.34,0.88,0,1.22c0.34,0.34,0.88,0.34,1.22,0
					c0.31-0.31,0.33-0.79,0.07-1.13l1.05-1.05h6.79l4.59,4.59h13.86l20.72-20.72v-0.63c0.42-0.06,0.75-0.41,0.75-0.85
					c0-0.48-0.39-0.86-0.86-0.86c-0.48,0-0.86,0.39-0.86,0.86c0,0.44,0.33,0.79,0.75,0.85v0.53l-20.59,20.59h-13.67L693.62,43.78z
					 M749.79,65.55c-0.34-0.26-0.82-0.24-1.13,0.07c-0.34,0.34-0.34,0.88,0,1.22c0.34,0.34,0.88,0.34,1.22,0
					c0.31-0.31,0.33-0.79,0.07-1.13l1.05-1.05h13.68l4.59,4.59h5.22c0.06,0.42,0.41,0.75,0.85,0.75c0.48,0,0.86-0.39,0.86-0.86
					c0-0.48-0.39-0.86-0.86-0.86c-0.44,0-0.79,0.33-0.85,0.75h-5.12l-4.59-4.59H750.9L749.79,65.55z M661.44,28.9
					c-0.34,0.34-0.34,0.88,0,1.22c0.34,0.34,0.88,0.34,1.22,0c0.31-0.31,0.33-0.79,0.07-1.13l3.34-3.34h25.15l7.93,7.93
					c-0.26,0.34-0.24,0.82,0.07,1.13c0.34,0.34,0.88,0.34,1.22,0c0.34-0.34,0.34-0.88,0-1.22c-0.31-0.31-0.79-0.33-1.13-0.07l-8-8
					h-25.34l-3.41,3.41C662.23,28.57,661.75,28.59,661.44,28.9 M763.29,47.62c-0.48,0-0.86,0.39-0.86,0.86
					c0,0.48,0.39,0.86,0.86,0.86c0.44,0,0.79-0.33,0.85-0.75h5.22l9.18-9.18h6.79l13.77,13.77h0.27v-0.23h-0.17l-13.77-13.77h-6.98
					l-9.18,9.18h-5.12C764.08,47.94,763.73,47.62,763.29,47.62 M701.04,2.69c0.06,0.42,0.41,0.75,0.85,0.75
					c0.48,0,0.86-0.39,0.86-0.86c0-0.48-0.39-0.86-0.86-0.86c-0.44,0-0.79,0.33-0.85,0.75h-7.42L691.16,0h-0.33l2.69,2.69H701.04z
					 M753.29,94.27h-5.22c-0.06-0.42-0.41-0.75-0.85-0.75c-0.48,0-0.86,0.39-0.86,0.86c0,0.48,0.39,0.86,0.86,0.86
					c0.44,0,0.79-0.33,0.85-0.75h5.12l2.29,2.3h20.75l8-8c0.34,0.26,0.82,0.24,1.13-0.07c0.34-0.34,0.34-0.88,0-1.22
					c-0.34-0.34-0.88-0.34-1.22,0c-0.31,0.31-0.33,0.79-0.07,1.13l-7.93,7.93h-20.56L753.29,94.27z M776.06,36.66l-4.45,4.45
					c-0.71-0.48-1.67-0.4-2.3,0.22c-0.71,0.71-0.71,1.86,0,2.56c0.71,0.71,1.86,0.71,2.56,0c0.62-0.62,0.7-1.59,0.22-2.3l4.25-4.24
					h22.67l0.36,0.36v-0.97l-0.08-0.08H776.06z M653.12,47.05c0.44,0,0.79-0.33,0.85-0.75h7.42l20.66,20.66h20.75l3.41-3.41
					c0.34,0.26,0.82,0.24,1.13-0.07c0.34-0.34,0.34-0.88,0-1.22c-0.34-0.34-0.88-0.34-1.22,0c-0.31,0.31-0.33,0.79-0.07,1.13
					l-3.34,3.34h-20.56l-20.66-20.66h-7.51c-0.06-0.42-0.41-0.75-0.85-0.75c-0.48,0-0.86,0.39-0.86,0.86
					C652.26,46.66,652.65,47.05,653.12,47.05 M744.21,21.28h27.54l6.89-6.88h18.08l2.66,2.66v-0.97L797,13.71h-18.65l-6.89,6.89
					h-27.54l-32.13,32.13h-14.63h0c-0.16-0.84-0.9-1.47-1.78-1.47c-1,0-1.81,0.81-1.81,1.81c0,1,0.81,1.81,1.81,1.81
					c0.88,0,1.62-0.63,1.78-1.47h0h14.91L744.21,21.28z M788.54,28.69c0.44,0,0.79-0.33,0.85-0.75h9.71l0.27,0.27v-0.32l-0.17-0.17
					h-9.81c-0.06-0.42-0.41-0.75-0.85-0.75c-0.48,0-0.86,0.39-0.86,0.86C787.67,28.3,788.06,28.69,788.54,28.69"/>
			</g>
		</g>
	</g>
</g>
</svg>
