<?xml version="1.0" encoding="utf-8"?>
<!-- Generator: Adobe Illustrator 24.3.0, SVG Export Plug-In . SVG Version: 6.00 Build 0)  -->
<svg version="1.1" id="katman_1" xmlns="http://www.w3.org/2000/svg" xmlns:xlink="http://www.w3.org/1999/xlink" x="0px" y="0px"
	 viewBox="0 0 799.37 155.02" style="enable-background:new 0 0 799.37 155.02;" xml:space="preserve">
<style type="text/css">
	.st0{clip-path:url(#SVGID_2_);}
	.st1{clip-path:url(#SVGID_4_);fill:url(#SVGID_5_);}
	.st2{fill:#FFFFFF;}
	.st3{font-family:'Montserrat-Light';}
	.st4{font-size:48px;}
	.st5{clip-path:url(#SVGID_15_);}
	.st6{clip-path:url(#SVGID_17_);fill:#E7F5FB;}
</style>
<g>
	<defs>
		<rect id="SVGID_1_" x="-21.26" y="-21.26" width="841.89" height="595.28"/>
	</defs>
	<clipPath id="SVGID_2_">
		<use xlink:href="#SVGID_1_"  style="overflow:visible;"/>
	</clipPath>
	<g class="st0">
		<defs>
			<rect id="SVGID_3_" y="0" width="799.37" height="155.3"/>
		</defs>
		<clipPath id="SVGID_4_">
			<use xlink:href="#SVGID_3_"  style="overflow:visible;"/>
		</clipPath>
		
			<linearGradient id="SVGID_5_" gradientUnits="userSpaceOnUse" x1="-21.26" y1="574.0159" x2="-20.26" y2="574.0159" gradientTransform="matrix(799.3701 0 0 -799.3701 16994.6172 458928.8438)">
			<stop  offset="0" style="stop-color:#672783"/>
			<stop  offset="1" style="stop-color:#4CC0DE"/>
		</linearGradient>
		<rect class="st1" width="799.37" height="155.3"/>
	</g>
	<g class="st0">
		<text transform="matrix(1 0 0 1 154.9119 123.0843)" class="st2 st3 st4"> </text>
	</g>
	<g class="st0">
		<defs>
			<rect id="SVGID_6_" x="-21.26" y="-21.26" width="841.89" height="595.28"/>
		</defs>
		<clipPath id="SVGID_7_">
			<use xlink:href="#SVGID_6_"  style="overflow:visible;"/>
		</clipPath>
	</g>
	<g class="st0">
		<defs>
			<rect id="SVGID_8_" x="-21.26" y="-21.26" width="841.89" height="595.28"/>
		</defs>
		<clipPath id="SVGID_9_">
			<use xlink:href="#SVGID_8_"  style="overflow:visible;"/>
		</clipPath>
	</g>
	<g class="st0">
		<defs>
			<rect id="SVGID_10_" x="-21.26" y="-21.26" width="841.89" height="595.28"/>
		</defs>
		<clipPath id="SVGID_11_">
			<use xlink:href="#SVGID_10_"  style="overflow:visible;"/>
		</clipPath>
	</g>
	<g class="st0">
		<defs>
			<rect id="SVGID_12_" x="-21.26" y="-21.26" width="841.89" height="595.28"/>
		</defs>
		<clipPath id="SVGID_13_">
			<use xlink:href="#SVGID_12_"  style="overflow:visible;"/>
		</clipPath>
	</g>
	<g class="st0">
		<defs>
			<rect id="SVGID_14_" x="-21.26" y="-21.26" width="841.89" height="595.28"/>
		</defs>
		<clipPath id="SVGID_15_">
			<use xlink:href="#SVGID_14_"  style="overflow:visible;"/>
		</clipPath>
		<g class="st5">
			<g>
				<defs>
					<rect id="SVGID_16_" x="571.48" y="0" width="227.89" height="155.3"/>
				</defs>
				<clipPath id="SVGID_17_">
					<use xlink:href="#SVGID_16_"  style="overflow:visible;"/>
				</clipPath>
				<path class="st6" d="M797.63,86.6c0.67,0,1.21,0.54,1.21,1.21c0,0.67-0.54,1.21-1.21,1.21s-1.21-0.54-1.21-1.21
					C796.42,87.14,796.96,86.6,797.63,86.6 M797.74,78.77c0,0.31,0.25,0.55,0.55,0.55c0.31,0,0.55-0.25,0.55-0.55
					c0-0.31-0.25-0.55-0.55-0.55C797.99,78.22,797.74,78.47,797.74,78.77 M797.16,82.1c0,0.42,0.34,0.77,0.77,0.77
					c0.43,0,0.77-0.35,0.77-0.77c0-0.06-0.02-0.11-0.03-0.16c0.17,0.26,0.42,0.47,0.7,0.61V79.3c-0.59,0.3-1.01,0.91-1.01,1.62
					c0,0.23,0.05,0.44,0.12,0.64c-0.14-0.14-0.33-0.23-0.55-0.23C797.51,81.33,797.16,81.67,797.16,82.1 M795.63,94.09
					c0,0.64,0.52,1.15,1.15,1.15c0.64,0,1.15-0.52,1.15-1.15c0-0.64-0.52-1.15-1.15-1.15C796.15,92.94,795.63,93.45,795.63,94.09
					 M783.36,118.05c0,0.42,0.34,0.76,0.75,0.76c0.42,0,0.75-0.34,0.75-0.76c0-0.42-0.34-0.75-0.75-0.75
					C783.7,117.3,783.36,117.64,783.36,118.05 M788.92,134.98c0-0.41-0.33-0.74-0.74-0.74c-0.41,0-0.74,0.33-0.74,0.74
					c0,0.41,0.33,0.74,0.74,0.74C788.59,135.72,788.92,135.39,788.92,134.98 M777.17,98.52c0-0.5-0.41-0.91-0.91-0.91
					c-0.5,0-0.91,0.41-0.91,0.91c0,0.5,0.41,0.91,0.91,0.91C776.76,99.43,777.17,99.02,777.17,98.52 M790.64,131.26
					c0-1.05-0.85-1.89-1.89-1.89c-0.54,0-1.02,0.23-1.36,0.59c-0.24-0.13-0.51-0.2-0.79-0.2c-0.95,0-1.71,0.77-1.71,1.71
					c0,0.94,0.77,1.71,1.71,1.71c0.4,0,0.77-0.15,1.06-0.38c0.31,0.22,0.69,0.36,1.1,0.36
					C789.79,133.15,790.64,132.31,790.64,131.26 M789.46,141.86c0-0.38-0.31-0.69-0.69-0.69c-0.39,0-0.7,0.31-0.7,0.69
					c0,0.38,0.31,0.69,0.7,0.69C789.15,142.55,789.46,142.24,789.46,141.86 M791.53,98.45c-0.25,0.26-0.41,0.61-0.41,1
					c0,0.8,0.65,1.45,1.45,1.45c0.2,0,0.4-0.04,0.57-0.12c-0.03,0.06-0.04,0.13-0.04,0.21c0,0.32,0.26,0.59,0.59,0.59
					c0.32,0,0.59-0.26,0.59-0.59c0-0.32-0.26-0.59-0.59-0.59c-0.01,0-0.03,0.01-0.04,0.01c0.03-0.03,0.05-0.06,0.07-0.09
					c0.8-0.18,1.4-0.9,1.4-1.75c0-0.99-0.8-1.8-1.8-1.8C792.37,96.77,791.6,97.51,791.53,98.45 M795.61,154.49
					c0.47,0,0.86-0.38,0.86-0.86c0-0.17-0.06-0.32-0.15-0.45c0.02-0.05,0.04-0.11,0.04-0.17c0-0.32-0.26-0.57-0.57-0.57
					c-0.26,0-0.47,0.18-0.54,0.42c-0.29,0.14-0.49,0.43-0.49,0.77C794.76,154.11,795.14,154.49,795.61,154.49 M798.47,72.5
					c0,0.45,0.37,0.81,0.81,0.81c0.03,0,0.06-0.01,0.09-0.02V71.7c-0.03,0-0.06-0.02-0.09-0.02
					C798.84,71.68,798.47,72.05,798.47,72.5 M799.23,76.61c0.05,0,0.09-0.02,0.14-0.03v-1.64c-0.05-0.01-0.09-0.03-0.14-0.03
					c-0.47,0-0.85,0.38-0.85,0.85C798.38,76.23,798.76,76.61,799.23,76.61 M777.01,91.13c-0.34,0-0.61,0.26-0.64,0.6
					c-0.08-0.02-0.15-0.05-0.23-0.05c-0.55,0-0.99,0.44-0.99,0.99c0,0.55,0.44,0.99,0.99,0.99c0.54,0,0.99-0.44,0.99-0.99
					c0-0.09-0.03-0.16-0.05-0.24c0.33-0.03,0.59-0.3,0.59-0.64C777.66,91.42,777.37,91.13,777.01,91.13 M780.57,130.9
					c0.81,0,1.47-0.66,1.47-1.47s-0.66-1.47-1.47-1.47c-0.81,0-1.47,0.66-1.47,1.47S779.75,130.9,780.57,130.9 M781.1,90.39
					c-0.36,0-0.66,0.3-0.66,0.66c0,0.36,0.3,0.66,0.66,0.66c0.37,0,0.66-0.3,0.66-0.66C781.76,90.69,781.46,90.39,781.1,90.39
					 M777.28,125.26c0.25,0,0.47-0.1,0.65-0.25c0.2,0.77,0.89,1.34,1.72,1.34c0.99,0,1.78-0.8,1.78-1.78c0-0.99-0.8-1.78-1.78-1.78
					c-0.03,0-0.06,0.01-0.09,0.01c0.47-0.33,0.78-0.88,0.78-1.51c0-1.02-0.83-1.85-1.85-1.85c-1.02,0-1.85,0.83-1.85,1.85
					c0,1.02,0.83,1.85,1.85,1.85c0.04,0,0.08-0.01,0.12-0.01c-0.2,0.14-0.37,0.33-0.49,0.54c-0.18-0.27-0.48-0.46-0.84-0.46
					c-0.57,0-1.03,0.46-1.03,1.03C776.26,124.8,776.72,125.26,777.28,125.26 M772.79,114.79c0-0.3-0.25-0.55-0.55-0.55
					c-0.3,0-0.55,0.25-0.55,0.55c0,0.3,0.25,0.55,0.55,0.55C772.54,115.34,772.79,115.09,772.79,114.79 M770.7,126.11
					c0,0.74,0.6,1.35,1.35,1.35s1.35-0.61,1.35-1.35c0-0.74-0.6-1.35-1.35-1.35S770.7,125.37,770.7,126.11 M769.31,103.43
					c-0.21,0-0.42,0.05-0.6,0.13c-0.3-0.49-0.84-0.82-1.46-0.82c-0.96,0-1.73,0.77-1.73,1.73c0,0.95,0.77,1.73,1.73,1.73
					c0.38,0,0.73-0.13,1.02-0.34c0.26,0.28,0.63,0.45,1.04,0.45c0.8,0,1.44-0.64,1.44-1.44
					C770.75,104.08,770.1,103.43,769.31,103.43 M779.1,108.27c0.43,0,0.78-0.35,0.78-0.78c0-0.43-0.35-0.78-0.78-0.78
					c-0.43,0-0.78,0.35-0.78,0.78C778.32,107.92,778.67,108.27,779.1,108.27 M774.34,101.53c0,0.48,0.39,0.86,0.86,0.86
					c0.47,0,0.86-0.38,0.86-0.86c0-0.48-0.39-0.86-0.86-0.86C774.72,100.67,774.34,101.05,774.34,101.53 M774.09,102.62
					c0.12-0.1,0.21-0.25,0.21-0.42c0-0.11-0.04-0.21-0.1-0.3c-0.04-1.05-0.9-1.89-1.97-1.89c-1.09,0-1.97,0.89-1.97,1.97
					c0,1.09,0.88,1.97,1.97,1.97C773.09,103.95,773.82,103.39,774.09,102.62 M781.18,116.7c0.39,0,0.7-0.32,0.7-0.7
					c0-0.39-0.32-0.7-0.7-0.7c-0.39,0-0.7,0.32-0.7,0.7C780.48,116.39,780.79,116.7,781.18,116.7 M777.34,97.28
					c0,1.17,0.94,2.11,2.11,2.11c1.17,0,2.11-0.94,2.11-2.11c0-0.81-0.46-1.5-1.13-1.86c0.04,0.01,0.07,0.02,0.1,0.02
					c0.43,0,0.78-0.35,0.78-0.78s-0.35-0.78-0.78-0.78c-0.43,0-0.78,0.35-0.78,0.78c0,0.25,0.13,0.47,0.32,0.61
					c-0.2-0.06-0.4-0.1-0.62-0.1C778.28,95.17,777.34,96.11,777.34,97.28 M780.3,109.92c-0.28,0-0.51,0.23-0.52,0.51
					c-0.03-0.37-0.33-0.67-0.71-0.67c-0.4,0-0.72,0.32-0.72,0.72c0,0.4,0.32,0.73,0.72,0.73c0.01,0,0.01,0,0.02,0
					c-0.24,0.14-0.42,0.39-0.42,0.69c0,0.45,0.36,0.81,0.81,0.81c0.45,0,0.81-0.36,0.81-0.81c0-0.45-0.36-0.81-0.81-0.81
					c-0.02,0-0.03,0.01-0.05,0.01c0.21-0.12,0.35-0.34,0.36-0.6c0.03,0.26,0.24,0.47,0.52,0.47c0.29,0,0.52-0.24,0.52-0.52
					C780.82,110.16,780.59,109.92,780.3,109.92 M779.41,113.08c-0.76,0-1.38,0.62-1.38,1.38c0,0.76,0.62,1.38,1.38,1.38
					c0.77,0,1.39-0.62,1.39-1.38C780.8,113.7,780.18,113.08,779.41,113.08 M794.29,129.74c0-0.66-0.53-1.19-1.19-1.19
					c-0.65,0-1.19,0.53-1.19,1.19c0,0.3,0.12,0.57,0.31,0.78c-0.42,0.23-0.71,0.66-0.71,1.17c0,0.74,0.6,1.35,1.35,1.35
					s1.35-0.6,1.35-1.35c0-0.39-0.18-0.74-0.45-0.99C794.08,130.49,794.29,130.15,794.29,129.74 M798.64,113.87
					c0,0.61,0.29,1.15,0.73,1.5v-2.99C798.93,112.73,798.64,113.26,798.64,113.87 M799.37,140.75v-2.84
					c-0.54,0.25-0.92,0.79-0.92,1.42S798.83,140.51,799.37,140.75 M793.21,109.67c-0.29,0-0.52,0.23-0.52,0.52
					c0,0.29,0.23,0.52,0.52,0.52c0.29,0,0.52-0.23,0.52-0.52C793.73,109.9,793.5,109.67,793.21,109.67 M798.9,124.57
					c0-0.32-0.26-0.58-0.58-0.58c-0.32,0-0.58,0.26-0.58,0.58c0,0.32,0.26,0.58,0.58,0.58C798.64,125.15,798.9,124.89,798.9,124.57
					 M769.63,86.54c-0.7,0-1.28,0.57-1.28,1.27c0,0.7,0.57,1.28,1.28,1.28c0.7,0,1.28-0.57,1.28-1.28
					C770.9,87.11,770.33,86.54,769.63,86.54 M796.02,126.09c-0.36,0-0.65,0.29-0.65,0.65c0,0.36,0.29,0.65,0.65,0.65
					c0.36,0,0.65-0.29,0.65-0.65C796.67,126.38,796.38,126.09,796.02,126.09 M795.53,115.91c-0.43,0-0.78,0.27-0.92,0.65
					c-0.07-0.02-0.14-0.04-0.21-0.04c-0.41,0-0.74,0.33-0.74,0.74c0,0.41,0.33,0.74,0.74,0.74c0.24,0,0.45-0.12,0.59-0.31
					c0.16,0.11,0.34,0.18,0.54,0.18c0.55,0,0.99-0.44,0.99-0.99C796.52,116.36,796.08,115.91,795.53,115.91 M797.03,134.18
					c0,1.05,0.86,1.91,1.91,1.91c0.02,0,0.04-0.01,0.06-0.01c0.05,0.18,0.19,0.32,0.36,0.38v-4.14c-0.14-0.03-0.28-0.05-0.43-0.05
					C797.89,132.27,797.03,133.13,797.03,134.18 M798.32,143.78c0.41,0,0.77-0.16,1.05-0.41v-2.34c-0.28-0.25-0.65-0.41-1.05-0.41
					c-0.19,0-0.37,0.04-0.53,0.1c-0.17-0.82-0.89-1.43-1.76-1.43c-0.99,0-1.8,0.8-1.8,1.8c0,0.99,0.8,1.8,1.8,1.8
					c0.29,0,0.56-0.08,0.8-0.2C797.03,143.32,797.62,143.78,798.32,143.78 M796.74,105.3c0,0.33,0.27,0.61,0.61,0.61
					c0.17,0,0.32-0.07,0.43-0.18c0.31,0.26,0.71,0.43,1.15,0.43c0.15,0,0.3-0.02,0.44-0.06v-3.5c-0.14-0.04-0.29-0.06-0.44-0.06
					c-1,0-1.81,0.81-1.81,1.81c0,0.13,0.02,0.26,0.04,0.38C796.92,104.81,796.74,105.03,796.74,105.3 M796.09,150.87
					c0,0.31,0.25,0.56,0.56,0.56c0.31,0,0.56-0.25,0.56-0.56c0-0.31-0.25-0.56-0.56-0.56C796.35,150.3,796.09,150.55,796.09,150.87
					 M792.19,116.01c0-0.37-0.3-0.67-0.67-0.67c-0.37,0-0.67,0.3-0.67,0.67c0,0.37,0.3,0.67,0.67,0.67
					C791.89,116.68,792.19,116.38,792.19,116.01 M788.62,123.52c0,0.8,0.65,1.45,1.45,1.45c0.54,0,1.01-0.3,1.26-0.74
					c0.05,0.34,0.32,0.61,0.68,0.61c0.38,0,0.7-0.31,0.7-0.7c0-0.38-0.31-0.7-0.7-0.7c-0.2,0-0.37,0.08-0.5,0.21
					c0-0.02,0-0.03,0.01-0.05c0.24-0.07,0.43-0.29,0.43-0.56c0-0.33-0.27-0.59-0.59-0.59c-0.09,0-0.16,0.02-0.24,0.05
					c-0.26-0.27-0.63-0.44-1.03-0.44C789.27,122.07,788.62,122.72,788.62,123.52 M796.07,118.65c-0.94,0-1.7,0.76-1.7,1.69
					c0,0.94,0.76,1.7,1.7,1.7c0.18,0,0.34-0.03,0.5-0.08c0.05,0.76,0.68,1.36,1.45,1.36c0.6,0,1.11-0.36,1.34-0.88
					c0,0.01,0.01,0.02,0.01,0.03v-1.08c-0.2-0.57-0.71-0.99-1.35-0.99c-0.09,0-0.18,0.01-0.26,0.03c0-0.03,0.01-0.05,0.01-0.08
					C797.76,119.41,797.01,118.65,796.07,118.65 M793.25,136.96c0-0.61-0.5-1.11-1.11-1.11c-0.61,0-1.11,0.5-1.11,1.11
					c0,0.61,0.5,1.11,1.11,1.11C792.76,138.07,793.25,137.58,793.25,136.96 M794.42,112.87c0,0.75,0.61,1.36,1.36,1.36
					c0.75,0,1.36-0.61,1.36-1.36c0-0.75-0.61-1.36-1.36-1.36C795.03,111.51,794.42,112.12,794.42,112.87 M798.89,101.72
					c0.17,0,0.33-0.04,0.48-0.09v-2.6c-0.15-0.06-0.31-0.09-0.48-0.09c-0.77,0-1.39,0.62-1.39,1.39
					C797.5,101.1,798.12,101.72,798.89,101.72 M789.55,102.2c-1,0-1.81,0.81-1.81,1.81c0,0.83,0.57,1.53,1.33,1.74
					c-0.53,0.07-0.95,0.5-0.95,1.05c0,0.38,0.21,0.7,0.5,0.89c0.26,0.49,0.76,0.83,1.35,0.83c0.85,0,1.53-0.68,1.53-1.53
					c0-0.49-0.24-0.93-0.6-1.21c-0.05-0.14-0.14-0.26-0.27-0.34c0.43-0.33,0.71-0.84,0.71-1.43
					C791.36,103.01,790.55,102.2,789.55,102.2 M785.21,101.18c-0.39,0-0.71,0.32-0.71,0.71c0,0.39,0.32,0.7,0.71,0.7
					c0.39,0,0.71-0.31,0.71-0.7C785.92,101.5,785.6,101.18,785.21,101.18 M793.29,17.8c-0.47,0-0.84,0.38-0.84,0.84
					s0.38,0.84,0.84,0.84c0.46,0,0.84-0.38,0.84-0.84S793.75,17.8,793.29,17.8 M783,139.44c0,0.32,0.26,0.59,0.59,0.59
					c0.32,0,0.59-0.26,0.59-0.59c0-0.32-0.26-0.59-0.59-0.59C783.26,138.85,783,139.11,783,139.44 M798.71,95.52
					c-0.65,0-1.18,0.53-1.18,1.18c0,0.65,0.53,1.18,1.18,1.18c0.25,0,0.48-0.09,0.66-0.23v-2.55c-0.09,0.16-0.17,0.33-0.19,0.52
					C799.03,95.55,798.88,95.52,798.71,95.52 M790.07,139.37c0,0.43,0.35,0.78,0.78,0.78c0.43,0,0.78-0.35,0.78-0.78
					c0-0.43-0.35-0.78-0.78-0.78C790.42,138.6,790.07,138.94,790.07,139.37 M799.37,146.75c0,0.03-0.01,0.05-0.01,0.08
					c0,0.02,0.01,0.04,0.01,0.06V146.75z M784.69,153.37c0.6,0,1.09-0.49,1.09-1.1c0-0.61-0.49-1.1-1.09-1.1
					c-0.61,0-1.1,0.49-1.1,1.1C783.59,152.88,784.08,153.37,784.69,153.37 M793.71,140.23c0.61,0,1.11-0.5,1.11-1.11
					c0-0.61-0.5-1.11-1.11-1.11c-0.61,0-1.11,0.5-1.11,1.11C792.6,139.73,793.1,140.23,793.71,140.23 M793.75,145.14
					c0.55,0,1-0.45,1-1c0-0.55-0.45-1-1-1c-0.55,0-1,0.45-1,1C792.75,144.7,793.2,145.14,793.75,145.14 M792.85,142.27
					c0,0.34,0.27,0.61,0.61,0.61c0.34,0,0.61-0.28,0.61-0.61c0-0.34-0.27-0.61-0.61-0.61C793.13,141.65,792.85,141.93,792.85,142.27
					 M788.14,144.75c0.27,0,0.49-0.22,0.49-0.49c0-0.27-0.22-0.49-0.49-0.49c-0.27,0-0.49,0.22-0.49,0.49
					C787.65,144.53,787.87,144.75,788.14,144.75 M760.41,85.83c0-0.42-0.34-0.77-0.76-0.77c-0.42,0-0.77,0.34-0.77,0.77
					s0.34,0.76,0.77,0.76C760.06,86.59,760.41,86.25,760.41,85.83 M757.46,106.82c-0.3,0-0.55,0.25-0.55,0.55
					c0,0.3,0.24,0.55,0.55,0.55c0.3,0,0.55-0.24,0.55-0.55C758.01,107.07,757.76,106.82,757.46,106.82 M759.52,104.61
					c0.84,0,1.51-0.68,1.51-1.51s-0.68-1.51-1.51-1.51c-0.84,0-1.52,0.68-1.52,1.51S758.68,104.61,759.52,104.61 M758.26,68.43
					c-0.79,0-1.43,0.64-1.43,1.43s0.64,1.43,1.43,1.43c0.79,0,1.43-0.64,1.43-1.43S759.05,68.43,758.26,68.43 M758.01,56.59
					c-0.77,0-1.39,0.62-1.39,1.39c0,0.77,0.62,1.39,1.39,1.39c0.77,0,1.39-0.62,1.39-1.39C759.4,57.21,758.78,56.59,758.01,56.59
					 M758.16,113.78c0.56,0,1.04-0.32,1.28-0.79c0.74-0.04,1.33-0.64,1.35-1.38c0.25,0.1,0.52,0.15,0.8,0.15
					c1.23,0,2.22-1,2.22-2.23c0-1.23-0.99-2.22-2.22-2.22c-1.23,0-2.22,1-2.22,2.22c0,0.22,0.04,0.43,0.1,0.62
					c-0.03,0-0.06-0.01-0.09-0.01c-0.03,0-0.07,0.01-0.1,0.01c-0.1-0.09-0.23-0.15-0.37-0.15c-0.31,0-0.56,0.25-0.56,0.56
					c0,0.01,0,0.01,0,0.02c-0.09,0.09-0.16,0.2-0.23,0.32c-0.77,0.02-1.39,0.66-1.39,1.43
					C756.72,113.13,757.37,113.78,758.16,113.78 M756.8,99.15c0,0.62,0.5,1.12,1.12,1.12c0.62,0,1.12-0.5,1.12-1.12
					c0-0.62-0.5-1.12-1.12-1.12C757.3,98.03,756.8,98.53,756.8,99.15 M770.4,41.12c-0.72,0-1.3,0.58-1.3,1.3
					c0,0.72,0.58,1.3,1.3,1.3c0.72,0,1.3-0.58,1.3-1.3C771.7,41.71,771.12,41.12,770.4,41.12 M757.59,126.9
					c0,0.37,0.3,0.66,0.66,0.66c0.37,0,0.66-0.3,0.66-0.66c0-0.37-0.3-0.66-0.66-0.66C757.89,126.24,757.59,126.53,757.59,126.9
					 M768.7,55.04c0,0.29,0.24,0.53,0.53,0.53c0.29,0,0.53-0.24,0.53-0.53s-0.24-0.53-0.53-0.53
					C768.94,54.51,768.7,54.75,768.7,55.04 M762.93,87.48c0,0.32,0.26,0.58,0.59,0.58c0.32,0,0.59-0.26,0.59-0.58
					s-0.26-0.59-0.59-0.59C763.19,86.89,762.93,87.15,762.93,87.48 M772.3,61.02c0.07,0.03,0.14,0.05,0.22,0.05
					c0.3,0,0.54-0.24,0.54-0.53c0-0.3-0.24-0.54-0.54-0.54c-0.02,0-0.03,0.01-0.04,0.01c-0.12-0.78-0.79-1.38-1.61-1.38
					c-0.9,0-1.63,0.73-1.63,1.63c0,0.9,0.73,1.63,1.63,1.63C771.49,61.89,772.03,61.53,772.3,61.02 M770.27,63.2
					c0-0.34-0.28-0.62-0.62-0.62s-0.61,0.28-0.61,0.62s0.27,0.62,0.61,0.62S770.27,63.54,770.27,63.2 M767.24,73.95
					c-1.07,0-1.93,0.87-1.93,1.93c0,0.71,0.39,1.33,0.96,1.66c-0.02,0.07-0.04,0.13-0.04,0.2c0,0.51,0.41,0.92,0.92,0.92
					c0.51,0,0.92-0.41,0.92-0.92c0-0.04-0.02-0.07-0.02-0.11c0.67-0.3,1.13-0.97,1.13-1.76C769.17,74.81,768.3,73.95,767.24,73.95
					 M763.33,73.62c0,0.66,0.53,1.19,1.19,1.19c0.66,0,1.19-0.53,1.19-1.19c0-0.66-0.53-1.19-1.19-1.19
					C763.86,72.43,763.33,72.97,763.33,73.62 M798.46,31.18c0,0.7,0.37,1.29,0.91,1.65V29.5C798.82,29.86,798.46,30.48,798.46,31.18
					 M793.74,44.17c0,1.07,0.87,1.95,1.95,1.95c1.07,0,1.95-0.87,1.95-1.95c0-1.07-0.87-1.95-1.95-1.95
					C794.61,42.22,793.74,43.1,793.74,44.17 M777.02,154.3c0-0.64-0.39-1.18-0.94-1.42c-0.31-0.41-0.79-0.67-1.34-0.67
					c-0.93,0-1.69,0.76-1.69,1.69c0,0.59,0.3,1.1,0.76,1.4h2.82C776.88,155.03,777.02,154.68,777.02,154.3 M769.46,149.8
					c0.7,0,1.28-0.57,1.28-1.28c0-0.71-0.57-1.28-1.28-1.28c-0.71,0-1.28,0.57-1.28,1.28C768.19,149.23,768.76,149.8,769.46,149.8
					 M792.88,31.86c0-0.31-0.25-0.56-0.56-0.56c-0.31,0-0.56,0.25-0.56,0.56c0,0.31,0.25,0.56,0.56,0.56
					C792.62,32.42,792.88,32.17,792.88,31.86 M793.7,35.96c-0.15,0-0.29,0.05-0.42,0.12c0.02-0.11,0.03-0.21,0.03-0.33
					c0-0.87-0.7-1.57-1.57-1.57c-0.87,0-1.57,0.71-1.57,1.57c0,0.2,0.04,0.4,0.11,0.58c-0.6,0.33-1.01,0.96-1.01,1.69
					c0,0.81,0.51,1.51,1.22,1.79c0.05,0.37,0.35,0.66,0.73,0.66c0.39,0,0.7-0.3,0.74-0.68c0.68-0.3,1.16-0.98,1.16-1.77
					c0-0.41-0.13-0.78-0.34-1.09c0.02-0.02,0.05-0.04,0.07-0.06c0.03,0.44,0.39,0.8,0.84,0.8c0.47,0,0.85-0.38,0.85-0.85
					C794.55,36.34,794.17,35.96,793.7,35.96 M764.39,123.57c0-0.81-0.66-1.47-1.47-1.47s-1.47,0.66-1.47,1.47s0.66,1.47,1.47,1.47
					S764.39,124.38,764.39,123.57 M762.43,129.11c0.59,0,1.08-0.48,1.08-1.07c0-0.59-0.48-1.07-1.08-1.07
					c-0.59,0-1.07,0.48-1.07,1.07C761.35,128.63,761.83,129.11,762.43,129.11 M761.53,145.82c0.7,0,1.26-0.57,1.26-1.26
					s-0.57-1.27-1.26-1.27c-0.7,0-1.26,0.57-1.26,1.27S760.84,145.82,761.53,145.82 M763.83,133.25c0-0.61-0.49-1.1-1.1-1.1
					c-0.61,0-1.1,0.49-1.1,1.1s0.49,1.1,1.1,1.1C763.34,134.35,763.83,133.86,763.83,133.25 M768.81,129.22
					c0.37,0,0.68-0.3,0.68-0.68c0-0.37-0.3-0.68-0.68-0.68c-0.37,0-0.68,0.3-0.68,0.68C768.13,128.92,768.43,129.22,768.81,129.22
					 M767.99,123.16c0.29,0,0.53-0.24,0.53-0.53s-0.23-0.53-0.53-0.53c-0.29,0-0.53,0.24-0.53,0.53S767.69,123.16,767.99,123.16
					 M760.41,116.16c0.72,0,1.31-0.58,1.31-1.31c0-0.72-0.58-1.31-1.31-1.31c-0.72,0-1.31,0.58-1.31,1.31
					C759.1,115.57,759.68,116.16,760.41,116.16 M785.39,58.8c-0.27,0-0.49,0.22-0.49,0.49c0,0.27,0.22,0.48,0.49,0.48
					c0.27,0,0.49-0.22,0.49-0.48C785.88,59.02,785.66,58.8,785.39,58.8 M775.43,146.12c0.29,0,0.52-0.23,0.52-0.52
					c0-0.29-0.23-0.52-0.52-0.52c-0.29,0-0.52,0.24-0.52,0.52C774.91,145.89,775.14,146.12,775.43,146.12 M770.18,79.15
					c-0.33,0-0.59,0.26-0.59,0.59c0,0.33,0.26,0.59,0.59,0.59c0.33,0,0.59-0.26,0.59-0.59C770.77,79.41,770.51,79.15,770.18,79.15
					 M777.32,150.21c0.66,0,1.19-0.53,1.19-1.19c0-0.66-0.53-1.19-1.19-1.19c-0.66,0-1.19,0.53-1.19,1.19
					C776.13,149.68,776.66,150.21,777.32,150.21 M776.53,141.21c0.31,0,0.57-0.25,0.57-0.57c0-0.31-0.25-0.57-0.57-0.57
					c-0.32,0-0.57,0.26-0.57,0.57C775.96,140.95,776.22,141.21,776.53,141.21 M798.3,54.96c-0.64,0.22-1.11,0.82-1.11,1.54
					c0,0.9,0.73,1.64,1.64,1.64c0.19,0,0.37-0.04,0.54-0.1v-3.38c-0.12-0.12-0.27-0.2-0.45-0.2
					C798.61,54.46,798.37,54.68,798.3,54.96 M798.89,48.41c0,0.31,0.21,0.56,0.48,0.65v-1.31C799.09,47.85,798.89,48.1,798.89,48.41
					 M795.76,155.16c0-0.39-0.32-0.71-0.71-0.71s-0.71,0.32-0.71,0.71c0,0.05,0.02,0.09,0.03,0.14h1.36
					C795.75,155.25,795.76,155.21,795.76,155.16 M770.82,135.27c0.54,0,0.97-0.44,0.97-0.97c0-0.54-0.44-0.97-0.97-0.97
					s-0.98,0.44-0.98,0.97C769.85,134.84,770.28,135.27,770.82,135.27 M770.2,131.64c0,0.37,0.3,0.67,0.67,0.67
					c0.11,0,0.21-0.03,0.3-0.08c0.14,0.04,0.29,0.06,0.44,0.06c1.04,0,1.88-0.84,1.88-1.88c0-1.03-0.84-1.88-1.88-1.88
					c-1.04,0-1.88,0.84-1.88,1.88C769.74,130.88,769.92,131.3,770.2,131.64C770.2,131.63,770.2,131.64,770.2,131.64 M770.06,115.8
					c0.33,0,0.6-0.27,0.6-0.6s-0.27-0.6-0.6-0.6c-0.33,0-0.6,0.27-0.6,0.6S769.72,115.8,770.06,115.8 M798.44,62.83
					c0.35,0,0.66-0.12,0.93-0.32v-2.68c-0.04,0.02-0.08,0.04-0.12,0.06c-0.24-0.14-0.51-0.23-0.8-0.23c-0.88,0-1.58,0.71-1.58,1.58
					C796.86,62.12,797.57,62.83,798.44,62.83 M772.84,142.86c0.7,0,1.27-0.57,1.27-1.27c0-0.7-0.57-1.27-1.27-1.27
					c-0.7,0-1.27,0.57-1.27,1.27C771.58,142.3,772.14,142.86,772.84,142.86 M775.79,109.85c0-0.14-0.05-0.27-0.13-0.38
					c0.25-0.29,0.4-0.66,0.4-1.08c0-0.93-0.75-1.68-1.68-1.68c-0.38,0-0.72,0.13-1.01,0.34c-0.21-0.1-0.45-0.16-0.7-0.16
					c-0.91,0-1.64,0.73-1.64,1.64c0,0.9,0.73,1.64,1.64,1.64c0.35,0,0.67-0.11,0.94-0.3c0.23,0.12,0.49,0.19,0.77,0.19
					c0.03,0,0.05-0.01,0.07-0.01c0.09,0.27,0.34,0.47,0.64,0.47C775.48,110.54,775.79,110.24,775.79,109.85 M774.76,112.65
					c0-0.27-0.22-0.49-0.49-0.49c-0.27,0-0.49,0.22-0.49,0.49c0,0.27,0.22,0.49,0.49,0.49
					C774.54,113.14,774.76,112.92,774.76,112.65 M777.15,137.26c0.78,0,1.42-0.58,1.53-1.33c0.18-0.06,0.33-0.19,0.42-0.35
					c0.01,0,0.02,0.01,0.04,0.01c0.52,0,0.95-0.43,0.95-0.95c0-0.22-0.09-0.42-0.22-0.58c0.05,0.01,0.09,0.03,0.14,0.03
					c0.22,0,0.41-0.11,0.54-0.27c0.12,0.63,0.64,1.11,1.3,1.11c0.74,0,1.35-0.61,1.35-1.35c0-0.75-0.6-1.35-1.35-1.35
					c-0.56,0-1.04,0.34-1.24,0.82c-0.12-0.21-0.34-0.36-0.59-0.36c-0.38,0-0.7,0.31-0.7,0.7c0,0.14,0.05,0.25,0.11,0.36
					c-0.09-0.03-0.19-0.06-0.29-0.06c-0.43,0-0.77,0.28-0.89,0.67c-0.08,0.02-0.15,0.04-0.21,0.07c-0.25-0.18-0.55-0.28-0.88-0.28
					c-0.86,0-1.55,0.69-1.55,1.55C775.6,136.57,776.29,137.26,777.15,137.26 M778.03,61.78c0,0.76,0.62,1.38,1.38,1.38
					c0.76,0,1.38-0.62,1.38-1.38c0-0.76-0.62-1.38-1.38-1.38C778.65,60.4,778.03,61.02,778.03,61.78 M775.39,68.13
					c0,0.91,0.74,1.65,1.65,1.65s1.65-0.74,1.65-1.65c0-0.91-0.74-1.65-1.65-1.65S775.39,67.22,775.39,68.13 M785.64,17.4
					c0-0.81-0.66-1.47-1.47-1.47c-0.81,0-1.47,0.66-1.47,1.47c0,0.82,0.66,1.47,1.47,1.47C784.98,18.88,785.64,18.22,785.64,17.4
					 M779.6,47c0,1.05,0.85,1.9,1.9,1.9c1.05,0,1.9-0.85,1.9-1.9s-0.85-1.9-1.9-1.9C780.45,45.1,779.6,45.95,779.6,47 M773.05,76.63
					c0,0.86,0.7,1.55,1.55,1.55c0.19,0,0.38-0.04,0.55-0.1c-0.01,0.04-0.03,0.08-0.03,0.12c0,0.51,0.41,0.92,0.92,0.92
					c0.51,0,0.92-0.41,0.92-0.92c0-0.51-0.41-0.92-0.92-0.92c-0.02,0-0.03,0.01-0.04,0.01c0.09-0.2,0.15-0.43,0.15-0.66
					c0-0.86-0.69-1.55-1.55-1.55C773.75,75.07,773.05,75.77,773.05,76.63 M771.65,80.11c-0.73,0.19-1.27,0.84-1.27,1.63
					c0,0.94,0.76,1.7,1.69,1.7c0.57,0,1.08-0.29,1.38-0.72c0,0,0.01,0,0.01,0c1.08,0,1.94-0.87,1.94-1.95
					c0-1.07-0.87-1.94-1.94-1.94C772.63,78.83,771.92,79.36,771.65,80.11 M793.87,51.24c-0.42,0-0.76,0.34-0.76,0.76
					s0.34,0.76,0.76,0.76c0.42,0,0.76-0.34,0.76-0.76S794.29,51.24,793.87,51.24 M786.21,76.7c0,0.35,0.29,0.64,0.64,0.64
					c0.35,0,0.64-0.29,0.64-0.64c0-0.35-0.29-0.64-0.64-0.64C786.49,76.07,786.21,76.35,786.21,76.7 M791.35,67.32
					c0,0.65,0.53,1.18,1.18,1.18c0.65,0,1.18-0.53,1.18-1.18c0-0.65-0.53-1.18-1.18-1.18C791.87,66.14,791.35,66.67,791.35,67.32
					 M795.55,52.27c-0.85,0-1.54,0.69-1.54,1.55c0,0.85,0.69,1.54,1.54,1.54c0.85,0,1.55-0.69,1.55-1.54
					C797.09,52.96,796.4,52.27,795.55,52.27 M768.27,124.16c0,0.36,0.29,0.65,0.65,0.65c0.36,0,0.65-0.29,0.65-0.65
					c0-0.36-0.29-0.65-0.65-0.65C768.57,123.51,768.27,123.8,768.27,124.16 M783.31,67.02c0,0.62,0.5,1.13,1.13,1.13
					c0.62,0,1.13-0.51,1.13-1.13c0-0.62-0.51-1.13-1.13-1.13C783.82,65.89,783.31,66.39,783.31,67.02 M784.32,88.29
					c0,0.29,0.07,0.56,0.18,0.8c-0.19,0.24-0.31,0.55-0.31,0.88c0,0.79,0.64,1.43,1.43,1.43c0.75,0,1.36-0.59,1.42-1.33
					c0.7-0.3,1.18-0.99,1.18-1.79c0-1.08-0.87-1.95-1.95-1.95C785.19,86.35,784.32,87.22,784.32,88.29 M792.96,104.78
					c-0.24,0-0.44,0.2-0.44,0.44c0,0.25,0.2,0.44,0.44,0.44s0.44-0.2,0.44-0.44C793.4,104.98,793.2,104.78,792.96,104.78
					 M734.53,122.96c-0.32,0-0.58,0.26-0.58,0.58c0,0.32,0.26,0.58,0.58,0.58c0.32,0,0.58-0.26,0.58-0.58
					C735.11,123.22,734.85,122.96,734.53,122.96 M735.01,138.25c0-0.61-0.5-1.11-1.11-1.11c-0.61,0-1.11,0.5-1.11,1.11
					c0,0.61,0.5,1.11,1.11,1.11C734.52,139.36,735.01,138.87,735.01,138.25 M733.37,145.12c0.6,0,1.08-0.48,1.08-1.08
					c0-0.6-0.48-1.08-1.08-1.08c-0.6,0-1.08,0.49-1.08,1.08C732.28,144.64,732.77,145.12,733.37,145.12 M738.48,93.38
					c0-1.09-0.88-1.98-1.97-1.98c-1.09,0-1.97,0.89-1.97,1.98s0.88,1.97,1.97,1.97C737.59,95.35,738.48,94.47,738.48,93.38
					 M754.61,53.13c0,0.83,0.62,1.51,1.42,1.62c0.29,0.28,0.69,0.46,1.14,0.46c0.91,0,1.64-0.74,1.64-1.64
					c0-0.84-0.62-1.52-1.43-1.62c-0.29-0.28-0.69-0.45-1.13-0.45C755.35,51.49,754.61,52.23,754.61,53.13 M738.95,18.63
					c0,0.99,0.8,1.78,1.78,1.78c0.98,0,1.78-0.8,1.78-1.78c0-0.98-0.8-1.78-1.78-1.78C739.75,16.84,738.95,17.64,738.95,18.63
					 M757.64,79.56c0-0.37-0.3-0.67-0.67-0.67c-0.3,0-0.54,0.2-0.63,0.47c-0.23-0.14-0.5-0.22-0.79-0.22
					c-0.85,0-1.54,0.69-1.54,1.54c0,0.85,0.69,1.54,1.54,1.54c0.85,0,1.54-0.69,1.54-1.54c0-0.16-0.03-0.31-0.08-0.46
					C757.36,80.19,757.64,79.91,757.64,79.56 M742.42,5.27c0-0.68-0.55-1.23-1.23-1.23c-0.68,0-1.23,0.55-1.23,1.23
					c0,0.68,0.55,1.23,1.23,1.23C741.87,6.5,742.42,5.95,742.42,5.27 M728.58,137.18c0.61,0,1.11-0.5,1.11-1.11
					c0-0.61-0.5-1.11-1.11-1.11c-0.61,0-1.11,0.5-1.11,1.11C727.47,136.68,727.96,137.18,728.58,137.18 M733.44,92.05
					c1.01,0,1.84-0.82,1.84-1.84c0-1.01-0.82-1.83-1.84-1.83c-1.02,0-1.84,0.82-1.84,1.83C731.6,91.23,732.42,92.05,733.44,92.05
					 M730.07,68.93c0,0.4,0.33,0.73,0.73,0.73s0.73-0.33,0.73-0.73c0-0.4-0.33-0.73-0.73-0.73S730.07,68.52,730.07,68.93
					 M729.29,149.1c0.29,0,0.53-0.24,0.53-0.53c0-0.29-0.24-0.53-0.53-0.53c-0.29,0-0.53,0.24-0.53,0.53
					C728.75,148.87,728.99,149.1,729.29,149.1 M730.46,81.07c0.4,0,0.72-0.32,0.72-0.72c0-0.4-0.32-0.72-0.72-0.72
					c-0.4,0-0.72,0.32-0.72,0.72C729.74,80.74,730.06,81.07,730.46,81.07 M731.55,86.92c0.54,0,0.99-0.44,0.99-0.99
					s-0.44-0.99-0.99-0.99c-0.55,0-0.99,0.44-0.99,0.99S731.01,86.92,731.55,86.92 M758,134.01c0-0.29-0.24-0.53-0.53-0.53
					c-0.29,0-0.53,0.24-0.53,0.53c0,0.29,0.24,0.53,0.53,0.53C757.76,134.53,758,134.3,758,134.01 M765.61,135.84
					c-0.63,0-1.14,0.51-1.14,1.14c0,0.63,0.51,1.14,1.14,1.14c0.63,0,1.14-0.51,1.14-1.14
					C766.75,136.35,766.24,135.84,765.61,135.84 M797.88,17.21c0.62,0,1.13-0.5,1.13-1.12c0-0.62-0.5-1.13-1.13-1.13
					c-0.62,0-1.12,0.5-1.12,1.13C796.76,16.7,797.26,17.21,797.88,17.21 M757.8,136.8c0.29,0,0.53-0.24,0.53-0.53
					s-0.24-0.53-0.53-0.53c-0.29,0-0.53,0.24-0.53,0.53S757.51,136.8,757.8,136.8 M767.9,119.71c0-0.81-0.65-1.46-1.46-1.46
					c-0.15,0-0.28,0.03-0.41,0.07c-0.05-0.68-0.6-1.22-1.29-1.22c-0.37,0-0.7,0.15-0.94,0.4c-0.17-0.1-0.35-0.17-0.57-0.17
					c-0.63,0-1.14,0.51-1.14,1.14c0,0.63,0.51,1.14,1.14,1.14c0.24,0,0.46-0.09,0.64-0.22c0.23,0.2,0.53,0.34,0.86,0.34
					c0.09,0,0.17-0.03,0.25-0.05c0,0.01,0,0.03,0,0.04c0,0.81,0.65,1.46,1.46,1.46C767.24,121.17,767.9,120.52,767.9,119.71
					 M732.21,43.34c-0.9,0-1.64,0.73-1.64,1.64c0,0.9,0.73,1.64,1.64,1.64s1.64-0.73,1.64-1.64
					C733.84,44.07,733.11,43.34,732.21,43.34 M759.35,132.44c0-0.65-0.53-1.18-1.18-1.18c-0.65,0-1.18,0.53-1.18,1.18
					c0,0.65,0.53,1.18,1.18,1.18C758.82,133.62,759.35,133.09,759.35,132.44 M794.57,28.6c0,0.29,0.13,0.54,0.33,0.73
					c0.17,0.89,0.95,1.56,1.88,1.56c1.06,0,1.92-0.86,1.92-1.92s-0.86-1.92-1.92-1.92c-0.54,0-1.03,0.23-1.38,0.59
					C794.93,27.71,794.57,28.1,794.57,28.6 M773.94,60.94c0,1.16,0.94,2.09,2.09,2.09c1.16,0,2.09-0.94,2.09-2.09
					c0-1.16-0.94-2.09-2.09-2.09C774.88,58.85,773.94,59.78,773.94,60.94 M777.8,9.88c0-0.31-0.25-0.57-0.57-0.57
					c-0.31,0-0.56,0.25-0.56,0.57c0,0.31,0.25,0.56,0.56,0.56C777.54,10.44,777.8,10.19,777.8,9.88 M775.86,51.01
					c-0.56,0-1.02,0.46-1.02,1.02c0,0.56,0.46,1.02,1.02,1.02c0.56,0,1.02-0.46,1.02-1.02C776.88,51.46,776.42,51.01,775.86,51.01
					 M757.89,4.86c0-0.37-0.29-0.66-0.66-0.66c-0.36,0-0.66,0.3-0.66,0.66c0,0.36,0.3,0.66,0.66,0.66
					C757.59,5.52,757.89,5.23,757.89,4.86 M780.82,8.46c0,1.06,0.86,1.92,1.92,1.92c1.06,0,1.92-0.86,1.92-1.92
					c0-0.56-0.24-1.05-0.62-1.4c0.04,0,0.08,0.02,0.12,0.02c0.68,0,1.23-0.55,1.23-1.23c0-0.68-0.55-1.23-1.23-1.23
					c-0.68,0-1.23,0.55-1.23,1.23c0,0.29,0.11,0.55,0.28,0.76c-0.15-0.04-0.31-0.07-0.47-0.07C781.68,6.54,780.82,7.4,780.82,8.46
					 M778.78,31.35c0,0.42,0.34,0.76,0.76,0.76c0.42,0,0.75-0.33,0.76-0.75c0.14,0.06,0.3,0.1,0.47,0.1c0.64,0,1.16-0.52,1.16-1.16
					c0-0.64-0.52-1.16-1.16-1.16s-1.16,0.52-1.16,1.16c0,0.11,0.03,0.21,0.06,0.32c-0.04-0.01-0.08-0.03-0.13-0.03
					C779.12,30.59,778.78,30.93,778.78,31.35 M740.4,12.03c0,0.28,0.23,0.51,0.51,0.51c0.28,0,0.51-0.23,0.51-0.51
					c0-0.28-0.23-0.51-0.51-0.51C740.63,11.52,740.4,11.75,740.4,12.03 M723.2,95.48c0,0.65,0.53,1.18,1.18,1.18
					s1.18-0.53,1.18-1.18c0-0.65-0.53-1.18-1.18-1.18S723.2,94.83,723.2,95.48 M724.35,115.83c0-0.54-0.44-0.99-0.99-0.99
					c-0.54,0-0.99,0.44-0.99,0.99c0,0.54,0.44,0.99,0.99,0.99C723.91,116.81,724.35,116.37,724.35,115.83 M721.77,134.77
					c-0.37,0-0.66,0.3-0.66,0.66c0,0.36,0.3,0.66,0.66,0.66c0.36,0,0.66-0.3,0.66-0.66C722.43,135.07,722.13,134.77,721.77,134.77
					 M723.01,103c-0.64,0-1.15,0.52-1.15,1.15c0,0.64,0.51,1.15,1.15,1.15c0.64,0,1.15-0.52,1.15-1.15
					C724.16,103.51,723.65,103,723.01,103 M724.64,61.05c0,0.47,0.38,0.84,0.84,0.84c0.46,0,0.84-0.38,0.84-0.84
					c0-0.46-0.38-0.84-0.84-0.84C725.01,60.21,724.64,60.59,724.64,61.05 M726.01,51.92c-0.42,0-0.76,0.34-0.76,0.77
					c0,0.42,0.34,0.76,0.76,0.76c0.42,0,0.77-0.34,0.77-0.76C726.78,52.27,726.44,51.92,726.01,51.92 M723.99,77.56
					c0-0.31-0.25-0.55-0.55-0.55c-0.31,0-0.55,0.25-0.55,0.55s0.25,0.55,0.55,0.55C723.75,78.12,723.99,77.87,723.99,77.56
					 M723.89,121.13c0-0.9-0.73-1.63-1.63-1.63c-0.9,0-1.63,0.73-1.63,1.63c0,0.9,0.73,1.63,1.63,1.63
					C723.16,122.76,723.89,122.03,723.89,121.13 M725.15,152.57c0.61,0,1.1-0.49,1.1-1.1c0-0.61-0.49-1.1-1.1-1.1
					c-0.61,0-1.1,0.49-1.1,1.1C724.06,152.08,724.55,152.57,725.15,152.57 M725.97,103.63c-0.34,0-0.62,0.28-0.62,0.62
					c0,0.35,0.28,0.62,0.62,0.62s0.62-0.28,0.62-0.62C726.6,103.91,726.32,103.63,725.97,103.63 M796.95,0.44
					c0,0.62,0.51,1.13,1.13,1.13s1.13-0.51,1.13-1.13c0-0.16-0.03-0.3-0.09-0.44h-2.09C796.98,0.14,796.95,0.29,796.95,0.44
					 M725.44,140.99c0-0.38-0.31-0.69-0.69-0.69c-0.39,0-0.7,0.31-0.7,0.69c0,0.38,0.31,0.69,0.7,0.69
					C725.13,141.68,725.44,141.37,725.44,140.99 M727.19,125.91c0-0.96-0.78-1.74-1.74-1.74c-0.96,0-1.74,0.78-1.74,1.74
					c0,0.96,0.78,1.74,1.74,1.74C726.41,127.65,727.19,126.87,727.19,125.91 M725.55,97.74c-0.77,0-1.39,0.62-1.39,1.39
					c0,0.14,0.03,0.27,0.06,0.39c-0.09-0.02-0.17-0.05-0.26-0.05c-0.66,0-1.19,0.53-1.19,1.19c0,0.66,0.53,1.19,1.19,1.19
					c0.66,0,1.19-0.53,1.19-1.19c0-0.08-0.03-0.15-0.04-0.22c0.14,0.05,0.29,0.08,0.45,0.08c0.77,0,1.39-0.62,1.39-1.39
					C726.94,98.36,726.31,97.74,725.55,97.74 M722.27,154.8c0.92,0,1.66-0.74,1.66-1.66c0-0.92-0.74-1.66-1.66-1.66
					c-0.92,0-1.66,0.74-1.66,1.66C720.61,154.06,721.35,154.8,722.27,154.8 M731.9,59.65c0,0.63,0.51,1.13,1.13,1.13
					c0.63,0,1.14-0.51,1.14-1.13c0-0.63-0.51-1.14-1.14-1.14C732.41,58.52,731.9,59.02,731.9,59.65 M732.43,75.28
					c0,0.69,0.56,1.25,1.25,1.25c0.69,0,1.25-0.56,1.25-1.25c0-0.69-0.56-1.25-1.25-1.25C732.99,74.04,732.43,74.59,732.43,75.28
					 M734.56,70.83c-0.23,0-0.44,0.05-0.64,0.13c-0.12-0.43-0.49-0.75-0.96-0.75c-0.56,0-1.01,0.45-1.01,1.01c0,0.55,0.45,1,1,1.01
					c-0.01,0.07-0.02,0.15-0.02,0.23c0,0.9,0.73,1.63,1.63,1.63c0.9,0,1.63-0.73,1.63-1.63C736.19,71.56,735.46,70.83,734.56,70.83
					 M737.03,66.12c0.5,0,0.91-0.4,0.91-0.9c0-0.5-0.41-0.91-0.91-0.91c-0.5,0-0.9,0.41-0.9,0.91
					C736.12,65.71,736.53,66.12,737.03,66.12 M734.47,54c0-0.36-0.29-0.65-0.66-0.65s-0.65,0.29-0.65,0.65s0.29,0.65,0.65,0.65
					S734.47,54.36,734.47,54 M723.57,50.2c-0.42,0-0.76,0.34-0.76,0.76s0.34,0.76,0.76,0.76c0.42,0,0.76-0.34,0.76-0.76
					S723.99,50.2,723.57,50.2 M735.04,30.46c-0.31,0-0.56,0.25-0.56,0.56c0,0.31,0.25,0.56,0.56,0.56c0.31,0,0.56-0.25,0.56-0.56
					C735.6,30.71,735.35,30.46,735.04,30.46 M721.24,80.89c0,0.43,0.35,0.77,0.77,0.77c0.43,0,0.77-0.35,0.77-0.77
					c0-0.42-0.34-0.77-0.77-0.77C721.59,80.12,721.24,80.46,721.24,80.89 M722.41,56.76c0,0.33,0.27,0.59,0.59,0.59
					c0.33,0,0.59-0.27,0.59-0.59c0-0.33-0.27-0.59-0.59-0.59C722.68,56.17,722.41,56.43,722.41,56.76 M720.61,111.77
					c0,0.75,0.61,1.36,1.36,1.36c0.75,0,1.36-0.61,1.36-1.36c0-0.75-0.61-1.36-1.36-1.36C721.22,110.41,720.61,111.02,720.61,111.77
					 M732.22,51.68c0,0.78,0.64,1.42,1.42,1.42c0.78,0,1.42-0.64,1.42-1.42c0-0.78-0.63-1.42-1.42-1.42
					C732.86,50.26,732.22,50.9,732.22,51.68 M794.97,93.42c0.64,0,1.16-0.52,1.16-1.16c0-0.64-0.52-1.16-1.16-1.16
					c-0.64,0-1.16,0.52-1.16,1.16C793.81,92.9,794.33,93.42,794.97,93.42 M736.62,68.83c0.28,0,0.52-0.23,0.52-0.52
					c0-0.29-0.23-0.51-0.52-0.51c-0.28,0-0.52,0.23-0.52,0.51C736.1,68.6,736.33,68.83,736.62,68.83 M729.19,38
					c0.28,0.23,0.63,0.38,1.02,0.38c0.88,0,1.6-0.72,1.6-1.6c0-0.26-0.07-0.51-0.18-0.73c0.33-0.29,0.53-0.7,0.53-1.17
					c0-0.87-0.7-1.57-1.57-1.57s-1.57,0.7-1.57,1.57c0,0.25,0.06,0.47,0.16,0.68c-0.1,0.08-0.18,0.17-0.26,0.27
					c-0.35-0.39-0.86-0.65-1.43-0.65c-1.06,0-1.93,0.86-1.93,1.93c0,0.37,0.11,0.71,0.29,1.01c-0.26,0.12-0.43,0.38-0.43,0.68
					c0,0.42,0.34,0.75,0.75,0.75c0.36,0,0.66-0.27,0.72-0.61c0.19,0.06,0.39,0.1,0.59,0.1C728.23,39.03,728.87,38.61,729.19,38
					 M783.88,86.29c0.29,0,0.53-0.24,0.53-0.53c0-0.29-0.24-0.53-0.53-0.53s-0.53,0.24-0.53,0.53
					C783.35,86.05,783.59,86.29,783.88,86.29 M782.81,98.51c-0.3,0-0.55,0.25-0.55,0.55c0,0.3,0.25,0.55,0.55,0.55
					s0.55-0.24,0.55-0.55C783.36,98.76,783.12,98.51,782.81,98.51 M783.57,75.41c-0.81,0-1.46,0.65-1.46,1.46
					c0,0.81,0.66,1.46,1.46,1.46c0.81,0,1.46-0.65,1.46-1.46C785.03,76.06,784.38,75.41,783.57,75.41 M785.34,80.53
					c0-0.69-0.56-1.25-1.24-1.25c-0.69,0-1.25,0.56-1.25,1.25c0,0.69,0.56,1.24,1.25,1.24C784.78,81.78,785.34,81.22,785.34,80.53
					 M791.06,74.24c-1.26,0-2.28,1.02-2.28,2.28s1.02,2.28,2.28,2.28c0.68,0,1.28-0.3,1.69-0.77c-0.01,0.04-0.02,0.08-0.02,0.12
					c0,0.4,0.32,0.72,0.72,0.72c0.4,0,0.72-0.32,0.72-0.72c0-0.4-0.32-0.72-0.72-0.72c-0.14,0-0.25,0.05-0.36,0.11
					c0.16-0.31,0.25-0.65,0.25-1.02C793.35,75.27,792.33,74.24,791.06,74.24 M789.13,72.37c-0.37,0-0.67,0.3-0.67,0.67
					c0,0.37,0.3,0.67,0.67,0.67c0.37,0,0.67-0.3,0.67-0.67C789.8,72.67,789.5,72.37,789.13,72.37 M784.36,95.72
					c0,0.35,0.09,0.68,0.25,0.98c-0.01,0.05-0.03,0.1-0.03,0.15c0,0.33,0.27,0.6,0.6,0.6c0.02,0,0.04-0.01,0.06-0.01
					c0.35,0.26,0.79,0.42,1.27,0.42c0.3,0,0.59-0.07,0.86-0.18c0.03,0.75,0.65,1.36,1.41,1.36c0.19,0,0.37-0.04,0.53-0.11
					c0.07,0.04,0.15,0.08,0.24,0.08c0.25,0,0.45-0.2,0.45-0.45c0-0.06-0.01-0.12-0.03-0.17c0.14-0.22,0.23-0.48,0.23-0.77
					c0-0.78-0.63-1.41-1.41-1.41c-0.07,0-0.13,0.01-0.19,0.02c0.04-0.16,0.07-0.33,0.07-0.51c0-0.42-0.13-0.81-0.34-1.15
					c0.34,0.29,0.77,0.47,1.25,0.47c1.07,0,1.93-0.87,1.93-1.93c0-0.47-0.18-0.9-0.46-1.24c0.14,0.1,0.31,0.18,0.5,0.18
					c0.48,0,0.87-0.39,0.87-0.87s-0.39-0.87-0.87-0.87c-0.48,0-0.87,0.39-0.87,0.87c0,0.18,0.07,0.34,0.17,0.48
					c-0.34-0.3-0.78-0.48-1.27-0.48c-1.07,0-1.93,0.86-1.93,1.93c0,0.37,0.11,0.72,0.29,1.02c-0.38-0.33-0.87-0.55-1.41-0.55
					C785.31,93.58,784.36,94.54,784.36,95.72 M780.8,108.02c0,0.96,0.78,1.74,1.74,1.74c0.96,0,1.74-0.78,1.74-1.74
					c0-0.26-0.06-0.5-0.16-0.72c0.08-0.16,0.14-0.34,0.14-0.53c0-0.66-0.53-1.19-1.19-1.19c-0.52,0-0.95,0.34-1.11,0.81
					C781.29,106.63,780.8,107.27,780.8,108.02 M770.32,92.83c0,0.49,0.23,0.92,0.59,1.2c-0.09-0.06-0.18-0.1-0.3-0.1
					c-0.3,0-0.54,0.24-0.54,0.54c0,0.3,0.24,0.54,0.54,0.54c0.3,0,0.54-0.24,0.54-0.54c0-0.14-0.06-0.27-0.15-0.36
					c0.24,0.16,0.52,0.25,0.83,0.25c0.48,0,0.91-0.23,1.19-0.58c-0.04,0.08-0.08,0.17-0.08,0.26c0,0.24,0.16,0.44,0.38,0.51
					c-0.51,0.28-0.86,0.81-0.86,1.44c0,0.91,0.73,1.64,1.64,1.64c0.91,0,1.64-0.73,1.64-1.64s-0.73-1.64-1.64-1.64
					c-0.07,0-0.13,0.01-0.19,0.02c0.07-0.09,0.12-0.2,0.12-0.32c0-0.3-0.24-0.54-0.54-0.54c-0.14,0-0.27,0.06-0.37,0.15
					c0.15-0.24,0.24-0.51,0.24-0.81c0-0.84-0.68-1.52-1.52-1.52C771,91.31,770.32,91.99,770.32,92.83 M774.69,87.23
					c0,1.05,0.81,1.91,1.84,1.99c-0.04,0.11-0.07,0.23-0.07,0.36c0,0.63,0.51,1.15,1.15,1.15c0.63,0,1.15-0.51,1.15-1.15
					c0-0.43-0.24-0.78-0.59-0.98c0.34-0.36,0.55-0.84,0.55-1.37c0-0.02-0.01-0.03-0.01-0.05c0.29,0.22,0.65,0.36,1.05,0.36
					c0.96,0,1.74-0.78,1.74-1.74c0-0.96-0.78-1.74-1.74-1.74c-0.94,0-1.69,0.74-1.73,1.67c-0.35-0.31-0.81-0.5-1.32-0.5
					C775.59,85.22,774.69,86.12,774.69,87.23 M766.91,90.52c0-0.36-0.29-0.66-0.66-0.66c-0.36,0-0.66,0.29-0.66,0.66
					c0,0.36,0.29,0.66,0.66,0.66C766.61,91.18,766.91,90.89,766.91,90.52 M767.33,101.11c1,0,1.82-0.81,1.82-1.81
					c0-1-0.81-1.81-1.82-1.81c-1,0-1.81,0.81-1.81,1.81C765.51,100.29,766.33,101.11,767.33,101.11 M779.48,73.62
					c0.56,0,1.01-0.45,1.01-1.01c0-0.56-0.45-1.01-1.01-1.01c-0.56,0-1.01,0.45-1.01,1.01C778.47,73.17,778.92,73.62,779.48,73.62
					 M776.22,82.52c0,0.96,0.78,1.74,1.74,1.74s1.74-0.78,1.74-1.74c0,0,0-0.01,0-0.01c0.08-0.15,0.13-0.32,0.13-0.51
					c0-0.63-0.51-1.14-1.14-1.14c-0.05,0-0.09,0.02-0.14,0.03c-0.18-0.07-0.38-0.11-0.59-0.11C777,80.78,776.22,81.56,776.22,82.52
					 M773.14,90.48c0.84,0,1.53-0.68,1.53-1.53c0-0.84-0.68-1.53-1.53-1.53c-0.84,0-1.53,0.68-1.53,1.53
					C771.62,89.79,772.3,90.48,773.14,90.48 M784.78,124.2c0.1,0,0.2,0.01,0.29,0.03c-0.14-0.12-0.26-0.27-0.33-0.44
					c-0.85-0.09-1.51-0.79-1.51-1.66c0-0.64,0.36-1.18,0.88-1.47c-0.12-0.13-0.2-0.3-0.2-0.49c0-0.39,0.31-0.7,0.7-0.7
					c0.25,0,0.46,0.14,0.59,0.34c0,0,0,0,0,0c0-1.13,0.91-2.04,2.04-2.04c1.12,0,2.04,0.91,2.04,2.04c0,1.13-0.91,2.04-2.04,2.04
					c-0.25,0-0.48-0.05-0.7-0.13c0.03,0.13,0.06,0.27,0.06,0.42c0,0.02-0.01,0.04-0.01,0.06c0.37,0.23,0.62,0.61,0.62,1.08
					c0,0.71-0.58,1.29-1.29,1.29c-0.02,0-0.04-0.01-0.05-0.01c0.29,0.21,0.52,0.49,0.65,0.83c0.12,0.16,0.21,0.34,0.27,0.54
					c0-0.52,0.42-0.93,0.94-0.93c0.52,0,0.94,0.42,0.94,0.94c0,0.52-0.42,0.94-0.94,0.94c-0.43,0-0.78-0.3-0.89-0.69
					c0.01,0.06,0.02,0.12,0.02,0.19c0,0.44-0.17,0.84-0.45,1.13c-0.02,0.13-0.04,0.26-0.09,0.37c0.38,0.14,0.65,0.5,0.65,0.93
					c0,0.55-0.45,1.01-1.01,1.01c-0.56,0-1.01-0.45-1.01-1.01c0-0.09,0.03-0.18,0.05-0.26c-0.43-0.07-0.79-0.35-0.94-0.76
					c-0.67-0.28-1.14-0.94-1.14-1.72C782.91,125.03,783.75,124.2,784.78,124.2 M785.22,120.48c0.04,0.01,0.07,0.02,0.1,0.03
					c-0.02-0.05-0.04-0.11-0.05-0.17C785.26,120.38,785.24,120.43,785.22,120.48 M779.72,140.04c0-0.34-0.28-0.62-0.62-0.62
					c-0.34,0-0.62,0.28-0.62,0.62c0,0.34,0.28,0.62,0.62,0.62C779.44,140.65,779.72,140.38,779.72,140.04 M780.26,153.35
					c0.63,0,1.14-0.51,1.14-1.14c0-0.63-0.51-1.14-1.14-1.14c-0.63,0-1.14,0.51-1.14,1.14
					C779.12,152.84,779.63,153.35,780.26,153.35 M783.78,142.81c0-0.79-0.64-1.43-1.43-1.43c-0.79,0-1.43,0.64-1.43,1.43
					c0,0.5,0.26,0.94,0.66,1.2c-0.17,0.16-0.29,0.38-0.29,0.64c0,0.48,0.39,0.87,0.87,0.87c0.48,0,0.87-0.39,0.87-0.87
					c0-0.19-0.07-0.36-0.18-0.5C783.39,143.94,783.78,143.42,783.78,142.81 M785.56,112.48c0,0.36,0.29,0.65,0.65,0.65
					c0.32,0,0.57-0.23,0.63-0.53c0.25,0.67,0.89,1.16,1.64,1.16c0.97,0,1.76-0.79,1.76-1.76c0-0.97-0.79-1.76-1.76-1.76
					c-0.97,0-1.75,0.79-1.75,1.76c0,0.04,0.01,0.07,0.01,0.11c-0.12-0.17-0.31-0.29-0.53-0.29
					C785.85,111.83,785.56,112.12,785.56,112.48 M792.32,94.27c0,0.57,0.46,1.03,1.03,1.03c0.57,0,1.03-0.46,1.03-1.03
					s-0.46-1.03-1.03-1.03C792.78,93.24,792.32,93.7,792.32,94.27 M794.82,150.38c0.87,0,1.58-0.7,1.58-1.57s-0.71-1.58-1.58-1.58
					c-0.55,0-1.04,0.29-1.32,0.72c0-0.03,0.02-0.05,0.02-0.08c0-0.41-0.29-0.75-0.67-0.85c0.25-0.3,0.41-0.68,0.41-1.1
					c0-0.94-0.76-1.7-1.7-1.7c-0.94,0-1.7,0.76-1.7,1.7c0,0.94,0.76,1.7,1.7,1.7c0.08,0,0.15-0.01,0.23-0.02
					c-0.03,0.09-0.05,0.17-0.05,0.27c0,0.49,0.4,0.89,0.89,0.89c0.27,0,0.5-0.12,0.66-0.31c-0.03,0.11-0.04,0.23-0.04,0.35
					C793.24,149.67,793.95,150.38,794.82,150.38 M792.68,149.92c-0.41,0-0.75,0.34-0.75,0.74c0,0.41,0.33,0.75,0.75,0.75
					c0.41,0,0.74-0.33,0.74-0.75C793.42,150.26,793.09,149.92,792.68,149.92 M785.98,149.24c0,0.32,0.26,0.59,0.59,0.59
					c0.32,0,0.59-0.26,0.59-0.59c0-0.33-0.26-0.59-0.59-0.59C786.24,148.66,785.98,148.92,785.98,149.24 M791.91,152.15
					c-0.84,0-1.51,0.68-1.51,1.51s0.68,1.51,1.51,1.51c0.83,0,1.51-0.68,1.51-1.51S792.74,152.15,791.91,152.15 M795.65,57.84
					c0-0.33-0.27-0.59-0.59-0.59c-0.33,0-0.59,0.27-0.59,0.59c0,0.33,0.27,0.59,0.59,0.59C795.39,58.44,795.65,58.17,795.65,57.84
					 M788.74,81.93c0.16,0,0.32,0.03,0.47,0.08c0-0.04-0.01-0.07-0.01-0.11c0-0.71,0.5-1.31,1.17-1.46
					c0.21-0.16,0.44-0.29,0.69-0.38c-0.01-0.06-0.04-0.12-0.04-0.18c0-0.7,0.57-1.26,1.26-1.26c0.7,0,1.26,0.57,1.26,1.26
					c0,0.1-0.02,0.2-0.05,0.29c0.13-0.62,0.68-1.08,1.33-1.08c0.76,0,1.37,0.61,1.37,1.37c0,0.75-0.61,1.36-1.37,1.36
					c-0.31,0-0.59-0.11-0.82-0.28c0.07,0.23,0.12,0.46,0.12,0.71c0,1.29-1.04,2.33-2.33,2.33c-0.66,0-1.26-0.28-1.68-0.72
					c-0.2,0.57-0.74,0.99-1.38,0.99c-0.81,0-1.47-0.66-1.47-1.47C787.27,82.59,787.93,81.93,788.74,81.93 M793.34,80.53
					c0.05,0.04,0.1,0.08,0.14,0.13c-0.01-0.06-0.02-0.12-0.02-0.19c0-0.09,0.01-0.17,0.03-0.25
					C793.45,80.33,793.4,80.43,793.34,80.53 M788.66,139.56c0-0.88-0.71-1.59-1.59-1.59c-0.88,0-1.59,0.71-1.59,1.59
					c0,0.37,0.13,0.7,0.34,0.97c-0.17,0.18-0.28,0.42-0.28,0.68c0,0.55,0.44,0.99,0.99,0.99c0.55,0,0.99-0.44,0.99-0.99
					c0-0.05-0.02-0.09-0.03-0.13C788.16,140.89,788.66,140.29,788.66,139.56 M764.91,89.4c0-0.62-0.51-1.13-1.13-1.13
					c-0.62,0-1.13,0.51-1.13,1.13c0,0.62,0.51,1.13,1.13,1.13C764.41,90.53,764.91,90.02,764.91,89.4 M749.99,72.73
					c-0.69,0-1.25,0.56-1.25,1.25c0,0.69,0.56,1.25,1.25,1.25c0.69,0,1.25-0.56,1.25-1.25C751.24,73.28,750.68,72.73,749.99,72.73
					 M748.28,56.06c0-1.04-0.84-1.87-1.87-1.87c-1.04,0-1.87,0.84-1.87,1.87c0,1.03,0.84,1.88,1.87,1.88
					C747.44,57.94,748.28,57.1,748.28,56.06 M745.48,73.58c0,0.56,0.45,1.01,1.01,1.01s1.01-0.45,1.01-1.01
					c0-0.56-0.45-1.01-1.01-1.01S745.48,73.02,745.48,73.58 M746.65,79.64c0.74,0,1.34-0.6,1.34-1.34c0-0.74-0.6-1.34-1.34-1.34
					c-0.74,0-1.34,0.6-1.34,1.34C745.31,79.04,745.91,79.64,746.65,79.64 M756.57,65.87c0-0.46-0.37-0.83-0.83-0.83
					c-0.46,0-0.83,0.37-0.83,0.83c0,0.46,0.37,0.83,0.83,0.83C756.2,66.7,756.57,66.33,756.57,65.87 M752.38,80.56
					c0.66,0,1.18-0.53,1.18-1.19c0-0.32-0.13-0.61-0.34-0.82c-0.12-0.4-0.47-0.69-0.91-0.69c-0.53,0-0.95,0.42-0.96,0.94
					c-0.1,0.17-0.17,0.36-0.17,0.57C751.19,80.03,751.72,80.56,752.38,80.56 M766.7,107.57c0-0.37-0.3-0.68-0.68-0.68
					c-0.37,0-0.68,0.31-0.68,0.68c0,0.38,0.3,0.68,0.68,0.68C766.4,108.25,766.7,107.94,766.7,107.57 M750.52,125.3
					c0,0.81,0.66,1.47,1.47,1.47s1.47-0.66,1.47-1.47c0-0.81-0.66-1.47-1.47-1.47S750.52,124.49,750.52,125.3 M753.64,141.28
					c0,0.34,0.28,0.62,0.62,0.62c0.34,0,0.62-0.28,0.62-0.62c0-0.34-0.28-0.62-0.62-0.62C753.91,140.66,753.64,140.94,753.64,141.28
					 M752.65,113.84c0.42,0,0.76-0.34,0.76-0.76c0-0.42-0.34-0.76-0.76-0.76c-0.42,0-0.76,0.34-0.76,0.76
					C751.89,113.5,752.23,113.84,752.65,113.84 M752.49,87.78c-0.26,0-0.51,0.07-0.73,0.17c-0.16-0.69-0.78-1.2-1.52-1.2
					c-0.39,0-0.75,0.15-1.03,0.39c0.02-0.1,0.03-0.21,0.03-0.32c0-0.16-0.03-0.32-0.07-0.47c0.89-0.09,1.58-0.83,1.58-1.74
					c0-0.97-0.78-1.75-1.75-1.75s-1.75,0.78-1.75,1.75c0,0.11,0.01,0.22,0.03,0.32c-1.01,0.04-1.82,0.86-1.82,1.88
					c0,1.04,0.85,1.89,1.89,1.89c0.52,0,0.99-0.21,1.33-0.55c-0.01,0.05-0.02,0.1-0.02,0.15c0,0.87,0.7,1.57,1.57,1.57
					c0.21,0,0.42-0.04,0.6-0.12c0.15,0.78,0.83,1.37,1.64,1.37c0.93,0,1.68-0.75,1.68-1.67C754.17,88.53,753.42,87.78,752.49,87.78
					 M761.19,73.5c0,0.33,0.27,0.61,0.6,0.61c0.34,0,0.6-0.27,0.6-0.61c0-0.33-0.27-0.6-0.6-0.6
					C761.46,72.89,761.19,73.16,761.19,73.5 M746.85,104.6c-0.12,0.21-0.19,0.45-0.19,0.7c0,0.79,0.64,1.43,1.43,1.43
					c0.44,0,0.83-0.21,1.1-0.52c0.46-0.27,0.77-0.77,0.77-1.34c0-0.86-0.7-1.56-1.56-1.56C747.61,103.3,746.98,103.86,746.85,104.6
					 M751.29,97.69c0,0.25,0.2,0.46,0.46,0.46c0.25,0,0.46-0.2,0.46-0.46c0-0.25-0.2-0.46-0.46-0.46
					C751.49,97.23,751.29,97.44,751.29,97.69 M766.28,115.37c0,0.35,0.28,0.63,0.63,0.63c0.35,0,0.63-0.28,0.63-0.63
					c0-0.35-0.28-0.63-0.63-0.63C766.56,114.74,766.28,115.02,766.28,115.37 M769.22,111.41c0-0.83-0.67-1.5-1.5-1.5
					c-0.83,0-1.5,0.67-1.5,1.5c0,0.83,0.67,1.5,1.5,1.5C768.54,112.91,769.22,112.24,769.22,111.41 M754.08,110.69
					c-0.4,0-0.73,0.33-0.73,0.73c0,0.4,0.33,0.73,0.73,0.73c0.4,0,0.73-0.33,0.73-0.73C754.81,111.02,754.48,110.69,754.08,110.69
					 M762.53,105.48c-0.35,0-0.63,0.28-0.63,0.63c0,0.35,0.28,0.63,0.63,0.63c0.35,0,0.63-0.28,0.63-0.63
					C763.16,105.76,762.87,105.48,762.53,105.48 M774.57,147.29c0-0.64-0.52-1.16-1.16-1.16c-0.64,0-1.16,0.52-1.16,1.16
					c0,0.45,0.26,0.83,0.64,1.02c-0.01,0-0.02-0.01-0.03-0.01c-0.34,0-0.62,0.28-0.62,0.62c0,0.34,0.28,0.62,0.62,0.62
					s0.62-0.28,0.62-0.62c0-0.22-0.13-0.41-0.31-0.52c0.08,0.02,0.15,0.05,0.24,0.05C774.05,148.45,774.57,147.94,774.57,147.29
					 M762.69,42.62c0-0.26-0.21-0.46-0.46-0.46c-0.26,0-0.46,0.21-0.46,0.46c0,0.26,0.21,0.46,0.46,0.46
					C762.49,43.08,762.69,42.87,762.69,42.62 M761.89,113.18c0,1.04,0.84,1.88,1.88,1.88c1.04,0,1.88-0.84,1.88-1.88
					c0-1.04-0.84-1.88-1.88-1.88C762.73,111.3,761.89,112.14,761.89,113.18 M759.86,79.77c-0.12-0.03-0.25-0.05-0.38-0.05
					c-0.11,0-0.21,0.01-0.32,0.03c-0.11-0.06-0.23-0.11-0.36-0.11c-0.4,0-0.73,0.33-0.73,0.73c0,0.07,0.02,0.14,0.04,0.21
					c-0.1,0.2-0.16,0.42-0.16,0.66c0,0.84,0.68,1.53,1.53,1.53s1.53-0.68,1.53-1.53c0-0.26-0.07-0.5-0.18-0.71
					c0.12,0.03,0.25,0.05,0.38,0.05c0.84,0,1.53-0.68,1.53-1.53c0-0.64-0.39-1.18-0.94-1.41c0.11,0.05,0.24,0.07,0.37,0.07
					c0.53,0,0.96-0.43,0.96-0.96c0-0.19-0.07-0.36-0.17-0.51c0.22-0.23,0.36-0.53,0.36-0.88c0-0.7-0.56-1.26-1.26-1.26
					c-0.7,0-1.26,0.57-1.26,1.26c0,0.4,0.2,0.75,0.5,0.98c-0.06,0.12-0.1,0.26-0.1,0.41c0,0.4,0.24,0.74,0.59,0.89
					c-0.18-0.07-0.37-0.11-0.58-0.11c-0.85,0-1.53,0.68-1.53,1.53C759.68,79.32,759.75,79.56,759.86,79.77 M789.48,55.54
					c0.07,0.03,0.15,0.05,0.23,0.05c0.38,0,0.69-0.31,0.69-0.69c0-0.38-0.31-0.69-0.69-0.69c-0.18,0-0.33,0.07-0.45,0.18
					c-0.27,0.06-0.48,0.29-0.48,0.58c0,0.33,0.27,0.6,0.6,0.6C789.42,55.56,789.45,55.55,789.48,55.54 M760.6,70.99
					c-0.34,0-0.62,0.28-0.62,0.62c0,0.34,0.28,0.62,0.62,0.62c0.34,0,0.61-0.28,0.61-0.62C761.22,71.27,760.94,70.99,760.6,70.99
					 M764.04,69.51c0,1.12,0.91,2.03,2.03,2.03c1.12,0,2.03-0.91,2.03-2.03c0-1.12-0.91-2.03-2.03-2.03
					C764.95,67.48,764.04,68.39,764.04,69.51 M786.41,64.52c0,0.85,0.69,1.54,1.54,1.54c0.28,0,0.54-0.08,0.77-0.21
					c0.15,0.11,0.33,0.19,0.51,0.23c0.15,0.57,0.64,0.99,1.24,0.99c0.72,0,1.31-0.59,1.31-1.31c0-0.56-0.36-1.03-0.86-1.22
					c-0.08-0.7-0.67-1.25-1.39-1.25c-0.19,0-0.36,0.04-0.53,0.1c-0.28-0.26-0.65-0.43-1.06-0.43
					C787.1,62.98,786.41,63.67,786.41,64.52 M766.79,60.41c0-0.55-0.44-0.99-0.99-0.99s-0.99,0.44-0.99,0.99
					c0,0.55,0.44,0.99,0.99,0.99S766.79,60.95,766.79,60.41 M650.63,74.98c0-0.86-0.69-1.55-1.55-1.55c-0.86,0-1.55,0.7-1.55,1.55
					c0,0.86,0.7,1.55,1.55,1.55C649.94,76.53,650.63,75.84,650.63,74.98 M668.55,133.15c0.04,0,0.07-0.01,0.11-0.02
					c0.08,0.46,0.46,0.82,0.94,0.82c0.54,0,0.97-0.44,0.97-0.97c0-0.54-0.44-0.98-0.97-0.98c-0.25,0-0.48,0.1-0.65,0.26
					c-0.1-0.11-0.24-0.19-0.4-0.19c-0.3,0-0.54,0.24-0.54,0.54C668.01,132.91,668.25,133.15,668.55,133.15 M670.04,88.94
					c-0.36,0-0.66,0.29-0.66,0.66s0.3,0.66,0.66,0.66c0.36,0,0.66-0.29,0.66-0.66S670.4,88.94,670.04,88.94 M645.7,106.9
					c0,0.9,0.73,1.64,1.64,1.64c0.91,0,1.64-0.74,1.64-1.64c0-0.91-0.74-1.64-1.64-1.64C646.44,105.26,645.7,106,645.7,106.9
					 M641.34,79.07c0,1.07,0.87,1.94,1.94,1.94c1.08,0,1.94-0.87,1.94-1.94c0-1.07-0.87-1.94-1.94-1.94
					C642.21,77.12,641.34,77.99,641.34,79.07 M644.68,26.24c0-0.37-0.3-0.66-0.66-0.66c-0.37,0-0.66,0.3-0.66,0.66
					c0,0.36,0.3,0.66,0.66,0.66C644.38,26.9,644.68,26.6,644.68,26.24 M643.11,41.06c0,0.26,0.21,0.46,0.46,0.46
					c0.26,0,0.46-0.21,0.46-0.46c0-0.26-0.21-0.46-0.46-0.46C643.32,40.6,643.11,40.81,643.11,41.06 M665.17,128.41
					c0-0.42-0.34-0.76-0.76-0.76c-0.42,0-0.76,0.34-0.76,0.76c0,0.42,0.34,0.76,0.76,0.76
					C664.83,129.17,665.17,128.83,665.17,128.41 M668.6,93.98c0.43,0,0.78-0.35,0.78-0.78c0-0.43-0.35-0.78-0.78-0.78
					c-0.43,0-0.78,0.35-0.78,0.78C667.82,93.63,668.17,93.98,668.6,93.98 M665.3,82.55c-0.96,0-1.74,0.78-1.74,1.74
					c0,0.96,0.78,1.74,1.74,1.74c0.96,0,1.74-0.78,1.74-1.74C667.05,83.33,666.27,82.55,665.3,82.55 M661.63,124.69
					c0,0.74,0.6,1.35,1.35,1.35c0.75,0,1.35-0.61,1.35-1.35c0-0.75-0.6-1.35-1.35-1.35C662.23,123.34,661.63,123.94,661.63,124.69
					 M642.62,143.43c0,0.43,0.35,0.79,0.79,0.79s0.79-0.35,0.79-0.79c0-0.44-0.35-0.79-0.79-0.79S642.62,142.99,642.62,143.43
					 M669.3,71.16c0-0.56-0.45-1.01-1.01-1.01c-0.56,0-1.01,0.45-1.01,1.01c0,0.56,0.45,1.01,1.01,1.01
					C668.85,72.17,669.3,71.71,669.3,71.16 M667.6,95.79c0-1.17-0.94-2.11-2.11-2.11c-1.16,0-2.11,0.94-2.11,2.11
					c0,1.17,0.95,2.11,2.11,2.11C666.65,97.9,667.6,96.95,667.6,95.79 M618.49,125.08c0,0.37,0.3,0.66,0.66,0.66
					c0.37,0,0.66-0.3,0.66-0.66s-0.3-0.66-0.66-0.66C618.78,124.41,618.49,124.71,618.49,125.08 M625.63,102.6
					c0-0.95-0.77-1.73-1.73-1.73c-0.96,0-1.73,0.77-1.73,1.73s0.77,1.73,1.73,1.73C624.86,104.32,625.63,103.55,625.63,102.6
					 M629.68,130.74c0-0.65-0.53-1.18-1.18-1.18s-1.18,0.53-1.18,1.18c0,0.65,0.53,1.18,1.18,1.18S629.68,131.39,629.68,130.74
					 M639.41,87.22c0,0.84,0.68,1.53,1.53,1.53c0.84,0,1.53-0.68,1.53-1.53c0-0.84-0.68-1.53-1.53-1.53
					C640.1,85.69,639.41,86.37,639.41,87.22 M620.8,111.29c0-1.04-0.84-1.88-1.88-1.88c-1.04,0-1.88,0.84-1.88,1.88
					c0,1.04,0.84,1.88,1.88,1.88C619.96,113.17,620.8,112.33,620.8,111.29 M622.43,116.64c0,0.63,0.51,1.14,1.14,1.14
					c0.63,0,1.14-0.51,1.14-1.14c0-0.63-0.51-1.14-1.14-1.14C622.95,115.49,622.43,116.01,622.43,116.64 M630.46,77.91
					c0,0.33,0.27,0.59,0.59,0.59c0.32,0,0.59-0.26,0.59-0.59c0-0.33-0.26-0.59-0.59-0.59C630.73,77.33,630.46,77.59,630.46,77.91
					 M629.16,132.85c0.29,0,0.53-0.24,0.53-0.53c0-0.29-0.24-0.53-0.53-0.53c-0.29,0-0.53,0.24-0.53,0.53
					C628.63,132.62,628.87,132.85,629.16,132.85 M632.4,113.62c0,0.35,0.28,0.63,0.63,0.63c0.35,0,0.63-0.28,0.63-0.63
					c0-0.35-0.28-0.63-0.63-0.63C632.68,112.99,632.4,113.27,632.4,113.62 M643,153.66c0.8,0,1.44-0.65,1.44-1.45
					c0-0.8-0.65-1.44-1.44-1.44c-0.8,0-1.44,0.65-1.44,1.44C641.55,153.01,642.2,153.66,643,153.66 M641.31,102.24
					c1.09,0,1.97-0.88,1.97-1.97c0-1.09-0.88-1.97-1.97-1.97c-1.09,0-1.97,0.88-1.97,1.97
					C639.34,101.35,640.22,102.24,641.31,102.24 M645.54,147.25c0-0.42-0.34-0.76-0.76-0.76c-0.42,0-0.76,0.34-0.76,0.76
					c0,0.42,0.34,0.76,0.76,0.76C645.21,148.01,645.54,147.67,645.54,147.25 M792.87,4.69c-0.36,0-0.66,0.3-0.66,0.66
					c0,0.37,0.3,0.66,0.66,0.66c0.37,0,0.66-0.29,0.66-0.66C793.53,4.99,793.23,4.69,792.87,4.69 M633.77,126.37
					c0,0.59,0.48,1.08,1.07,1.08c0.59,0,1.08-0.48,1.08-1.08c0-0.59-0.48-1.07-1.08-1.07C634.25,125.29,633.77,125.78,633.77,126.37
					 M661.75,94.15c-0.28,0-0.51,0.23-0.51,0.51c0,0.28,0.23,0.51,0.51,0.51c0.28,0,0.51-0.23,0.51-0.51
					C662.26,94.38,662.04,94.15,661.75,94.15 M714.63,122.47c0-0.8-0.65-1.45-1.45-1.45c-0.8,0-1.45,0.65-1.45,1.45
					c0,0.8,0.65,1.45,1.45,1.45C713.98,123.92,714.63,123.27,714.63,122.47 M711.72,144.58c0.48,0,0.87-0.39,0.87-0.87
					c0-0.48-0.39-0.87-0.87-0.87c-0.48,0-0.87,0.39-0.87,0.87C710.85,144.19,711.24,144.58,711.72,144.58 M710.3,143.28
					c0.79,0,1.43-0.64,1.43-1.43c0-0.79-0.64-1.43-1.43-1.43c-0.79,0-1.43,0.64-1.43,1.43C708.87,142.65,709.51,143.28,710.3,143.28
					 M711.91,71.55c0,0.33,0.27,0.59,0.59,0.59c0.33,0,0.59-0.27,0.59-0.59c0-0.33-0.27-0.59-0.59-0.59
					C712.17,70.95,711.91,71.22,711.91,71.55 M709.36,138.46c0,0.32,0.26,0.59,0.59,0.59c0.32,0,0.59-0.26,0.59-0.59
					c0-0.32-0.26-0.59-0.59-0.59C709.63,137.88,709.36,138.14,709.36,138.46 M712.92,85.01c-1.09,0-1.97,0.88-1.97,1.97
					c0,1.09,0.88,1.97,1.97,1.97s1.97-0.88,1.97-1.97C714.89,85.9,714.01,85.01,712.92,85.01 M711.96,68.44
					c-0.28,0-0.5,0.22-0.5,0.5c0,0.28,0.23,0.5,0.5,0.5c0.28,0,0.5-0.22,0.5-0.5C712.46,68.67,712.24,68.44,711.96,68.44
					 M709.3,53.87c0,0.33,0.27,0.6,0.6,0.6c0.33,0,0.6-0.27,0.6-0.6c0-0.33-0.27-0.6-0.6-0.6C709.57,53.27,709.3,53.54,709.3,53.87
					 M710.03,28.21c-0.64,0-1.16,0.52-1.16,1.16c0,0.64,0.52,1.16,1.16,1.16s1.16-0.52,1.16-1.16
					C711.19,28.73,710.67,28.21,710.03,28.21 M710.25,132.16c0.94,0,1.71-0.76,1.71-1.71s-0.77-1.71-1.71-1.71
					c-0.95,0-1.71,0.76-1.71,1.71S709.3,132.16,710.25,132.16 M710.68,104.08c0,0.25,0.2,0.44,0.45,0.44c0.24,0,0.44-0.2,0.44-0.44
					c0-0.24-0.2-0.44-0.44-0.44C710.88,103.64,710.68,103.84,710.68,104.08 M714.62,44.91c0-0.39-0.32-0.71-0.71-0.71
					c-0.39,0-0.71,0.32-0.71,0.71c0,0.39,0.32,0.71,0.71,0.71C714.31,45.62,714.62,45.3,714.62,44.91 M708.47,93.1
					c0,0.57,0.46,1.03,1.03,1.03c0.57,0,1.03-0.46,1.03-1.03c0-0.57-0.46-1.03-1.03-1.03C708.93,92.07,708.47,92.53,708.47,93.1
					 M666.97,36.34c0-0.78-0.63-1.41-1.41-1.41s-1.41,0.63-1.41,1.41c0,0.78,0.63,1.41,1.41,1.41S666.97,37.12,666.97,36.34
					 M708.65,125.81c0.52,0,0.94-0.42,0.94-0.94c0-0.52-0.42-0.94-0.94-0.94c-0.52,0-0.94,0.42-0.94,0.94
					C707.71,125.39,708.13,125.81,708.65,125.81 M661.14,80.97c0-0.96-0.78-1.74-1.74-1.74s-1.74,0.78-1.74,1.74
					c0,0.96,0.78,1.74,1.74,1.74S661.14,81.93,661.14,80.97 M714.32,40.68c-0.32,0-0.58,0.26-0.58,0.58c0,0.32,0.26,0.58,0.58,0.58
					c0.32,0,0.58-0.26,0.58-0.58C714.9,40.94,714.64,40.68,714.32,40.68 M657.55,89.15c0.63,0,1.15-0.51,1.15-1.15
					s-0.51-1.14-1.15-1.14s-1.15,0.51-1.15,1.14S656.92,89.15,657.55,89.15 M658.33,136.72c0.63,0,1.14-0.51,1.14-1.14
					c0-0.63-0.51-1.14-1.14-1.14c-0.63,0-1.14,0.51-1.14,1.14C657.19,136.21,657.7,136.72,658.33,136.72 M662.74,59.48
					c0,1.16,0.94,2.09,2.09,2.09s2.09-0.94,2.09-2.09c0-1.16-0.94-2.09-2.09-2.09S662.74,58.33,662.74,59.48 M662.3,151.36
					c0.99,0,1.8-0.8,1.8-1.8c0-0.99-0.8-1.8-1.8-1.8c-0.99,0-1.8,0.81-1.8,1.8C660.5,150.55,661.3,151.36,662.3,151.36
					 M657.82,63.58c0-0.57-0.46-1.04-1.04-1.04c-0.57,0-1.04,0.46-1.04,1.04c0,0.57,0.47,1.04,1.04,1.04
					C657.36,64.62,657.82,64.15,657.82,63.58 M653.93,58.97c0-0.3-0.24-0.54-0.54-0.54s-0.54,0.24-0.54,0.54
					c0,0.3,0.24,0.53,0.54,0.53S653.93,59.27,653.93,58.97 M653.64,96.93c0,0.5,0.41,0.91,0.91,0.91c0.5,0,0.91-0.41,0.91-0.91
					c0-0.5-0.41-0.91-0.91-0.91C654.04,96.02,653.64,96.43,653.64,96.93 M656.21,90.19c0-0.36-0.29-0.65-0.65-0.65
					c-0.36,0-0.65,0.29-0.65,0.65c0,0.36,0.29,0.65,0.65,0.65C655.92,90.84,656.21,90.55,656.21,90.19 M654.24,83.61
					c-1.11,0-2.01,0.9-2.01,2.01c0,1.11,0.9,2.01,2.01,2.01s2.01-0.9,2.01-2.01C656.26,84.51,655.36,83.61,654.24,83.61
					 M653.7,77.51c0.51,0,0.92-0.41,0.92-0.92c0-0.51-0.41-0.92-0.92-0.92c-0.51,0-0.92,0.41-0.92,0.92
					C652.78,77.1,653.19,77.51,653.7,77.51 M651.51,91.04c0,0.55,0.44,0.99,0.99,0.99c0.54,0,0.99-0.44,0.99-0.99
					c0-0.55-0.44-0.99-0.99-0.99C651.95,90.06,651.51,90.5,651.51,91.04 M711.58,114.92c0,0.37,0.3,0.67,0.67,0.67
					s0.67-0.3,0.67-0.67c0-0.37-0.3-0.67-0.67-0.67S711.58,114.55,711.58,114.92 M700.06,154.66c-0.48,0-0.91,0.26-1.15,0.64h2.29
					C700.97,154.92,700.55,154.66,700.06,154.66 M755.99,154.9c-0.48,0-0.93,0.15-1.31,0.4h2.62
					C756.92,155.05,756.47,154.9,755.99,154.9 M607.15,104.07c0-0.35-0.28-0.63-0.63-0.63c-0.35,0-0.63,0.28-0.63,0.63
					c0,0.35,0.28,0.63,0.63,0.63C606.87,104.7,607.15,104.41,607.15,104.07 M606.28,109.72c1.23,0,2.22-1,2.22-2.23
					c0-1.23-0.99-2.22-2.22-2.22c-1.23,0-2.22,1-2.22,2.22C604.05,108.72,605.05,109.72,606.28,109.72 M603.19,88.42
					c0.62,0,1.13-0.51,1.13-1.13c0-0.62-0.51-1.13-1.13-1.13c-0.62,0-1.13,0.51-1.13,1.13C602.06,87.92,602.56,88.42,603.19,88.42
					 M592.38,139.43c0.39,0,0.71-0.32,0.71-0.71c0-0.39-0.32-0.71-0.71-0.71c-0.39,0-0.71,0.32-0.71,0.71
					C591.67,139.11,591.99,139.43,592.38,139.43 M583.32,78.81c0.4,0,0.73-0.33,0.73-0.73s-0.33-0.73-0.73-0.73
					c-0.4,0-0.73,0.33-0.73,0.73S582.92,78.81,583.32,78.81 M602.04,85.95c0.32,0,0.59-0.26,0.59-0.58c0-0.32-0.26-0.59-0.59-0.59
					c-0.32,0-0.58,0.26-0.58,0.59C601.45,85.69,601.71,85.95,602.04,85.95 M592.81,100.9c0-0.84-0.68-1.51-1.51-1.51
					c-0.84,0-1.52,0.68-1.52,1.51c0,0.84,0.68,1.51,1.52,1.51C592.13,102.41,592.81,101.73,592.81,100.9 M584.32,143.17
					c0.6,0,1.08-0.48,1.08-1.08c0-0.6-0.49-1.09-1.08-1.09c-0.6,0-1.08,0.49-1.08,1.09C583.23,142.68,583.72,143.17,584.32,143.17
					 M601.73,73.26c0-0.7-0.56-1.26-1.26-1.26c-0.7,0-1.26,0.57-1.26,1.26c0,0.7,0.56,1.26,1.26,1.26
					C601.16,74.52,601.73,73.95,601.73,73.26 M600.22,71.39c0,0.33,0.27,0.6,0.6,0.6c0.34,0,0.6-0.27,0.6-0.6
					c0-0.33-0.27-0.61-0.6-0.61C600.49,70.78,600.22,71.05,600.22,71.39 M619.36,73.97c0,1.07,0.86,1.93,1.93,1.93
					c1.07,0,1.93-0.86,1.93-1.93c0-1.07-0.87-1.93-1.93-1.93C620.23,72.04,619.36,72.9,619.36,73.97 M622.19,37.9
					c0-0.3-0.24-0.54-0.53-0.54c-0.3,0-0.54,0.24-0.54,0.54c0,0.29,0.24,0.53,0.54,0.53C621.95,38.44,622.19,38.2,622.19,37.9
					 M602.92,45.47c0-0.76-0.62-1.39-1.39-1.39c-0.77,0-1.39,0.62-1.39,1.39c0,0.77,0.62,1.39,1.39,1.39
					C602.3,46.86,602.92,46.24,602.92,45.47 M598.44,109.48c0,0.79,0.64,1.42,1.42,1.42s1.42-0.64,1.42-1.42
					c0-0.79-0.64-1.42-1.42-1.42S598.44,108.69,598.44,109.48 M586.04,83.54c0-0.42-0.34-0.77-0.76-0.77
					c-0.42,0-0.77,0.34-0.77,0.77s0.34,0.76,0.77,0.76C585.7,84.31,586.04,83.97,586.04,83.54 M622.72,97.37
					c0-1-0.81-1.82-1.82-1.82c-1,0-1.81,0.81-1.81,1.82c0,1,0.81,1.81,1.81,1.81C621.9,99.19,622.72,98.38,622.72,97.37
					 M577.42,109.12c0,0.4,0.33,0.73,0.73,0.73c0.4,0,0.73-0.33,0.73-0.73c0-0.4-0.33-0.73-0.73-0.73
					C577.74,108.39,577.42,108.72,577.42,109.12 M572.22,127.42c-0.4,0-0.73,0.33-0.73,0.73c0,0.4,0.33,0.73,0.73,0.73
					c0.4,0,0.73-0.33,0.73-0.73C572.95,127.75,572.62,127.42,572.22,127.42 M637.89,91.05c0-0.84-0.68-1.52-1.52-1.52
					c-0.84,0-1.52,0.68-1.52,1.52c0,0.84,0.68,1.52,1.52,1.52C637.21,92.57,637.89,91.89,637.89,91.05 M741.86,108.89
					c0.44,0,0.8-0.36,0.8-0.8c0-0.44-0.36-0.8-0.8-0.8c-0.44,0-0.8,0.36-0.8,0.8C741.06,108.53,741.42,108.89,741.86,108.89
					 M744.54,26.82c-0.55,0-0.99,0.44-0.99,0.99c0,0.54,0.44,0.99,0.99,0.99c0.55,0,0.99-0.44,0.99-0.99
					C745.53,27.26,745.09,26.82,744.54,26.82 M740.8,104.96c0.73,0,1.33-0.59,1.33-1.33c0-0.73-0.59-1.32-1.33-1.32
					c-0.73,0-1.33,0.59-1.33,1.32C739.48,104.37,740.07,104.96,740.8,104.96 M738.08,24.96c0,0.52,0.42,0.95,0.94,0.95
					s0.94-0.42,0.94-0.95c0-0.52-0.42-0.94-0.94-0.94S738.08,24.44,738.08,24.96 M749.41,90.94c-0.41,0-0.74,0.33-0.74,0.74
					c0,0.41,0.33,0.74,0.74,0.74c0.41,0,0.74-0.33,0.74-0.74C750.15,91.27,749.82,90.94,749.41,90.94 M744.14,118.35
					c0-0.51-0.41-0.92-0.92-0.92c-0.51,0-0.92,0.41-0.92,0.92c0,0.51,0.41,0.92,0.92,0.92
					C743.73,119.27,744.14,118.86,744.14,118.35 M742.38,116.42c0,0.36,0.29,0.66,0.66,0.66c0.36,0,0.65-0.29,0.65-0.66
					c0-0.36-0.29-0.66-0.65-0.66C742.67,115.76,742.38,116.06,742.38,116.42 M742.17,111.47c-0.07,0.11-0.12,0.23-0.12,0.37
					c0,0.39,0.31,0.7,0.7,0.7c0.39,0,0.7-0.31,0.7-0.7c0-0.24-0.13-0.44-0.31-0.57c0.34-0.23,0.57-0.6,0.57-1.04
					c0-0.71-0.58-1.29-1.29-1.29c-0.71,0-1.29,0.58-1.29,1.29C741.13,110.86,741.58,111.35,742.17,111.47 M741.33,130.38
					c0,0.4,0.33,0.73,0.73,0.73c0.4,0,0.73-0.33,0.73-0.73c0-0.4-0.33-0.73-0.73-0.73C741.66,129.65,741.33,129.98,741.33,130.38
					 M739.23,48.04c0.39,0,0.7-0.31,0.7-0.7s-0.31-0.7-0.7-0.7c-0.38,0-0.7,0.31-0.7,0.7S738.85,48.04,739.23,48.04 M739.79,61.5
					c0.34,0,0.61-0.27,0.61-0.61s-0.27-0.61-0.61-0.61c-0.34,0-0.61,0.27-0.61,0.61S739.46,61.5,739.79,61.5 M743.26,123.51
					c0-0.55-0.44-0.99-0.99-0.99c-0.55,0-0.99,0.44-0.99,0.99c0,0.55,0.44,0.99,0.99,0.99C742.81,124.5,743.26,124.06,743.26,123.51
					 M737.38,113.2c-0.66,0-1.2,0.54-1.2,1.2s0.54,1.2,1.2,1.2s1.2-0.54,1.2-1.2S738.05,113.2,737.38,113.2 M739.44,54.46
					c0.29,0,0.53-0.24,0.53-0.53c0-0.29-0.24-0.53-0.53-0.53c-0.29,0-0.53,0.24-0.53,0.53C738.91,54.22,739.15,54.46,739.44,54.46
					 M740.65,83.77c0.68,0,1.23-0.55,1.23-1.23c0-0.68-0.55-1.23-1.23-1.23c-0.68,0-1.23,0.55-1.23,1.23
					C739.41,83.22,739.97,83.77,740.65,83.77 M745.49,98.54c0.46,0,0.83-0.37,0.83-0.83c0-0.1-0.02-0.19-0.06-0.28
					c0.29-0.17,0.49-0.47,0.49-0.83c0-0.54-0.44-0.98-0.98-0.98c-0.54,0-0.98,0.44-0.98,0.98c0,0.18,0.06,0.34,0.15,0.49
					c-0.17,0.15-0.29,0.37-0.29,0.62C744.67,98.17,745.04,98.54,745.49,98.54 M747.21,115.1c0-0.67-0.54-1.21-1.21-1.21
					c-0.67,0-1.22,0.54-1.22,1.21c0,0.67,0.54,1.22,1.22,1.22C746.66,116.32,747.21,115.77,747.21,115.1 M743.5,129.84
					c-0.35,0-0.64,0.29-0.64,0.64s0.29,0.64,0.64,0.64c0.35,0,0.64-0.29,0.64-0.64S743.85,129.84,743.5,129.84 M745.22,68.43
					c0-0.45-0.36-0.81-0.81-0.81c-0.45,0-0.81,0.36-0.81,0.81c0,0.45,0.36,0.81,0.81,0.81C744.86,69.24,745.22,68.88,745.22,68.43
					 M748.57,155.04c0.09,0,0.17-0.01,0.26-0.03c0.13,0.12,0.3,0.2,0.49,0.2c0.39,0,0.71-0.32,0.71-0.71c0-0.14-0.05-0.26-0.12-0.37
					c0.07-0.17,0.11-0.35,0.11-0.54c0-0.38-0.15-0.72-0.39-0.98c0.05-0.08,0.08-0.17,0.08-0.27c0-0.31-0.26-0.57-0.57-0.57
					c-0.25,0-0.45,0.16-0.53,0.38c-0.01,0-0.02,0-0.03,0c-0.8,0-1.44,0.65-1.44,1.44S747.77,155.04,748.57,155.04 M744.67,134.27
					c0,0.24,0.2,0.44,0.44,0.44c0.24,0,0.44-0.2,0.44-0.44s-0.2-0.44-0.44-0.44C744.87,133.82,744.67,134.02,744.67,134.27
					 M738.48,148c0.49,0,0.89-0.4,0.89-0.89c0-0.49-0.4-0.89-0.89-0.89c-0.49,0-0.89,0.4-0.89,0.89
					C737.59,147.6,737.99,148,738.48,148 M742.35,140.26c0-0.99-0.81-1.8-1.8-1.8c-0.99,0-1.8,0.8-1.8,1.8c0,0.99,0.8,1.8,1.8,1.8
					C741.55,142.05,742.35,141.25,742.35,140.26 M736.63,129.78c0.32,0,0.58-0.26,0.58-0.58s-0.26-0.59-0.58-0.59
					c-0.32,0-0.59,0.26-0.59,0.59S736.31,129.78,736.63,129.78 M738.78,121.11c0-0.55-0.45-1-1-1c-0.55,0-1,0.45-1,1
					c0,0.55,0.45,1,1,1C738.33,122.11,738.78,121.66,738.78,121.11 M741.74,154.47c0.84,0,1.51-0.68,1.51-1.51s-0.68-1.51-1.51-1.51
					c-0.83,0-1.51,0.68-1.51,1.51S740.9,154.47,741.74,154.47 M744.01,133.27c0-1.06-0.86-1.91-1.91-1.91s-1.91,0.86-1.91,1.91
					c0,1.05,0.86,1.91,1.91,1.91S744.01,134.32,744.01,133.27 M740.88,150.69c0.41,0,0.74-0.33,0.74-0.75
					c0-0.41-0.33-0.74-0.74-0.74c-0.41,0-0.75,0.34-0.75,0.74C740.14,150.35,740.47,150.69,740.88,150.69 M742.08,99.15
					c-0.91,0-1.64,0.74-1.64,1.64c0,0.91,0.74,1.64,1.64,1.64c0.91,0,1.64-0.74,1.64-1.64C743.72,99.88,742.99,99.15,742.08,99.15
					 M772.98,67.62c0.15-0.25,0.25-0.54,0.25-0.86c0-0.92-0.74-1.66-1.66-1.66c-0.92,0-1.66,0.74-1.66,1.66
					c0,0.92,0.74,1.66,1.66,1.66c0.54,0,1.02-0.26,1.32-0.67c-0.07,0.11-0.12,0.23-0.12,0.37c0,0.39,0.32,0.71,0.71,0.71
					c0.4,0,0.72-0.32,0.72-0.71c0-0.4-0.32-0.72-0.72-0.72C773.28,67.41,773.11,67.49,772.98,67.62 M774.71,66.16
					c0.57,0,1.04-0.46,1.04-1.04s-0.46-1.04-1.04-1.04c-0.57,0-1.04,0.46-1.04,1.04S774.14,66.16,774.71,66.16 M771.4,16.08
					c-1.02,0-1.85,0.83-1.85,1.85c0,1.02,0.83,1.85,1.85,1.85c1.02,0,1.85-0.83,1.85-1.85C773.25,16.91,772.42,16.08,771.4,16.08
					 M778.59,27.66c-0.28,0-0.51,0.23-0.51,0.51c0,0.28,0.23,0.51,0.51,0.51c0.28,0,0.51-0.23,0.51-0.51
					C779.1,27.89,778.87,27.66,778.59,27.66 M762.42,21.93c-0.85,0-1.54,0.69-1.54,1.54c0,0.85,0.69,1.54,1.54,1.54
					c0.85,0,1.54-0.69,1.54-1.54C763.96,22.62,763.27,21.93,762.42,21.93 M763.93,53.52c0,0.79,0.64,1.43,1.43,1.43
					c0.79,0,1.43-0.64,1.43-1.43c0-0.79-0.64-1.43-1.43-1.43C764.57,52.09,763.93,52.72,763.93,53.52 M767.17,36.26
					c-0.78,0-1.41,0.63-1.41,1.41c0,0.78,0.63,1.41,1.41,1.41c0.39,0,0.74-0.16,0.99-0.41c0.12,1.05,1,1.86,2.08,1.86
					c1.16,0,2.1-0.94,2.1-2.1c0-1.16-0.94-2.1-2.1-2.1c-0.72,0-1.36,0.36-1.74,0.92C768.32,36.68,767.79,36.26,767.17,36.26
					 M746,46.1c-0.72,0-1.31,0.59-1.31,1.31s0.59,1.31,1.31,1.31c0.72,0,1.31-0.59,1.31-1.31S746.72,46.1,746,46.1 M791.54,23.1
					c0.25,0,0.45-0.2,0.45-0.45c0-0.25-0.2-0.45-0.45-0.45c-0.25,0-0.45,0.2-0.45,0.45C791.09,22.9,791.29,23.1,791.54,23.1
					 M790.12,14.72c-1.14,0-2.05,0.92-2.05,2.06c0,0.55,0.22,1.05,0.57,1.42c-0.25,0.31-0.41,0.7-0.41,1.13
					c0,0.99,0.8,1.78,1.78,1.78s1.78-0.8,1.78-1.78c0-0.37-0.12-0.72-0.31-1.01c0.43-0.38,0.7-0.92,0.7-1.53
					C792.18,15.64,791.26,14.72,790.12,14.72 M790.86,25.73c0,0.52,0.42,0.94,0.94,0.94c0.52,0,0.94-0.42,0.94-0.94
					s-0.42-0.94-0.94-0.94C791.29,24.78,790.86,25.21,790.86,25.73 M787.24,41.67c-0.32,0-0.58,0.26-0.58,0.58
					c0,0.32,0.26,0.58,0.58,0.58c0.32,0,0.58-0.26,0.58-0.58C787.82,41.93,787.56,41.67,787.24,41.67 M786.5,45.68
					c-1.03,0-1.86,0.83-1.86,1.86c0,1.03,0.83,1.86,1.86,1.86c1.03,0,1.86-0.83,1.86-1.86C788.36,46.51,787.52,45.68,786.5,45.68
					 M787.18,12.15c-0.12,0-0.22,0.05-0.31,0.11c-0.24-0.57-0.8-0.96-1.46-0.96c-0.88,0-1.59,0.71-1.59,1.59
					c0,0.88,0.71,1.59,1.59,1.59c0.8,0,1.45-0.59,1.57-1.35c0.06,0.03,0.13,0.04,0.2,0.04c0.28,0,0.51-0.23,0.51-0.51
					C787.69,12.38,787.46,12.15,787.18,12.15 M768.76,21.85c0,0.95,0.76,1.71,1.71,1.71c0.94,0,1.71-0.76,1.71-1.71
					c0-0.94-0.76-1.71-1.71-1.71C769.52,20.14,768.76,20.91,768.76,21.85 M748.54,61.92c-0.75,0-1.35,0.61-1.35,1.35
					s0.6,1.35,1.35,1.35c0.28,0,0.52-0.1,0.73-0.25c-0.13,0.2-0.23,0.42-0.23,0.68c0,0.68,0.55,1.23,1.23,1.23s1.23-0.55,1.23-1.23
					c0-0.15-0.04-0.3-0.09-0.43c0.39-0.17,0.66-0.56,0.66-1.01c0-0.61-0.5-1.11-1.11-1.11c-0.61,0-1.11,0.5-1.11,1.11
					c0,0.1,0.03,0.19,0.06,0.28c-0.11,0.03-0.2,0.08-0.29,0.14c0.15-0.22,0.26-0.47,0.26-0.76
					C749.89,62.53,749.28,61.92,748.54,61.92 M759.58,45.77c0,0.66,0.53,1.19,1.18,1.19c0.66,0,1.19-0.53,1.19-1.19
					c0-0.65-0.53-1.19-1.19-1.19C760.11,44.58,759.58,45.11,759.58,45.77 M750.41,47.44c0,0.77,0.62,1.39,1.39,1.39
					c0.77,0,1.39-0.62,1.39-1.39c0-0.76-0.62-1.39-1.39-1.39C751.03,46.06,750.41,46.68,750.41,47.44 M745.33,52.34
					c0,0.96,0.78,1.74,1.74,1.74c0.96,0,1.74-0.78,1.74-1.74c0-0.96-0.78-1.74-1.74-1.74C746.11,50.61,745.33,51.38,745.33,52.34
					 M748.55,40.5c-0.29,0-0.53,0.24-0.53,0.53c0,0.29,0.24,0.53,0.53,0.53c0.29,0,0.53-0.24,0.53-0.53
					C749.08,40.74,748.84,40.5,748.55,40.5 M752.78,27c-0.37,0-0.66,0.3-0.66,0.66c0,0.36,0.3,0.66,0.66,0.66
					c0.37,0,0.66-0.3,0.66-0.66C753.44,27.3,753.15,27,752.78,27 M750.77,33.51c-0.61,0-1.11,0.5-1.11,1.11
					c0,0.61,0.49,1.11,1.11,1.11c0.61,0,1.11-0.49,1.11-1.11C751.88,34.01,751.38,33.51,750.77,33.51 M755.54,61.41
					c0.56,0,1.02-0.46,1.02-1.02c0-0.56-0.46-1.02-1.02-1.02c-0.56,0-1.02,0.46-1.02,1.02C754.52,60.95,754.98,61.41,755.54,61.41
					 M754.12,68.67c0,0.34,0.27,0.61,0.61,0.61s0.61-0.27,0.61-0.61c0-0.33-0.27-0.61-0.61-0.61S754.12,68.34,754.12,68.67
					 M759.76,29.17c-0.53,0-0.96,0.43-0.96,0.96c0,0.53,0.43,0.96,0.96,0.96s0.96-0.43,0.96-0.96
					C760.71,29.59,760.29,29.17,759.76,29.17 M752.76,57.69c-0.7,0-1.27,0.57-1.27,1.27s0.57,1.27,1.27,1.27
					c0.7,0,1.27-0.57,1.27-1.27S753.46,57.69,752.76,57.69 M753.17,39.09c-0.29,0-0.53,0.24-0.53,0.53s0.24,0.54,0.53,0.54
					s0.53-0.24,0.53-0.54S753.47,39.09,753.17,39.09 M753.32,71.02c0,0.47,0.38,0.85,0.85,0.85c0.47,0,0.84-0.38,0.84-0.85
					c0-0.47-0.38-0.85-0.84-0.85C753.7,70.18,753.32,70.56,753.32,71.02 M691.83,92.44c0.55,0,0.99-0.44,0.99-0.99
					s-0.44-0.99-0.99-0.99s-0.99,0.44-0.99,0.99S691.29,92.44,691.83,92.44 M696.07,118.99c0-0.39-0.31-0.7-0.7-0.7
					c-0.39,0-0.7,0.32-0.7,0.7c0,0.39,0.31,0.7,0.7,0.7C695.76,119.69,696.07,119.38,696.07,118.99 M694.97,81.93
					c0.34,0,0.61-0.27,0.61-0.61c0-0.34-0.27-0.61-0.61-0.61c-0.34,0-0.61,0.27-0.61,0.61C694.36,81.66,694.64,81.93,694.97,81.93
					 M694.67,43.96c-1.05,0-1.9,0.85-1.9,1.9s0.85,1.9,1.9,1.9s1.9-0.85,1.9-1.9S695.72,43.96,694.67,43.96 M697.46,97.16
					c0.66,0,1.2-0.54,1.2-1.2c0-0.66-0.54-1.2-1.2-1.2c-0.66,0-1.2,0.54-1.2,1.2C696.26,96.62,696.8,97.16,697.46,97.16
					 M702.49,90.64c0.22,0,0.41-0.13,0.51-0.32c0.13,0.31,0.44,0.53,0.8,0.53c0.48,0,0.87-0.39,0.87-0.87
					c0-0.48-0.39-0.87-0.87-0.87c-0.4,0-0.73,0.28-0.82,0.65c-0.1-0.17-0.28-0.28-0.48-0.28c-0.32,0-0.58,0.26-0.58,0.58
					C701.92,90.39,702.17,90.64,702.49,90.64 M698.95,102.82c0,0.92,0.7,1.68,1.59,1.79c-0.43,0.14-0.74,0.54-0.74,1.01
					c0,0.6,0.48,1.08,1.08,1.08s1.08-0.48,1.08-1.08c0-0.51-0.36-0.91-0.83-1.03c0.82-0.17,1.43-0.9,1.43-1.77
					c0-1-0.81-1.81-1.81-1.81C699.76,101.02,698.95,101.82,698.95,102.82 M695.15,132.27c0-0.38-0.31-0.7-0.7-0.7
					c-0.39,0-0.7,0.31-0.7,0.7c0,0.39,0.31,0.7,0.7,0.7C694.84,132.97,695.15,132.66,695.15,132.27 M713.36,109.07
					c0,0.29,0.23,0.52,0.52,0.52s0.52-0.23,0.52-0.52s-0.23-0.52-0.52-0.52S713.36,108.78,713.36,109.07 M687.15,100.59
					c0-0.39-0.32-0.71-0.71-0.71c-0.39,0-0.71,0.32-0.71,0.71s0.32,0.7,0.71,0.7C686.84,101.29,687.15,100.98,687.15,100.59
					 M685.26,148.7c0.71,0,1.28-0.57,1.28-1.28c0-0.71-0.57-1.28-1.28-1.28c-0.71,0-1.28,0.57-1.28,1.28
					C683.98,148.12,684.55,148.7,685.26,148.7 M751.82,103.32c0.93,0,1.69-0.76,1.69-1.69c0-0.94-0.76-1.69-1.69-1.69
					c-0.94,0-1.7,0.76-1.7,1.69C750.13,102.57,750.88,103.32,751.82,103.32 M687.96,84.3c0,0.39,0.32,0.71,0.71,0.71
					c0.4,0,0.72-0.32,0.72-0.71c0-0.39-0.32-0.71-0.72-0.71C688.28,83.58,687.96,83.9,687.96,84.3 M701.34,112.6
					c0.97,0,1.76-0.79,1.76-1.76c0-0.97-0.79-1.76-1.76-1.76c-0.97,0-1.75,0.79-1.75,1.76C699.58,111.82,700.37,112.6,701.34,112.6
					 M691.59,75.44c0-0.35-0.29-0.64-0.64-0.64c-0.35,0-0.64,0.29-0.64,0.64c0,0.35,0.28,0.64,0.64,0.64
					C691.31,76.08,691.59,75.79,691.59,75.44 M693.39,147.41c0.64,0,1.16-0.52,1.16-1.16c0-0.64-0.52-1.16-1.16-1.16
					c-0.64,0-1.16,0.52-1.16,1.16C692.23,146.89,692.75,147.41,693.39,147.41 M707.25,127.74c0-0.56-0.45-1-1.01-1
					c-0.56,0-1.01,0.45-1.01,1s0.45,1.01,1.01,1.01C706.79,128.75,707.25,128.3,707.25,127.74 M704.68,154.67
					c0.93,0,1.69-0.76,1.69-1.69c0-0.93-0.76-1.69-1.69-1.69c-0.93,0-1.69,0.76-1.69,1.69
					C702.99,153.91,703.74,154.67,704.68,154.67 M702.68,120.71c1.12,0,2.04-0.91,2.04-2.04s-0.91-2.04-2.04-2.04
					c-1.13,0-2.04,0.91-2.04,2.04S701.56,120.71,702.68,120.71 M709.68,98.29c0-0.8-0.65-1.44-1.45-1.44c-0.8,0-1.45,0.65-1.45,1.44
					c0,0.8,0.65,1.45,1.45,1.45C709.03,99.73,709.68,99.08,709.68,98.29 M698.97,97.8c0.25,0,0.45-0.2,0.45-0.45
					c0-0.25-0.2-0.45-0.45-0.45c-0.25,0-0.45,0.2-0.45,0.45C698.52,97.6,698.72,97.8,698.97,97.8 M712.96,92.81
					c-0.89,0-1.61,0.72-1.61,1.61c0,0.89,0.72,1.61,1.61,1.61c0.89,0,1.61-0.72,1.61-1.61C714.57,93.53,713.85,92.81,712.96,92.81
					 M700.69,126.82c0.4,0,0.77-0.13,1.07-0.34c0.1,0.57,0.58,1.01,1.18,1.01c0.68,0,1.23-0.55,1.23-1.23
					c0-0.68-0.55-1.23-1.23-1.23c-0.14,0-0.28,0.04-0.4,0.08c0.01-0.05,0.02-0.11,0.02-0.16c0-1.03-0.84-1.87-1.87-1.87
					c-1.03,0-1.86,0.84-1.86,1.87C698.83,125.98,699.66,126.82,700.69,126.82 M705.67,74.62c0.31,0,0.57-0.25,0.57-0.57
					c0-0.31-0.25-0.57-0.57-0.57s-0.57,0.25-0.57,0.57C705.11,74.36,705.36,74.62,705.67,74.62 M703.19,135.06
					c0,0.65,0.53,1.17,1.17,1.17c0.65,0,1.17-0.52,1.17-1.17c0-0.65-0.53-1.17-1.17-1.17C703.71,133.88,703.19,134.41,703.19,135.06
					 M704.3,62.16c-0.78,0-1.41,0.63-1.41,1.41c0,0.78,0.63,1.41,1.41,1.41s1.41-0.63,1.41-1.41
					C705.7,62.79,705.07,62.16,704.3,62.16 M697.88,86.52c0,1.15,0.93,2.08,2.08,2.08c1.15,0,2.08-0.93,2.08-2.08
					c0-1.15-0.93-2.08-2.08-2.08C698.81,84.44,697.88,85.37,697.88,86.52 M702.99,15.18c-1.02,0-1.85,0.83-1.85,1.85
					c0,1.02,0.83,1.85,1.85,1.85c1.02,0,1.85-0.83,1.85-1.85C704.84,16.01,704.01,15.18,702.99,15.18 M699.46,75.97
					c0,0.67,0.54,1.21,1.21,1.21s1.21-0.54,1.21-1.21s-0.54-1.21-1.21-1.21S699.46,75.3,699.46,75.97 M689.55,81.25
					c0,1.11,0.9,2.01,2.01,2.01s2.01-0.9,2.01-2.01c0-1.11-0.9-2.01-2.01-2.01S689.55,80.14,689.55,81.25 M768.34,154.88
					c0-1.13-0.92-2.05-2.05-2.05c-1.13,0-2.05,0.92-2.05,2.05c0,0.14,0.02,0.29,0.05,0.42h4
					C768.31,155.16,768.34,155.02,768.34,154.88 M798.64,17.5c0,0.56,0.29,1.05,0.73,1.33v-2.65
					C798.93,16.45,798.64,16.94,798.64,17.5 M758.74,152.62c0.99,0,1.8-0.8,1.8-1.8c0-0.99-0.8-1.8-1.8-1.8s-1.8,0.81-1.8,1.8
					C756.94,151.82,757.75,152.62,758.74,152.62 M782.17,0.02c0,0.8,0.65,1.46,1.46,1.46s1.46-0.65,1.46-1.46c0-0.01,0-0.01,0-0.02
					h-2.91C782.17,0.01,782.17,0.01,782.17,0.02 M757.55,121.66c0.6,0,1.08-0.48,1.08-1.08s-0.48-1.08-1.08-1.08
					c-0.59,0-1.08,0.48-1.08,1.08S756.95,121.66,757.55,121.66 M716.61,134.03c0,0.41,0.33,0.74,0.74,0.74
					c0.41,0,0.74-0.33,0.74-0.74c0-0.41-0.33-0.74-0.74-0.74C716.93,133.29,716.61,133.62,716.61,134.03 M756.24,144.9
					c0-0.43-0.35-0.79-0.79-0.79s-0.79,0.35-0.79,0.79c0,0.43,0.35,0.79,0.79,0.79S756.24,145.33,756.24,144.9 M753.25,149.43
					c0.42,0,0.76-0.34,0.76-0.76c0-0.42-0.34-0.76-0.76-0.76c-0.42,0-0.76,0.34-0.76,0.76
					C752.49,149.09,752.83,149.43,753.25,149.43 M755.07,146.1c0-0.59-0.48-1.06-1.07-1.06c-0.59,0-1.06,0.48-1.06,1.06
					c0,0.59,0.48,1.06,1.06,1.06C754.59,147.16,755.07,146.68,755.07,146.1 M757.18,83.55c0-0.53-0.43-0.96-0.96-0.96
					c-0.53,0-0.96,0.43-0.96,0.96c0,0.53,0.43,0.96,0.96,0.96C756.75,84.51,757.18,84.08,757.18,83.55 M751.6,134.98
					c0.68,0,1.22-0.55,1.22-1.22c0-0.67-0.55-1.22-1.22-1.22c-0.67,0-1.22,0.55-1.22,1.22C750.38,134.43,750.92,134.98,751.6,134.98
					 M755.36,91.9c-0.57,0-1.02,0.46-1.02,1.03c0,0.56,0.46,1.02,1.02,1.02c0.57,0,1.03-0.46,1.03-1.02
					C756.39,92.36,755.93,91.9,755.36,91.9 M718.23,55.95c0.26,0,0.47-0.21,0.47-0.47c0-0.26-0.21-0.47-0.47-0.47
					c-0.26,0-0.47,0.21-0.47,0.47C717.76,55.74,717.97,55.95,718.23,55.95 M687.63,64.62c-0.62,0-1.13,0.5-1.13,1.13
					c0,0.62,0.5,1.13,1.13,1.13c0.62,0,1.13-0.51,1.13-1.13C688.76,65.12,688.25,64.62,687.63,64.62 M677.07,121.89
					c-0.57,0-1.03,0.46-1.03,1.03c0,0.57,0.46,1.03,1.03,1.03c0.57,0,1.03-0.46,1.03-1.03
					C678.09,122.35,677.63,121.89,677.07,121.89 M674.92,114.48c0.76,0,1.38-0.62,1.38-1.39c0-0.76-0.62-1.38-1.38-1.38
					c-0.77,0-1.39,0.62-1.39,1.38C673.54,113.86,674.16,114.48,674.92,114.48 M679.74,119.97c0-1.02-0.83-1.85-1.85-1.85
					c-1.02,0-1.85,0.83-1.85,1.85c0,1.02,0.83,1.85,1.85,1.85C678.92,121.82,679.74,120.99,679.74,119.97 M682.25,79.18
					c0-0.69-0.56-1.25-1.25-1.25c-0.69,0-1.25,0.56-1.25,1.25c0,0.68,0.56,1.24,1.25,1.24C681.69,80.43,682.25,79.87,682.25,79.18
					 M685.2,90.09c0.74,0,1.34-0.56,1.41-1.28c0.21,0.08,0.44,0.13,0.68,0.13c1.07,0,1.95-0.87,1.95-1.94
					c0-1.08-0.87-1.95-1.95-1.95c-1.08,0-1.95,0.87-1.95,1.95c0,0.09,0.02,0.17,0.03,0.26c-0.06-0.01-0.11-0.02-0.17-0.02
					c-0.79,0-1.43,0.64-1.43,1.43C683.77,89.45,684.41,90.09,685.2,90.09 M683.3,87.82c0.29,0,0.52-0.23,0.52-0.51
					c0-0.29-0.23-0.52-0.52-0.52c-0.28,0-0.52,0.23-0.52,0.52C682.78,87.58,683.02,87.82,683.3,87.82 M718.65,140.23
					c0.88,0,1.59-0.71,1.59-1.59c0-0.88-0.71-1.59-1.59-1.59c-0.88,0-1.59,0.71-1.59,1.59
					C717.06,139.52,717.77,140.23,718.65,140.23 M689.14,133.01c-0.86,0-1.55,0.69-1.55,1.55c0,0.86,0.69,1.55,1.55,1.55
					c0.86,0,1.55-0.69,1.55-1.55C690.69,133.7,690,133.01,689.14,133.01 M688.79,92.3c-1.18,0-2.14,0.96-2.14,2.14
					c0,1.18,0.96,2.14,2.14,2.14c1.18,0,2.14-0.96,2.14-2.14C690.93,93.26,689.97,92.3,688.79,92.3 M682.93,105.44
					c0-0.65-0.53-1.19-1.19-1.19c-0.48,0-0.89,0.29-1.08,0.7c-0.94,0.02-1.7,0.79-1.7,1.73c0,0.96,0.78,1.74,1.74,1.74
					s1.74-0.78,1.74-1.74c0-0.1-0.01-0.2-0.03-0.29C682.72,106.18,682.93,105.84,682.93,105.44 M681.75,113.99
					c-0.39,0-0.7,0.32-0.7,0.7c0,0.39,0.32,0.7,0.7,0.7s0.7-0.32,0.7-0.7C682.46,114.31,682.14,113.99,681.75,113.99 M673.77,60.42
					c0,0.76,0.62,1.38,1.38,1.38c0.76,0,1.38-0.62,1.38-1.38c0-0.76-0.62-1.38-1.38-1.38C674.39,59.04,673.77,59.66,673.77,60.42
					 M674.81,20.78c-0.85,0-1.54,0.69-1.54,1.54s0.69,1.54,1.54,1.54c0.85,0,1.54-0.69,1.54-1.54S675.67,20.78,674.81,20.78"/>
			</g>
		</g>
	</g>
	<g class="st0">
		<defs>
			<rect id="SVGID_18_" x="-21.26" y="-21.26" width="841.89" height="595.28"/>
		</defs>
		<clipPath id="SVGID_19_">
			<use xlink:href="#SVGID_18_"  style="overflow:visible;"/>
		</clipPath>
	</g>
	<g class="st0">
		<polyline style="fill:none;" points="671.74,572.02 671.74,569.02 672.74,569.02 		"/>
	</g>
</g>
</svg>
