<?xml version="1.0" encoding="utf-8"?>
<!-- Generator: Adobe Illustrator 24.3.0, SVG Export Plug-In . SVG Version: 6.00 Build 0)  -->
<svg version="1.1" id="Layer_1" xmlns="http://www.w3.org/2000/svg" xmlns:xlink="http://www.w3.org/1999/xlink" x="0px" y="0px"
	 viewBox="0 0 69.6 67.2" style="enable-background:new 0 0 69.6 67.2;" xml:space="preserve">
<style type="text/css">
	.st0{fill:#010101;}
</style>
<g transform="translate(0.000000,577.000000) scale(0.100000,-0.100000)">
	<path class="st0" d="M485.93,5723.83c-1.49-2.51-1.49-11.02,0-18.54c1.98-11.02,1.49-12.03-1.98-4.01
		c-3.96,9.52-4.46,9.52-8.92-2.51c-2.97-7.02-8.92-30.07-13.87-51.11c-4.95-21.55-12.88-42.59-17.83-47.1
		c-8.42-8.02-9.41-7.02-12.38,12.53c-2.48,16.54-4.46,19.54-9.91,15.03c-5.94-4.51-6.93-0.5-6.93,24.55
		c0,17.04-1.49,31.57-3.47,32.57c-2.48,1.5-4.46-22.05-4.95-52.11s0-54.62,1.49-54.62c0.99,0,4.95,7.52,8.92,16.54
		c3.96,8.52,7.43,12.53,7.43,8.02c0.5-4.51,4.95-11.53,10.4-15.03c9.91-7.02,9.91-7.52-7.43-86.19
		c-20.31-91.2-24.27-102.22-38.14-117.26c-13.87-15.03-23.77-14.53-23.77,1c0,7.02-1.98,12.53-4.95,12.53
		c-2.48,0-4.95-3.51-4.95-8.02c0-7.02-17.83-34.07-38.14-57.13c-3.47-4.01-11.39-13.53-16.84-21.05
		c-12.88-17.54-24.27-18.04-24.27-1.5c0,10.02,2.97,13.53,14.86,16.04c18.33,3.51,16.84,13.53-1.98,15.53
		c-18.82,2.51-71.32-25.06-95.1-49.61c-18.33-19.04-19.32-21.55-20.8-56.12c-1.49-32.07,0-37.58,10.4-50.61
		c9.91-12.53,12.88-13.53,22.29-8.52c10.9,6.01,33.68,44.6,29.22,49.11c-1.49,1-3.96-2.51-5.94-8.52
		c-3.47-10.52-26.75-35.08-33.18-35.08c-6.93,0-18.82,29.56-18.82,46.1c0.5,37.08,21.79,68.65,58.94,88.19
		c27.74,14.53,33.18-9.02,12.88-53.62c-6.93-15.03-11.89-28.06-10.9-29.06c2.48-2,13.87,21.05,22.78,44.6
		c3.96,10.02,7.43,12.53,15.35,10.52c8.42-2.51,15.35,2,30.21,18.54c10.4,11.52,19.32,22.05,19.32,23.05c0,1,5.94,10.52,13.87,21.55
		c11.39,15.53,15.35,18.04,22.29,13.53c5.94-4.01,11.89-3.01,23.77,4.01c15.35,9.02,15.85,9.02,12.38,0.5
		c-4.46-12.53-26.25-103.23-33.18-139.81c-5.94-32.57-13.87-30.57-14.86,4.51c0,11.02-2.48,25.56-4.46,32.57
		c-2.48,8.02-3.47-0.5-1.49-22.55c0.99-19.04,3.96-41.09,6.44-48.61c2.48-7.02,2.48-21.05,0-31.07c-1.98-10.02-1.98-18.04,0-18.04
		s8.42,24.05,14.86,54.12c5.94,29.56,17.34,82.18,25.76,117.26l14.86,63.14l16.84-2.51c15.35-2.51,19.32-0.5,38.14,19.54
		c11.39,12.53,37.15,32.07,56.96,43.6c19.32,11.53,35.66,22.05,35.66,23.05c0,7.52-80.24-42.59-98.07-61.13
		c-23.28-23.05-27.74-25.06-33.68-15.53c-10.4,17.04,19.81,166.37,49.53,245.54c29.72,78.17,33.68,94.21,25.26,94.21
		C491.87,5728.84,487.91,5726.83,485.93,5723.83z"/>
	<path class="st0" d="M299.7,5688.25l-11.89-10.02l13.87,8.52c7.43,4.51,13.37,9.02,13.37,10.02
		C315.05,5700.78,311.09,5698.77,299.7,5688.25z"/>
	<path class="st0" d="M355.67,5617.09c-5.94-6.51-9.41-13.03-7.92-15.03c1.98-1.5,7.43,2.51,12.88,9.02
		c14.86,19.54,20.31,15.53,16.34-11.02c-1.98-13.53-5.94-27.06-8.42-30.07c-3.47-4.51-3.47-6.51,0-6.51c2.97,0,5.94,3.01,7.43,6.51
		c0.99,3.01,3.96,4.51,5.94,2c2.48-2,0.5-12.03-4.46-21.55c-4.46-10.02-7.43-19.04-6.44-20.54c1.49-1,6.93,7.52,12.38,19.04
		c7.92,16.04,9.41,23.55,5.45,31.07c-2.97,5.01-4.46,15.53-2.97,22.55C390.83,5630.12,374.49,5637.64,355.67,5617.09z"/>
	<path class="st0" d="M356.16,5537.42c0-32.57,1.98-61.64,4.46-65.14c4.95-8.02,4.46,52.62-0.99,93.71
		C356.66,5591.04,356.16,5586.53,356.16,5537.42z"/>
	<path class="st0" d="M295.24,5578.51c-8.92-9.02-9.41-15.03-7.43-65.64c1.98-59.63,6.44-71.16,22.29-61.13
		c6.93,5.01,9.91,5.01,11.39,0c1.49-3.51,2.97,2,2.97,12.03c0.5,10.02,3.96,26.56,7.92,36.08c3.96,10.02,7.43,29.06,7.43,42.09
		C339.82,5583.02,317.53,5601.06,295.24,5578.51z M334.37,5543.93c0-12.53-1.98-27.56-4.46-33.07c-3.47-9.02-4.46-9.02-7.43-1.5
		c-1.98,5.01-7.43,10.02-12.88,11.52c-13.87,4.51-12.88,39.09,1.49,53.62c9.91,10.02,10.9,10.02,17.34,1.5
		C331.89,5570.49,334.86,5556.46,334.37,5543.93z M311.59,5509.86c7.92-14.53,7.43-31.07-0.99-40.59
		c-11.89-14.03-15.35-9.52-15.35,20.04c0,17.54,1.98,24.05,6.93,24.05C306.14,5513.37,310.6,5511.86,311.59,5509.86z"/>
	<path class="st0" d="M215.99,5474.28c0-27.06-1.49-32.57-15.35-48.61c-8.42-9.52-13.37-17.54-10.4-17.54
		c2.48,0,8.42,5.01,12.38,11.53c7.43,10.52,7.92,10.52,7.92-12.53c0.5-13.03,2.97-25.06,6.44-27.06c3.47-2.51,4.46-1,2.48,4.01
		c-1.49,4.51-0.5,31.07,2.48,58.63c4.46,38.58,3.96,52.62,0,56.62C217.48,5503.84,215.99,5497.83,215.99,5474.28z"/>
	<path class="st0" d="M171.42,5444.21c0-22.05,1.98-42.09,4.95-43.6c4.46-2.51,1.49,77.17-2.97,82.18
		C172.41,5483.8,171.42,5466.76,171.42,5444.21z"/>
	<path class="st0" d="M152.6,5453.23c0-9.52,0.99-13.53,2.48-8.52c0.99,4.51,0.99,12.53,0,17.54
		C153.59,5466.76,152.6,5462.75,152.6,5453.23z"/>
	<path class="st0" d="M633.03,5410.64c-14.86-10.02-34.67-32.57-29.22-32.57c0.99,0,12.88,10.02,26.25,22.55
		C656.8,5425.67,657.8,5428.68,633.03,5410.64z"/>
	<path class="st0" d="M150.62,5341.99c-2.48-78.67-7.92-103.23-27.74-126.28c-7.92-9.02-7.92-9.02,2.48-4.01
		c6.93,4.01,14.36,17.54,21.3,39.09c9.41,28.06,10.9,43.09,10.4,98.72c-0.5,36.08-1.49,66.15-2.48,67.15
		C153.59,5417.65,151.61,5384.08,150.62,5341.99z"/>
	<path class="st0" d="M330.41,5305.41c0.5-9.52,8.92-25.56,8.92-17.54c0,4.01-1.98,11.02-4.46,15.03S330.41,5308.42,330.41,5305.41z
		"/>
	<path class="st0" d="M50.57,5269.83c-3.96-10.02,4.95-22.55,29.22-42.09c20.31-16.04,38.63-21.55,27.24-7.52
		c-3.47,4.01-9.91,7.52-14.86,7.52c-9.91,0-37.64,34.07-35.66,44.1C58.49,5280.35,54.03,5279.35,50.57,5269.83z"/>
</g>
</svg>
