<svg class="logo-scrolled" version="1.1" id="Layer_1" xmlns="http://www.w3.org/2000/svg" xmlns:xlink="http://www.w3.org/1999/xlink" x="0px" y="0px" viewBox="0 0 446.1 141.7" style="enable-background:new 0 0 446.1 141.7;" xml:space="preserve">
<path fill="#22BBAD" d="M40.5,45.6c-2.8,0.7-5.5,1.7-8,3C34.1,27.1,52.2,10,74.2,10c22,0,40.1,17,41.8,38.6c-2.6-1.3-5.3-2.3-8.1-3
	c-3-15.9-17-28-33.8-28C57.5,17.6,43.5,29.7,40.5,45.6z M114.1,65.1c-0.9-0.6-1.8-1.2-2.8-1.8c-1.3-0.7-2.6-1.4-4-1.9
	c-1.9,6.6-5.6,12.3-10.6,16.6c0.7,2.8,1.2,5.6,1.4,8.5C105.5,81.3,111.2,73.8,114.1,65.1z M82.6,85.3c-2.7,0.7-5.5,1-8.4,1
	c-2.9,0-5.7-0.4-8.4-1c-0.4,2.6-0.4,5.2-0.1,7.8c2.8,0.6,5.6,0.9,8.6,0.9c2.9,0,5.8-0.3,8.6-0.9C83.1,90.5,83,87.9,82.6,85.3z
	 M41.2,61.4c-1.4,0.5-2.7,1.2-4,1.9c-1,0.6-1.9,1.2-2.8,1.8c2.9,8.7,8.6,16.2,16,21.4c0.2-2.8,0.7-5.7,1.4-8.5
	C46.8,73.7,43,67.9,41.2,61.4z"></path>
<path fill="#E2195B" d="M63.8,57.4c-6.3-2.2-13.1-2.6-19.8-0.9c-0.2-1.5-0.3-3-0.3-4.5c0-1.1,0.1-2.2,0.2-3.3c9-1.9,18.4-0.7,26.6,3.2
	C68,53.5,65.8,55.3,63.8,57.4z M77.1,65.8c1.9,2,3.6,4.2,5.1,6.7c1.4,2.5,2.5,5.1,3.3,7.8c2.4-1,4.7-2.2,6.8-3.8
	c-0.9-2.7-2-5.3-3.5-7.8c-1.5-2.5-3.1-4.8-5-6.9C81.4,62.9,79.1,64.2,77.1,65.8z M83.7,117.7c6.1-6.9,9.8-15.6,10.5-24.6
	c-2.6,1.2-5.3,2.3-8.1,3c-1.2,6.5-4.3,12.7-9.1,17.6c1.2,0.9,2.4,1.8,3.7,2.5C81.7,116.8,82.7,117.3,83.7,117.7z M22.7,106.9
	c-8.4-14.5-4.9-32.7,7.3-43.2c-0.7-2.7-1.2-5.6-1.4-8.5C10.8,67.5,5.1,91.7,16.1,110.7c11,19.1,34.8,26.2,54.3,16.9
	c-2.4-1.6-4.6-3.5-6.6-5.5C48.5,127.5,31,121.5,22.7,106.9z"></path>
<path fill="#FFCB05" d="M63,80.4c-2.4-1-4.7-2.2-6.8-3.8c0.9-2.7,2-5.3,3.5-7.8c1.5-2.5,3.1-4.8,5-6.9c2.4,1,4.6,2.4,6.7,4
	c-1.9,2-3.6,4.2-5.1,6.7C64.8,75.1,63.7,77.7,63,80.4z M104.5,56.5c0.2-1.5,0.3-2.9,0.3-4.5c0-1.1-0.1-2.2-0.2-3.3
	c-9-1.9-18.4-0.7-26.6,3.2c2.4,1.6,4.6,3.4,6.7,5.5C91,55.2,97.8,54.8,104.5,56.5z M119.9,55.2c-0.2,2.9-0.7,5.7-1.4,8.5
	c12.3,10.6,15.7,28.7,7.4,43.2c-8.4,14.5-25.8,20.6-41.1,15.2c-2,2-4.2,3.8-6.6,5.5c19.5,9.3,43.3,2.1,54.3-16.9
	C143.4,91.7,137.7,67.5,119.9,55.2z M54.2,93.1c0.7,9,4.4,17.7,10.5,24.6c1-0.4,2-0.9,2.9-1.5c1.3-0.8,2.5-1.6,3.7-2.5
	c-4.7-4.9-7.8-11-9.1-17.5C59.5,95.4,56.8,94.4,54.2,93.1z"></path>
<g>
<path fill="#000000" d="M162.9,30.6h13.5c3.3,0,6.2,0.6,8.8,1.9c2.6,1.3,4.5,3.1,5.9,5.4c1.4,2.3,2.1,5,2.1,8.1c0,3.1-0.7,5.7-2.1,8.1
		c-1.4,2.3-3.4,4.1-5.9,5.4c-2.6,1.3-5.5,1.9-8.8,1.9h-13.5V30.6z M176.1,56.6c2.3,0,4.3-0.4,6-1.3c1.7-0.9,3-2.1,4-3.7
		c0.9-1.6,1.4-3.5,1.4-5.6c0-2.1-0.5-4-1.4-5.6c-0.9-1.6-2.2-2.8-4-3.7c-1.7-0.9-3.7-1.3-6-1.3h-7.5v21.1H176.1z"></path>
<path fill="#000000" d="M213.9,40.1c1.8,1.7,2.8,4.2,2.8,7.5v13.8h-5.2v-2.9c-0.7,1-1.6,1.8-2.9,2.4c-1.2,0.5-2.8,0.8-4.5,0.8
		c-1.8,0-3.3-0.3-4.6-0.9c-1.3-0.6-2.3-1.4-3.1-2.5c-0.7-1.1-1.1-2.3-1.1-3.6c0-2.1,0.8-3.8,2.4-5.1c1.6-1.3,4-1.9,7.4-1.9h6.1v-0.4
		c0-1.6-0.5-2.9-1.5-3.8c-1-0.9-2.4-1.3-4.4-1.3c-1.3,0-2.6,0.2-3.9,0.6c-1.3,0.4-2.4,1-3.2,1.7l-2.2-4c1.2-0.9,2.7-1.7,4.4-2.2
		c1.7-0.5,3.6-0.7,5.5-0.7C209.4,37.6,212,38.5,213.9,40.1z M208.8,56.8c1.1-0.6,1.8-1.5,2.3-2.7v-2.7h-5.7c-3.2,0-4.8,1-4.8,3.1
		c0,1,0.4,1.8,1.2,2.4c0.8,0.6,1.9,0.9,3.3,0.9C206.5,57.7,207.8,57.4,208.8,56.8z"></path>
<path fill="#000000" d="M235.9,60.1c-0.6,0.5-1.4,0.9-2.4,1.2c-0.9,0.3-1.9,0.4-2.9,0.4c-2.6,0-4.6-0.7-6-2c-1.4-1.3-2.1-3.3-2.1-5.9
		V42.5h-3.9v-4.4h3.9v-5.4h5.5v5.4h6.3v4.4H228v11.2c0,1.1,0.3,2,0.8,2.6c0.6,0.6,1.4,0.9,2.4,0.9c1.2,0,2.3-0.3,3.1-1L235.9,60.1z"></path>
<path fill="#000000" d="M256.6,40.1c1.8,1.7,2.8,4.2,2.8,7.5v13.8h-5.2v-2.9c-0.7,1-1.6,1.8-2.9,2.4c-1.2,0.5-2.8,0.8-4.5,0.8
		c-1.8,0-3.3-0.3-4.6-0.9c-1.3-0.6-2.3-1.4-3.1-2.5c-0.7-1.1-1.1-2.3-1.1-3.6c0-2.1,0.8-3.8,2.4-5.1c1.6-1.3,4-1.9,7.4-1.9h6.1v-0.4
		c0-1.6-0.5-2.9-1.5-3.8c-1-0.9-2.4-1.3-4.4-1.3c-1.3,0-2.6,0.2-3.9,0.6c-1.3,0.4-2.4,1-3.2,1.7l-2.2-4c1.2-0.9,2.7-1.7,4.4-2.2
		c1.7-0.5,3.6-0.7,5.5-0.7C252.1,37.6,254.8,38.5,256.6,40.1z M251.6,56.8c1.1-0.6,1.8-1.5,2.3-2.7v-2.7h-5.7c-3.2,0-4.8,1-4.8,3.1
		c0,1,0.4,1.8,1.2,2.4c0.8,0.6,1.9,0.9,3.3,0.9C249.3,57.7,250.5,57.4,251.6,56.8z"></path>
<path fill="#000000" d="M279.6,60.8c-2.2-0.7-4-1.6-5.3-2.7l2-4.4c1.3,1,2.8,1.8,4.6,2.4c1.8,0.6,3.7,0.9,5.5,0.9c2.3,0,4-0.4,5.1-1.1
		c1.1-0.7,1.7-1.7,1.7-2.9c0-0.9-0.3-1.6-0.9-2.2c-0.6-0.6-1.4-1-2.4-1.3c-1-0.3-2.3-0.7-4-1.1c-2.3-0.6-4.3-1.1-5.7-1.7
		c-1.5-0.6-2.7-1.4-3.7-2.6c-1-1.2-1.6-2.8-1.6-4.8c0-1.7,0.5-3.3,1.4-4.6c0.9-1.4,2.3-2.5,4.2-3.3c1.9-0.8,4.1-1.2,6.8-1.2
		c1.9,0,3.7,0.2,5.5,0.7c1.8,0.5,3.4,1.1,4.7,2l-1.8,4.4c-1.4-0.8-2.8-1.4-4.2-1.8c-1.5-0.4-2.9-0.6-4.3-0.6c-2.3,0-3.9,0.4-5,1.1
		c-1.1,0.8-1.7,1.8-1.7,3c0,0.9,0.3,1.6,0.9,2.2c0.6,0.6,1.4,1,2.4,1.3c1,0.3,2.3,0.7,4,1.1c2.3,0.5,4.2,1.1,5.6,1.7
		c1.5,0.6,2.7,1.4,3.8,2.6c1,1.2,1.6,2.8,1.6,4.8c0,1.7-0.5,3.2-1.4,4.6c-0.9,1.4-2.3,2.5-4.2,3.3c-1.9,0.8-4.2,1.2-6.9,1.2
		C284.1,61.9,281.8,61.5,279.6,60.8z"></path>
<path fill="#000000" d="M307.1,60.2c-1.9-1-3.5-2.5-4.5-4.3c-1.1-1.8-1.6-3.9-1.6-6.2c0-2.3,0.5-4.4,1.6-6.2c1.1-1.8,2.6-3.2,4.5-4.3
		c1.9-1,4.1-1.5,6.6-1.5c2.3,0,4.4,0.5,6.1,1.4c1.7,0.9,3.1,2.3,3.9,4.1l-4.2,2.5c-0.7-1.1-1.5-1.9-2.5-2.4c-1-0.5-2.1-0.8-3.3-0.8
		c-2.1,0-3.8,0.7-5.1,2c-1.4,1.3-2,3.1-2,5.4c0,2.2,0.7,4,2,5.4s3,2,5.1,2c1.2,0,2.3-0.3,3.3-0.8c1-0.5,1.9-1.4,2.5-2.4l4.2,2.5
		c-0.9,1.8-2.2,3.1-4,4.1c-1.7,1-3.8,1.4-6.1,1.4C311.3,61.7,309.1,61.2,307.1,60.2z"></path>
<path fill="#000000" d="M326.8,33.1c-0.7-0.6-1-1.4-1-2.4c0-0.9,0.3-1.7,1-2.4s1.5-0.9,2.5-0.9c1,0,1.8,0.3,2.5,0.9
		c0.7,0.6,1,1.4,1,2.3c0,1-0.3,1.8-1,2.4c-0.7,0.7-1.5,1-2.5,1C328.3,34,327.4,33.7,326.8,33.1z M326.5,37.9h5.5v23.5h-5.5V37.9z"></path>
<path fill="#000000" d="M358.7,51.4h-18.5c0.3,1.7,1.2,3.1,2.5,4.1c1.4,1,3.1,1.5,5.1,1.5c2.6,0,4.7-0.9,6.4-2.6l3,3.4
		c-1.1,1.3-2.4,2.2-4,2.9c-1.6,0.6-3.4,1-5.5,1c-2.6,0-4.9-0.5-6.8-1.5c-2-1-3.5-2.5-4.6-4.3c-1.1-1.8-1.6-3.9-1.6-6.2
		c0-2.3,0.5-4.4,1.6-6.2c1-1.8,2.5-3.3,4.3-4.3c1.8-1,3.9-1.5,6.3-1.5c2.3,0,4.3,0.5,6.1,1.5c1.8,1,3.2,2.4,4.2,4.3
		c1,1.8,1.5,4,1.5,6.4C358.8,50.2,358.8,50.7,358.7,51.4z M342.4,43.6c-1.2,1-2,2.4-2.2,4.2h13.3c-0.2-1.7-1-3.1-2.2-4.1
		c-1.2-1.1-2.7-1.6-4.5-1.6C345.1,42,343.7,42.6,342.4,43.6z"></path>
<path fill="#000000" d="M382,40.2c1.8,1.7,2.7,4.3,2.7,7.7v13.5h-5.5V48.6c0-2.1-0.5-3.6-1.5-4.6c-1-1-2.3-1.6-4.1-1.6
		c-2,0-3.6,0.6-4.8,1.8c-1.2,1.2-1.8,3-1.8,5.3v11.9h-5.5V37.9h5.2v3c0.9-1.1,2.1-1.9,3.4-2.5c1.4-0.6,2.9-0.8,4.7-0.8
		C377.9,37.6,380.2,38.5,382,40.2z"></path>
<path fill="#000000" d="M393.6,60.2c-1.9-1-3.5-2.5-4.5-4.3c-1.1-1.8-1.6-3.9-1.6-6.2c0-2.3,0.5-4.4,1.6-6.2c1.1-1.8,2.6-3.2,4.5-4.3
		c1.9-1,4.1-1.5,6.6-1.5c2.3,0,4.4,0.5,6.1,1.4c1.7,0.9,3.1,2.3,3.9,4.1l-4.2,2.5c-0.7-1.1-1.5-1.9-2.5-2.4c-1-0.5-2.1-0.8-3.3-0.8
		c-2.1,0-3.8,0.7-5.1,2c-1.4,1.3-2,3.1-2,5.4c0,2.2,0.7,4,2,5.4s3,2,5.1,2c1.2,0,2.3-0.3,3.3-0.8c1-0.5,1.9-1.4,2.5-2.4l4.2,2.5
		c-0.9,1.8-2.2,3.1-4,4.1c-1.7,1-3.8,1.4-6.1,1.4C397.8,61.7,395.6,61.2,393.6,60.2z"></path>
<path fill="#000000" d="M435.6,51.4h-18.5c0.3,1.7,1.2,3.1,2.5,4.1c1.4,1,3.1,1.5,5.1,1.5c2.6,0,4.7-0.9,6.4-2.6l3,3.4
		c-1.1,1.3-2.4,2.2-4,2.9c-1.6,0.6-3.4,1-5.5,1c-2.6,0-4.9-0.5-6.8-1.5c-2-1-3.5-2.5-4.6-4.3c-1.1-1.8-1.6-3.9-1.6-6.2
		c0-2.3,0.5-4.4,1.6-6.2c1-1.8,2.5-3.3,4.3-4.3c1.8-1,3.9-1.5,6.3-1.5c2.3,0,4.3,0.5,6.1,1.5c1.8,1,3.2,2.4,4.2,4.3
		c1,1.8,1.5,4,1.5,6.4C435.7,50.2,435.6,50.7,435.6,51.4z M419.3,43.6c-1.2,1-2,2.4-2.2,4.2h13.3c-0.2-1.7-1-3.1-2.2-4.1
		c-1.2-1.1-2.7-1.6-4.5-1.6C422,42,420.5,42.6,419.3,43.6z"></path>
<path fill="#000000" d="M184.3,98.3h-15.4l-3,7.1h-5.9l13.9-30.8h5.6l13.9,30.8h-6L184.3,98.3z M182.4,93.8l-5.8-13.5l-5.8,13.5H182.4
		z"></path>
<path fill="#000000" d="M198.5,104.2c-1.9-1-3.5-2.5-4.5-4.3c-1.1-1.8-1.6-3.9-1.6-6.2c0-2.3,0.5-4.4,1.6-6.2c1.1-1.8,2.6-3.2,4.5-4.3
		c1.9-1,4.1-1.5,6.6-1.5c2.3,0,4.4,0.5,6.1,1.4c1.7,0.9,3.1,2.3,3.9,4.1l-4.2,2.5c-0.7-1.1-1.5-1.9-2.5-2.4c-1-0.5-2.1-0.8-3.3-0.8
		c-2.1,0-3.8,0.7-5.1,2c-1.4,1.3-2,3.1-2,5.4c0,2.2,0.7,4,2,5.4c1.3,1.3,3,2,5.1,2c1.2,0,2.3-0.3,3.3-0.8c1-0.5,1.9-1.4,2.5-2.4
		l4.2,2.5c-0.9,1.8-2.2,3.1-4,4.1c-1.7,1-3.8,1.4-6.1,1.4C202.6,105.8,200.4,105.3,198.5,104.2z"></path>
<path fill="#000000" d="M235.8,84.2c1.8,1.7,2.8,4.2,2.8,7.5v13.8h-5.2v-2.9c-0.7,1-1.6,1.8-2.9,2.4c-1.2,0.5-2.8,0.8-4.5,0.8
		c-1.8,0-3.3-0.3-4.6-0.9c-1.3-0.6-2.3-1.4-3.1-2.5c-0.7-1.1-1.1-2.3-1.1-3.6c0-2.1,0.8-3.8,2.4-5.1c1.6-1.3,4-1.9,7.4-1.9h6.1v-0.4
		c0-1.6-0.5-2.9-1.5-3.8c-1-0.9-2.4-1.3-4.4-1.3c-1.3,0-2.6,0.2-3.9,0.6c-1.3,0.4-2.4,1-3.2,1.7l-2.2-4c1.2-0.9,2.7-1.7,4.4-2.2
		c1.7-0.5,3.6-0.7,5.5-0.7C231.3,81.7,233.9,82.5,235.8,84.2z M230.7,100.8c1.1-0.6,1.8-1.5,2.3-2.7v-2.7h-5.7c-3.2,0-4.8,1-4.8,3.1
		c0,1,0.4,1.8,1.2,2.4c0.8,0.6,1.9,0.9,3.3,0.9C228.4,101.8,229.7,101.4,230.7,100.8z"></path>
<path fill="#000000" d="M266.2,72.8v32.7H261v-3c-0.9,1.1-2,2-3.4,2.5c-1.3,0.6-2.8,0.8-4.4,0.8c-2.3,0-4.3-0.5-6.1-1.5
		c-1.8-1-3.2-2.4-4.3-4.2c-1-1.8-1.5-3.9-1.5-6.3c0-2.4,0.5-4.5,1.5-6.3c1-1.8,2.4-3.2,4.3-4.2c1.8-1,3.8-1.5,6.1-1.5
		c1.6,0,3,0.3,4.3,0.8c1.3,0.5,2.4,1.3,3.3,2.4V72.8H266.2z M257.4,100.2c1.1-0.6,1.9-1.5,2.5-2.6c0.6-1.1,0.9-2.4,0.9-3.9
		s-0.3-2.8-0.9-3.9c-0.6-1.1-1.5-2-2.5-2.6c-1.1-0.6-2.2-0.9-3.6-0.9c-1.3,0-2.5,0.3-3.6,0.9c-1.1,0.6-1.9,1.5-2.5,2.6
		c-0.6,1.1-0.9,2.4-0.9,3.9s0.3,2.8,0.9,3.9c0.6,1.1,1.5,2,2.5,2.6c1.1,0.6,2.2,0.9,3.6,0.9C255.1,101.1,256.3,100.8,257.4,100.2z"></path>
<path fill="#000000" d="M293,95.5h-18.5c0.3,1.7,1.2,3.1,2.5,4.1c1.4,1,3.1,1.5,5.1,1.5c2.6,0,4.7-0.9,6.4-2.6l3,3.4
		c-1.1,1.3-2.4,2.2-4,2.9c-1.6,0.6-3.4,1-5.5,1c-2.6,0-4.9-0.5-6.8-1.5c-2-1-3.5-2.5-4.6-4.3c-1.1-1.8-1.6-3.9-1.6-6.2
		c0-2.3,0.5-4.4,1.6-6.2c1-1.8,2.5-3.3,4.3-4.3c1.8-1,3.9-1.5,6.3-1.5c2.3,0,4.3,0.5,6.1,1.5c1.8,1,3.2,2.4,4.2,4.3
		c1,1.8,1.5,4,1.5,6.4C293,94.2,293,94.8,293,95.5z M276.7,87.6c-1.2,1-2,2.4-2.2,4.2h13.3c-0.2-1.7-1-3.1-2.2-4.1
		c-1.2-1.1-2.7-1.6-4.5-1.6C279.4,86.1,277.9,86.6,276.7,87.6z"></path>
<path fill="#000000" d="M332.5,84.3c1.7,1.7,2.6,4.3,2.6,7.7v13.5h-5.5V92.7c0-2.1-0.5-3.6-1.4-4.6c-0.9-1-2.2-1.6-3.9-1.6
		c-1.8,0-3.3,0.6-4.4,1.8c-1.1,1.2-1.7,3-1.7,5.2v11.9h-5.5V92.7c0-2.1-0.5-3.6-1.4-4.6c-0.9-1-2.2-1.6-3.9-1.6
		c-1.9,0-3.4,0.6-4.5,1.8c-1.1,1.2-1.7,3-1.7,5.2v11.9h-5.5V81.9h5.2v3c0.9-1.1,2-1.9,3.3-2.4c1.3-0.6,2.8-0.8,4.4-0.8
		c1.8,0,3.3,0.3,4.7,1c1.4,0.7,2.4,1.6,3.2,2.9c1-1.2,2.2-2.2,3.7-2.9c1.5-0.7,3.2-1,5.1-1C328.4,81.7,330.8,82.5,332.5,84.3z"></path>
<path fill="#000000" d="M361.5,81.9l-11,25.4c-1,2.6-2.3,4.4-3.7,5.4c-1.5,1-3.2,1.6-5.3,1.6c-1.2,0-2.3-0.2-3.5-0.6
		c-1.1-0.4-2.1-0.9-2.8-1.6l2.2-4.1c0.5,0.5,1.2,0.9,1.9,1.2c0.7,0.3,1.4,0.4,2.2,0.4c1,0,1.8-0.2,2.4-0.7c0.6-0.5,1.2-1.3,1.7-2.5
		l0.4-0.9l-10.3-23.6h5.7l7.4,17.4l7.4-17.4H361.5z"></path>
</g>
</svg>