<?xml version="1.0" encoding="utf-8"?>
<!-- Generator: Adobe Illustrator 24.3.0, SVG Export Plug-In . SVG Version: 6.00 Build 0)  -->
<svg version="1.1" id="katman_1" xmlns="http://www.w3.org/2000/svg" xmlns:xlink="http://www.w3.org/1999/xlink" x="0px" y="0px"
	 viewBox="0 0 107 30" style="enable-background:new 0 0 107 30;" xml:space="preserve">
<style type="text/css">
	.st0{clip-path:url(#SVGID_2_);}
	.st1{clip-path:url(#SVGID_12_);}
	.st2{fill:#FFFFFF;}
	.st3{clip-path:url(#SVGID_14_);}
	.st4{clip-path:url(#SVGID_16_);}
</style>
<g>
	<defs>
		<rect id="SVGID_1_" x="-288" y="-461.2" width="841.9" height="595.3"/>
	</defs>
	<clipPath id="SVGID_2_">
		<use xlink:href="#SVGID_1_"  style="overflow:visible;"/>
	</clipPath>
	<g class="st0">
		<text transform="matrix(1 0 0 1 -240.9005 -374.6656)" class="st2" style="font-family:'Montserrat-Light'; font-size:48px;">D</text>
	</g>
	<g class="st0">
		<text transform="matrix(1 0 0 1 -201.7326 -374.6656)" class="st2" style="font-family:'Montserrat-Light'; font-size:48px;">a</text>
	</g>
	<g class="st0">
		<text transform="matrix(1 0 0 1 -175.1886 -374.6656)"><tspan x="0" y="0" class="st2" style="font-family:'Montserrat-Light'; font-size:48px;">t</tspan><tspan x="18.6" y="0" class="st2" style="font-family:'Montserrat-Light'; font-size:48px;">a</tspan><tspan x="46.2" y="0" class="st2" style="font-family:'Montserrat-Light'; font-size:48px;"> </tspan></text>
	</g>
	<g class="st0">
		<text transform="matrix(1 0 0 1 -117.2047 -374.6656)" class="st2" style="font-family:'Montserrat-Light'; font-size:48px;">S</text>
	</g>
	<g class="st0">
		<text transform="matrix(1 0 0 1 -88.4523 -374.6656)" class="st2" style="font-family:'Montserrat-Light'; font-size:48px;">c</text>
	</g>
	<g class="st0">
		<text transform="matrix(1 0 0 1 -63.2526 -374.6656)" class="st2" style="font-family:'Montserrat-Light'; font-size:48px;">i</text>
	</g>
	<g class="st0">
		<text transform="matrix(1 0 0 1 -52.1647 -374.6656)" class="st2" style="font-family:'Montserrat-Light'; font-size:48px;">e</text>
	</g>
	<g class="st0">
		<text transform="matrix(1 0 0 1 -24.9484 -374.6656)" class="st2" style="font-family:'Montserrat-Light'; font-size:48px;">n</text>
	</g>
	<g class="st0">
		<text transform="matrix(1 0 0 1 5.9637 -374.6656)"><tspan x="0" y="0" class="st2" style="font-family:'Montserrat-Light'; font-size:48px;">c</tspan><tspan x="25.8" y="0" class="st2" style="font-family:'Montserrat-Light'; font-size:48px;">e </tspan><tspan x="65.9" y="0" class="st2" style="font-family:'Montserrat-Light'; font-size:48px;">A</tspan></text>
	</g>
	<g class="st0">
		<text transform="matrix(1 0 0 1 104.8436 -374.6656)" class="st2" style="font-family:'Montserrat-Light'; font-size:48px;">c</text>
	</g>
	<g class="st0">
		<text transform="matrix(1 0 0 1 131.0033 -374.6656)" class="st2" style="font-family:'Montserrat-Light'; font-size:48px;">a</text>
	</g>
	<g class="st0">
		<text transform="matrix(1 0 0 1 157.5956 -374.6656)" class="st2" style="font-family:'Montserrat-Light'; font-size:48px;">d</text>
	</g>
	<g class="st0">
		<text transform="matrix(1 0 0 1 188.5555 -374.6656)" class="st2" style="font-family:'Montserrat-Light'; font-size:48px;">e</text>
	</g>
	<g class="st0">
		<text transform="matrix(1 0 0 1 215.7713 -374.6656)"><tspan x="0" y="0" class="st2" style="font-family:'Montserrat-Light'; font-size:48px;">m</tspan><tspan x="50.2" y="0" class="st2" style="font-family:'Montserrat-Light'; font-size:48px;">y</tspan></text>
	</g>
	<g class="st0">
		<text transform="matrix(1 0 0 1 -238.9806 -317.0655)" class="st2" style="font-family:'Montserrat-Light'; font-size:48px;">C</text>
	</g>
	<g class="st0">
		<text transform="matrix(1 0 0 1 -205.2843 -317.0655)" class="st2" style="font-family:'Montserrat-Light'; font-size:48px;">e</text>
	</g>
	<g class="st0">
		<text transform="matrix(1 0 0 1 -179.0285 -317.0655)" class="st2" style="font-family:'Montserrat-Light'; font-size:48px;">r</text>
	</g>
	<g class="st0">
		<text transform="matrix(1 0 0 1 -157.9567 -317.0655)" class="st2" style="font-family:'Montserrat-Light'; font-size:48px;">t</text>
	</g>
	<g class="st0">
		<text transform="matrix(1 0 0 1 -139.3327 -317.0655)" class="st2" style="font-family:'Montserrat-Light'; font-size:48px;">i</text>
	</g>
	<g class="st0">
		<text transform="matrix(1 0 0 1 -126.3244 -317.0655)" class="st2" style="font-family:'Montserrat-Light'; font-size:48px;">f</text>
	</g>
	<g class="st0">
		<text transform="matrix(1 0 0 1 -112.0207 -317.0655)" class="st2" style="font-family:'Montserrat-Light'; font-size:48px;"> </text>
	</g>
	<g class="st0">
		<text transform="matrix(1 0 0 1 -107.8444 -317.0655)" class="st2" style="font-family:'Montserrat-Light'; font-size:48px;">i</text>
	</g>
	<g class="st0">
		<text transform="matrix(1 0 0 1 -97.7165 -317.0655)" class="st2" style="font-family:'Montserrat-Light'; font-size:48px;">c</text>
	</g>
	<g class="st0">
		<text transform="matrix(1 0 0 1 -71.5563 -317.0655)" class="st2" style="font-family:'Montserrat-Light'; font-size:48px;">a</text>
	</g>
	<g class="st0">
		<text transform="matrix(1 0 0 1 -45.0124 -317.0655)"><tspan x="0" y="0" class="st2" style="font-family:'Montserrat-Light'; font-size:48px; letter-spacing:-1;">t</tspan><tspan x="17.8" y="0" class="st2" style="font-family:'Montserrat-Light'; font-size:48px;">e</tspan></text>
	</g>
	<g class="st0">
		<defs>
			<rect id="SVGID_3_" x="-288" y="-461.2" width="841.9" height="595.3"/>
		</defs>
		<clipPath id="SVGID_4_">
			<use xlink:href="#SVGID_3_"  style="overflow:visible;"/>
		</clipPath>
	</g>
	<g class="st0">
		<defs>
			<rect id="SVGID_5_" x="-288" y="-461.2" width="841.9" height="595.3"/>
		</defs>
		<clipPath id="SVGID_6_">
			<use xlink:href="#SVGID_5_"  style="overflow:visible;"/>
		</clipPath>
	</g>
	<g class="st0">
		<defs>
			<rect id="SVGID_7_" x="-288" y="-461.2" width="841.9" height="595.3"/>
		</defs>
		<clipPath id="SVGID_8_">
			<use xlink:href="#SVGID_7_"  style="overflow:visible;"/>
		</clipPath>
	</g>
	<g class="st0">
		<defs>
			<rect id="SVGID_9_" x="-288" y="-461.2" width="841.9" height="595.3"/>
		</defs>
		<clipPath id="SVGID_10_">
			<use xlink:href="#SVGID_9_"  style="overflow:visible;"/>
		</clipPath>
	</g>
	<g class="st0">
		<text transform="matrix(1 0 0 1 216.1991 94.7011)" style="font-family:'Montserrat-Light'; font-size:8px;"> </text>
	</g>
	<g class="st0">
		<defs>
			<rect id="SVGID_11_" x="-288" y="-461.2" width="841.9" height="595.3"/>
		</defs>
		<clipPath id="SVGID_12_">
			<use xlink:href="#SVGID_11_"  style="overflow:visible;"/>
		</clipPath>
		<g class="st1">
			<g>
				<path class="st2" d="M529.9-354.4c0.7,0,1.2,0.5,1.2,1.2c0,0.7-0.5,1.2-1.2,1.2s-1.2-0.5-1.2-1.2
					C528.7-353.9,529.3-354.4,529.9-354.4 M530.1-362.2c0,0.3,0.2,0.5,0.6,0.5c0.3,0,0.6-0.2,0.6-0.5c0-0.3-0.2-0.5-0.6-0.5
					C530.3-362.7,530.1-362.5,530.1-362.2 M529.5-358.9c0,0.4,0.3,0.8,0.8,0.8c0.4,0,0.8-0.3,0.8-0.8c0-0.1,0-0.1,0-0.2
					c0.2,0.3,0.4,0.5,0.7,0.6v-3.2c-0.6,0.3-1,0.9-1,1.6c0,0.2,0,0.4,0.1,0.6c-0.1-0.1-0.3-0.2-0.5-0.2
					C529.8-359.6,529.5-359.3,529.5-358.9 M527.9-347c0,0.6,0.5,1.1,1.2,1.1c0.6,0,1.2-0.5,1.2-1.1c0-0.6-0.5-1.1-1.2-1.1
					C528.5-348.1,527.9-347.6,527.9-347 M515.7-323.3c0,0.4,0.3,0.7,0.8,0.7c0.4,0,0.8-0.3,0.8-0.7c0-0.4-0.3-0.7-0.8-0.7
					C516-324,515.7-323.7,515.7-323.3 M521.2-306.5c0-0.4-0.3-0.7-0.7-0.7c-0.4,0-0.7,0.3-0.7,0.7c0,0.4,0.3,0.7,0.7,0.7
					C520.9-305.8,521.2-306.1,521.2-306.5 M509.5-342.6c0-0.5-0.4-0.9-0.9-0.9c-0.5,0-0.9,0.4-0.9,0.9c0,0.5,0.4,0.9,0.9,0.9
					C509.1-341.7,509.5-342.1,509.5-342.6 M523-310.2c0-1-0.8-1.9-1.9-1.9c-0.5,0-1,0.2-1.4,0.6c-0.2-0.1-0.5-0.2-0.8-0.2
					c-0.9,0-1.7,0.8-1.7,1.7c0,0.9,0.8,1.7,1.7,1.7c0.4,0,0.8-0.1,1.1-0.4c0.3,0.2,0.7,0.4,1.1,0.4C522.1-308.3,523-309.2,523-310.2
					 M521.8-299.7c0-0.4-0.3-0.7-0.7-0.7c-0.4,0-0.7,0.3-0.7,0.7c0,0.4,0.3,0.7,0.7,0.7C521.5-299,521.8-299.3,521.8-299.7
					 M523.8-342.7c-0.3,0.3-0.4,0.6-0.4,1c0,0.8,0.6,1.4,1.4,1.4c0.2,0,0.4,0,0.6-0.1c0,0.1,0,0.1,0,0.2c0,0.3,0.3,0.6,0.6,0.6
					c0.3,0,0.6-0.3,0.6-0.6c0-0.3-0.3-0.6-0.6-0.6c0,0,0,0,0,0c0,0,0.1-0.1,0.1-0.1c0.8-0.2,1.4-0.9,1.4-1.7c0-1-0.8-1.8-1.8-1.8
					C524.7-344.3,523.9-343.6,523.8-342.7 M527.9-287.2c0.5,0,0.9-0.4,0.9-0.8c0-0.2-0.1-0.3-0.1-0.4c0-0.1,0-0.1,0-0.2
					c0-0.3-0.3-0.6-0.6-0.6c-0.3,0-0.5,0.2-0.5,0.4c-0.3,0.1-0.5,0.4-0.5,0.8C527.1-287.6,527.5-287.2,527.9-287.2 M530.8-368.4
					c0,0.4,0.4,0.8,0.8,0.8c0,0,0.1,0,0.1,0v-1.6c0,0-0.1,0-0.1,0C531.1-369.2,530.8-368.8,530.8-368.4 M531.5-364.3
					c0,0,0.1,0,0.1,0v-1.6c0,0-0.1,0-0.1,0c-0.5,0-0.8,0.4-0.8,0.8C530.7-364.7,531.1-364.3,531.5-364.3 M509.3-349.9
					c-0.3,0-0.6,0.3-0.6,0.6c-0.1,0-0.1,0-0.2,0c-0.5,0-1,0.4-1,1c0,0.5,0.4,1,1,1c0.5,0,1-0.4,1-1c0-0.1,0-0.2,0-0.2
					c0.3,0,0.6-0.3,0.6-0.6C510-349.6,509.7-349.9,509.3-349.9 M512.9-310.6c0.8,0,1.5-0.7,1.5-1.5c0-0.8-0.7-1.5-1.5-1.5
					c-0.8,0-1.5,0.7-1.5,1.5C511.4-311.2,512.1-310.6,512.9-310.6 M513.4-350.7c-0.4,0-0.7,0.3-0.7,0.7c0,0.4,0.3,0.7,0.7,0.7
					c0.4,0,0.7-0.3,0.7-0.7C514.1-350.4,513.8-350.7,513.4-350.7 M505.1-326.5c0-0.3-0.2-0.5-0.6-0.5c-0.3,0-0.6,0.2-0.6,0.5
					c0,0.3,0.2,0.5,0.6,0.5C504.9-326,505.1-326.2,505.1-326.5 M501.6-337.7c-0.2,0-0.4,0-0.6,0.1c-0.3-0.5-0.8-0.8-1.5-0.8
					c-1,0-1.7,0.8-1.7,1.7c0,0.9,0.8,1.7,1.7,1.7c0.4,0,0.7-0.1,1-0.3c0.3,0.3,0.6,0.4,1,0.4c0.8,0,1.4-0.6,1.4-1.4
					C503.1-337.1,502.4-337.7,501.6-337.7 M511.4-333c0.4,0,0.8-0.3,0.8-0.8c0-0.4-0.3-0.8-0.8-0.8c-0.4,0-0.8,0.3-0.8,0.8
					C510.6-333.3,511-333,511.4-333 M506.6-339.6c0,0.5,0.4,0.9,0.9,0.9c0.5,0,0.9-0.4,0.9-0.9c0-0.5-0.4-0.9-0.9-0.9
					C507-340.5,506.6-340.1,506.6-339.6 M506.4-338.6c0.1-0.1,0.2-0.2,0.2-0.4c0-0.1,0-0.2-0.1-0.3c0-1-0.9-1.9-2-1.9
					c-1.1,0-2,0.9-2,2c0,1.1,0.9,2,2,2C505.4-337.2,506.1-337.8,506.4-338.6 M513.5-324.6c0.4,0,0.7-0.3,0.7-0.7
					c0-0.4-0.3-0.7-0.7-0.7c-0.4,0-0.7,0.3-0.7,0.7C512.8-324.9,513.1-324.6,513.5-324.6 M509.7-343.8c0,1.2,0.9,2.1,2.1,2.1
					c1.2,0,2.1-0.9,2.1-2.1c0-0.8-0.5-1.5-1.1-1.8c0,0,0.1,0,0.1,0c0.4,0,0.8-0.3,0.8-0.8c0-0.4-0.4-0.8-0.8-0.8
					c-0.4,0-0.8,0.3-0.8,0.8c0,0.2,0.1,0.5,0.3,0.6c-0.2-0.1-0.4-0.1-0.6-0.1C510.6-345.9,509.7-345,509.7-343.8 M512.6-331.3
					c-0.3,0-0.5,0.2-0.5,0.5c0-0.4-0.3-0.7-0.7-0.7c-0.4,0-0.7,0.3-0.7,0.7c0,0.4,0.3,0.7,0.7,0.7c0,0,0,0,0,0
					c-0.2,0.1-0.4,0.4-0.4,0.7c0,0.4,0.4,0.8,0.8,0.8c0.4,0,0.8-0.4,0.8-0.8c0-0.4-0.4-0.8-0.8-0.8c0,0,0,0,0,0
					c0.2-0.1,0.4-0.3,0.4-0.6c0,0.3,0.2,0.5,0.5,0.5c0.3,0,0.5-0.2,0.5-0.5C513.1-331.1,512.9-331.3,512.6-331.3 M511.7-328.2
					c-0.8,0-1.4,0.6-1.4,1.4c0,0.8,0.6,1.4,1.4,1.4c0.8,0,1.4-0.6,1.4-1.4C513.1-327.6,512.5-328.2,511.7-328.2 M526.6-311.7
					c0-0.7-0.5-1.2-1.2-1.2c-0.7,0-1.2,0.5-1.2,1.2c0,0.3,0.1,0.6,0.3,0.8c-0.4,0.2-0.7,0.7-0.7,1.2c0,0.7,0.6,1.3,1.3,1.3
					s1.3-0.6,1.3-1.3c0-0.4-0.2-0.7-0.4-1C526.4-311,526.6-311.3,526.6-311.7 M531-327.4c0,0.6,0.3,1.1,0.7,1.5v-3
					C531.2-328.5,531-328,531-327.4 M531.7-300.8v-2.8c-0.5,0.2-0.9,0.8-0.9,1.4C530.8-301.6,531.1-301,531.7-300.8 M525.5-331.6
					c-0.3,0-0.5,0.2-0.5,0.5s0.2,0.5,0.5,0.5s0.5-0.2,0.5-0.5S525.8-331.6,525.5-331.6 M531.2-316.8c0-0.3-0.3-0.6-0.6-0.6
					c-0.3,0-0.6,0.3-0.6,0.6c0,0.3,0.3,0.6,0.6,0.6C531-316.2,531.2-316.5,531.2-316.8 M501.9-354.5c-0.7,0-1.3,0.6-1.3,1.3
					c0,0.7,0.6,1.3,1.3,1.3c0.7,0,1.3-0.6,1.3-1.3C503.2-353.9,502.6-354.5,501.9-354.5 M528.3-315.3c-0.4,0-0.6,0.3-0.6,0.6
					c0,0.4,0.3,0.6,0.6,0.6c0.4,0,0.6-0.3,0.6-0.6C529-315,528.7-315.3,528.3-315.3 M527.8-325.4c-0.4,0-0.8,0.3-0.9,0.6
					c-0.1,0-0.1,0-0.2,0c-0.4,0-0.7,0.3-0.7,0.7c0,0.4,0.3,0.7,0.7,0.7c0.2,0,0.4-0.1,0.6-0.3c0.2,0.1,0.3,0.2,0.5,0.2
					c0.5,0,1-0.4,1-1S528.4-325.4,527.8-325.4 M529.3-307.3c0,1,0.9,1.9,1.9,1.9c0,0,0,0,0.1,0c0.1,0.2,0.2,0.3,0.4,0.4v-4.1
					c-0.1,0-0.3-0.1-0.4-0.1C530.2-309.2,529.3-308.3,529.3-307.3 M530.6-297.8c0.4,0,0.8-0.2,1.1-0.4v-2.3
					c-0.3-0.2-0.6-0.4-1.1-0.4c-0.2,0-0.4,0-0.5,0.1c-0.2-0.8-0.9-1.4-1.8-1.4c-1,0-1.8,0.8-1.8,1.8s0.8,1.8,1.8,1.8
					c0.3,0,0.6-0.1,0.8-0.2C529.3-298.3,529.9-297.8,530.6-297.8 M529.1-335.9c0,0.3,0.3,0.6,0.6,0.6c0.2,0,0.3-0.1,0.4-0.2
					c0.3,0.3,0.7,0.4,1.2,0.4c0.2,0,0.3,0,0.4-0.1v-3.5c-0.1,0-0.3-0.1-0.4-0.1c-1,0-1.8,0.8-1.8,1.8c0,0.1,0,0.3,0,0.4
					C529.2-336.4,529.1-336.2,529.1-335.9 M528.4-290.8c0,0.3,0.3,0.6,0.6,0.6c0.3,0,0.6-0.3,0.6-0.6c0-0.3-0.3-0.6-0.6-0.6
					C528.7-291.3,528.4-291.1,528.4-290.8 M524.5-325.3c0-0.4-0.3-0.7-0.7-0.7c-0.4,0-0.7,0.3-0.7,0.7c0,0.4,0.3,0.7,0.7,0.7
					C524.2-324.6,524.5-324.9,524.5-325.3 M520.9-317.9c0,0.8,0.6,1.4,1.4,1.4c0.5,0,1-0.3,1.3-0.7c0,0.3,0.3,0.6,0.7,0.6
					c0.4,0,0.7-0.3,0.7-0.7c0-0.4-0.3-0.7-0.7-0.7c-0.2,0-0.4,0.1-0.5,0.2c0,0,0,0,0,0c0.2-0.1,0.4-0.3,0.4-0.6
					c0-0.3-0.3-0.6-0.6-0.6c-0.1,0-0.2,0-0.2,0.1c-0.3-0.3-0.6-0.4-1-0.4C521.6-319.3,520.9-318.7,520.9-317.9 M528.4-322.7
					c-0.9,0-1.7,0.8-1.7,1.7c0,0.9,0.8,1.7,1.7,1.7c0.2,0,0.3,0,0.5-0.1c0.1,0.8,0.7,1.3,1.4,1.3c0.6,0,1.1-0.4,1.3-0.9c0,0,0,0,0,0
					v-1.1c-0.2-0.6-0.7-1-1.4-1c-0.1,0-0.2,0-0.3,0c0,0,0-0.1,0-0.1C530.1-321.9,529.3-322.7,528.4-322.7 M525.6-304.5
					c0-0.6-0.5-1.1-1.1-1.1c-0.6,0-1.1,0.5-1.1,1.1c0,0.6,0.5,1.1,1.1,1.1C525.1-303.5,525.6-303.9,525.6-304.5 M526.7-328.4
					c0,0.7,0.6,1.3,1.4,1.3c0.8,0,1.4-0.6,1.4-1.3c0-0.7-0.6-1.3-1.4-1.3C527.3-329.8,526.7-329.1,526.7-328.4 M531.2-339.4
					c0.2,0,0.3,0,0.5-0.1v-2.6c-0.2-0.1-0.3-0.1-0.5-0.1c-0.8,0-1.4,0.6-1.4,1.4C529.8-340.1,530.4-339.4,531.2-339.4 M521.9-339
					c-1,0-1.8,0.8-1.8,1.8c0,0.8,0.6,1.5,1.3,1.7c-0.5,0.1-0.9,0.5-0.9,1c0,0.4,0.2,0.7,0.5,0.9c0.3,0.5,0.8,0.8,1.4,0.8
					c0.8,0,1.5-0.7,1.5-1.5c0-0.5-0.2-0.9-0.6-1.2c-0.1-0.1-0.1-0.3-0.3-0.3c0.4-0.3,0.7-0.8,0.7-1.4
					C523.7-338.2,522.9-339,521.9-339 M517.5-340c-0.4,0-0.7,0.3-0.7,0.7c0,0.4,0.3,0.7,0.7,0.7c0.4,0,0.7-0.3,0.7-0.7
					C518.2-339.7,517.9-340,517.5-340 M525.6-422.5c-0.5,0-0.8,0.4-0.8,0.8s0.4,0.8,0.8,0.8s0.8-0.4,0.8-0.8
					S526.1-422.5,525.6-422.5 M515.3-302.1c0,0.3,0.3,0.6,0.6,0.6c0.3,0,0.6-0.3,0.6-0.6c0-0.3-0.3-0.6-0.6-0.6
					C515.6-302.7,515.3-302.4,515.3-302.1 M531-345.6c-0.6,0-1.2,0.5-1.2,1.2c0,0.6,0.5,1.2,1.2,1.2c0.3,0,0.5-0.1,0.7-0.2v-2.5
					c-0.1,0.2-0.2,0.3-0.2,0.5C531.3-345.5,531.2-345.6,531-345.6 M522.4-302.2c0,0.4,0.3,0.8,0.8,0.8c0.4,0,0.8-0.3,0.8-0.8
					c0-0.4-0.3-0.8-0.8-0.8C522.7-302.9,522.4-302.6,522.4-302.2 M531.7-294.9C531.7-294.8,531.7-294.8,531.7-294.9
					c0,0.1,0,0.1,0,0.1V-294.9z M517-288.3c0.6,0,1.1-0.5,1.1-1.1c0-0.6-0.5-1.1-1.1-1.1c-0.6,0-1.1,0.5-1.1,1.1
					C515.9-288.8,516.4-288.3,517-288.3 M526-301.3c0.6,0,1.1-0.5,1.1-1.1c0-0.6-0.5-1.1-1.1-1.1c-0.6,0-1.1,0.5-1.1,1.1
					C524.9-301.8,525.4-301.3,526-301.3 M526.1-296.5c0.6,0,1-0.4,1-1c0-0.5-0.4-1-1-1c-0.6,0-1,0.4-1,1
					C525.1-296.9,525.5-296.5,526.1-296.5 M525.2-299.3c0,0.3,0.3,0.6,0.6,0.6c0.3,0,0.6-0.3,0.6-0.6c0-0.3-0.3-0.6-0.6-0.6
					C525.4-299.9,525.2-299.6,525.2-299.3 M520.5-296.8c0.3,0,0.5-0.2,0.5-0.5c0-0.3-0.2-0.5-0.5-0.5c-0.3,0-0.5,0.2-0.5,0.5
					C520-297.1,520.2-296.8,520.5-296.8 M492.7-355.2c0-0.4-0.3-0.8-0.8-0.8c-0.4,0-0.8,0.3-0.8,0.8c0,0.4,0.3,0.8,0.8,0.8
					C492.4-354.4,492.7-354.8,492.7-355.2 M489.8-334.4c-0.3,0-0.5,0.2-0.5,0.5c0,0.3,0.2,0.5,0.5,0.5c0.3,0,0.5-0.2,0.5-0.5
					C490.3-334.1,490.1-334.4,489.8-334.4 M491.8-336.6c0.8,0,1.5-0.7,1.5-1.5c0-0.8-0.7-1.5-1.5-1.5c-0.8,0-1.5,0.7-1.5,1.5
					C490.3-337.2,491-336.6,491.8-336.6 M490.6-372.4c-0.8,0-1.4,0.6-1.4,1.4s0.6,1.4,1.4,1.4c0.8,0,1.4-0.6,1.4-1.4
					S491.4-372.4,490.6-372.4 M490.3-384.1c-0.8,0-1.4,0.6-1.4,1.4c0,0.8,0.6,1.4,1.4,1.4c0.8,0,1.4-0.6,1.4-1.4
					C491.7-383.5,491.1-384.1,490.3-384.1 M490.5-327.5c0.6,0,1-0.3,1.3-0.8c0.7,0,1.3-0.6,1.3-1.4c0.2,0.1,0.5,0.2,0.8,0.2
					c1.2,0,2.2-1,2.2-2.2c0-1.2-1-2.2-2.2-2.2c-1.2,0-2.2,1-2.2,2.2c0,0.2,0,0.4,0.1,0.6c0,0-0.1,0-0.1,0c0,0-0.1,0-0.1,0
					c-0.1-0.1-0.2-0.1-0.4-0.1c-0.3,0-0.6,0.2-0.6,0.6c0,0,0,0,0,0c-0.1,0.1-0.2,0.2-0.2,0.3c-0.8,0-1.4,0.6-1.4,1.4
					C489-328.1,489.7-327.5,490.5-327.5 M489.1-342c0,0.6,0.5,1.1,1.1,1.1c0.6,0,1.1-0.5,1.1-1.1c0-0.6-0.5-1.1-1.1-1.1
					C489.6-343.1,489.1-342.6,489.1-342 M502.7-399.4c-0.7,0-1.3,0.6-1.3,1.3c0,0.7,0.6,1.3,1.3,1.3c0.7,0,1.3-0.6,1.3-1.3
					C504-398.9,503.4-399.4,502.7-399.4 M501-385.7c0,0.3,0.2,0.5,0.5,0.5c0.3,0,0.5-0.2,0.5-0.5s-0.2-0.5-0.5-0.5
					C501.3-386.2,501-385.9,501-385.7 M495.2-353.5c0,0.3,0.3,0.6,0.6,0.6c0.3,0,0.6-0.3,0.6-0.6c0-0.3-0.3-0.6-0.6-0.6
					C495.5-354.1,495.2-353.9,495.2-353.5 M504.6-379.7c0.1,0,0.1,0,0.2,0c0.3,0,0.5-0.2,0.5-0.5c0-0.3-0.2-0.5-0.5-0.5c0,0,0,0,0,0
					c-0.1-0.8-0.8-1.4-1.6-1.4c-0.9,0-1.6,0.7-1.6,1.6c0,0.9,0.7,1.6,1.6,1.6C503.8-378.9,504.3-379.2,504.6-379.7 M502.6-377.6
					c0-0.3-0.3-0.6-0.6-0.6s-0.6,0.3-0.6,0.6c0,0.3,0.3,0.6,0.6,0.6S502.6-377.2,502.6-377.6 M499.5-366.9c-1.1,0-1.9,0.9-1.9,1.9
					c0,0.7,0.4,1.3,1,1.6c0,0.1,0,0.1,0,0.2c0,0.5,0.4,0.9,0.9,0.9c0.5,0,0.9-0.4,0.9-0.9c0,0,0-0.1,0-0.1c0.7-0.3,1.1-1,1.1-1.7
					C501.5-366.1,500.6-366.9,499.5-366.9 M495.6-367.3c0,0.7,0.5,1.2,1.2,1.2c0.7,0,1.2-0.5,1.2-1.2c0-0.6-0.5-1.2-1.2-1.2
					C496.2-368.4,495.6-367.9,495.6-367.3 M530.8-409.3c0,0.7,0.4,1.3,0.9,1.6v-3.3C531.1-410.6,530.8-410,530.8-409.3 M526.1-396.4
					c0,1.1,0.9,1.9,1.9,1.9c1.1,0,1.9-0.9,1.9-1.9c0-1.1-0.9-1.9-1.9-1.9C526.9-398.3,526.1-397.5,526.1-396.4 M525.2-408.6
					c0-0.3-0.3-0.6-0.6-0.6c-0.3,0-0.6,0.2-0.6,0.6c0,0.3,0.3,0.6,0.6,0.6C524.9-408.1,525.2-408.3,525.2-408.6 M526-404.5
					c-0.2,0-0.3,0.1-0.4,0.1c0-0.1,0-0.2,0-0.3c0-0.9-0.7-1.6-1.6-1.6s-1.6,0.7-1.6,1.6c0,0.2,0,0.4,0.1,0.6c-0.6,0.3-1,0.9-1,1.7
					c0,0.8,0.5,1.5,1.2,1.8c0,0.4,0.3,0.7,0.7,0.7c0.4,0,0.7-0.3,0.7-0.7c0.7-0.3,1.2-1,1.2-1.8c0-0.4-0.1-0.8-0.3-1.1
					c0,0,0,0,0.1-0.1c0,0.4,0.4,0.8,0.8,0.8c0.5,0,0.9-0.4,0.9-0.8S526.5-404.5,526-404.5 M492.7-325.1c0.7,0,1.3-0.6,1.3-1.3
					c0-0.7-0.6-1.3-1.3-1.3c-0.7,0-1.3,0.6-1.3,1.3C491.4-325.7,492-325.1,492.7-325.1 M517.7-381.9c-0.3,0-0.5,0.2-0.5,0.5
					c0,0.3,0.2,0.5,0.5,0.5c0.3,0,0.5-0.2,0.5-0.5C518.2-381.7,518-381.9,517.7-381.9 M502.5-361.8c-0.3,0-0.6,0.3-0.6,0.6
					c0,0.3,0.3,0.6,0.6,0.6c0.3,0,0.6-0.3,0.6-0.6C503.1-361.5,502.8-361.8,502.5-361.8 M530.6-385.7c-0.6,0.2-1.1,0.8-1.1,1.5
					c0,0.9,0.7,1.6,1.6,1.6c0.2,0,0.4,0,0.5-0.1v-3.3c-0.1-0.1-0.3-0.2-0.5-0.2C530.9-386.2,530.7-386,530.6-385.7 M531.2-392.2
					c0,0.3,0.2,0.6,0.5,0.6v-1.3C531.4-392.8,531.2-392.5,531.2-392.2 M528.1-286.5c0-0.4-0.3-0.7-0.7-0.7s-0.7,0.3-0.7,0.7
					c0,0,0,0.1,0,0.1h1.4C528.1-286.4,528.1-286.5,528.1-286.5 M502.4-325.5c0.3,0,0.6-0.3,0.6-0.6c0-0.3-0.3-0.6-0.6-0.6
					c-0.3,0-0.6,0.3-0.6,0.6C501.8-325.8,502-325.5,502.4-325.5 M530.8-377.9c0.3,0,0.7-0.1,0.9-0.3v-2.7c0,0-0.1,0-0.1,0.1
					c-0.2-0.1-0.5-0.2-0.8-0.2c-0.9,0-1.6,0.7-1.6,1.6C529.2-378.7,529.9-377.9,530.8-377.9 M508.1-331.4c0-0.1-0.1-0.3-0.1-0.4
					c0.2-0.3,0.4-0.7,0.4-1.1c0-0.9-0.8-1.7-1.7-1.7c-0.4,0-0.7,0.1-1,0.3c-0.2-0.1-0.4-0.2-0.7-0.2c-0.9,0-1.6,0.7-1.6,1.6
					c0,0.9,0.7,1.6,1.6,1.6c0.3,0,0.7-0.1,0.9-0.3c0.2,0.1,0.5,0.2,0.8,0.2c0,0,0,0,0.1,0c0.1,0.3,0.3,0.5,0.6,0.5
					C507.8-330.7,508.1-331,508.1-331.4 M507.1-328.6c0-0.3-0.2-0.5-0.5-0.5c-0.3,0-0.5,0.2-0.5,0.5c0,0.3,0.2,0.5,0.5,0.5
					C506.9-328.1,507.1-328.4,507.1-328.6 M510.3-379c0,0.8,0.6,1.4,1.4,1.4c0.8,0,1.4-0.6,1.4-1.4c0-0.8-0.6-1.4-1.4-1.4
					C511-380.3,510.3-379.7,510.3-379 M507.7-372.7c0,0.9,0.7,1.6,1.7,1.6s1.7-0.7,1.7-1.6c0-0.9-0.7-1.6-1.7-1.6
					S507.7-373.6,507.7-372.7 M517.9-422.9c0-0.8-0.7-1.5-1.5-1.5c-0.8,0-1.5,0.7-1.5,1.5c0,0.8,0.7,1.5,1.5,1.5
					C517.3-421.5,517.9-422.1,517.9-422.9 M511.9-393.6c0,1,0.8,1.9,1.9,1.9c1,0,1.9-0.8,1.9-1.9c0-1-0.9-1.9-1.9-1.9
					C512.8-395.5,511.9-394.7,511.9-393.6 M505.4-364.3c0,0.9,0.7,1.5,1.6,1.5c0.2,0,0.4,0,0.5-0.1c0,0,0,0.1,0,0.1
					c0,0.5,0.4,0.9,0.9,0.9c0.5,0,0.9-0.4,0.9-0.9c0-0.5-0.4-0.9-0.9-0.9c0,0,0,0,0,0c0.1-0.2,0.2-0.4,0.2-0.7
					c0-0.8-0.7-1.5-1.6-1.5C506.1-365.8,505.4-365.1,505.4-364.3 M504-360.8c-0.7,0.2-1.3,0.8-1.3,1.6c0,0.9,0.8,1.7,1.7,1.7
					c0.6,0,1.1-0.3,1.4-0.7c0,0,0,0,0,0c1.1,0,1.9-0.9,1.9-1.9c0-1.1-0.9-1.9-1.9-1.9C504.9-362.1,504.2-361.6,504-360.8
					 M526.2-389.4c-0.4,0-0.8,0.3-0.8,0.7c0,0.4,0.3,0.7,0.8,0.7c0.4,0,0.8-0.3,0.8-0.7C526.9-389.1,526.6-389.4,526.2-389.4
					 M518.5-364.2c0,0.3,0.3,0.6,0.6,0.6c0.4,0,0.6-0.3,0.6-0.6c0-0.3-0.3-0.6-0.6-0.6C518.8-364.8,518.5-364.6,518.5-364.2
					 M527.9-388.4c-0.9,0-1.5,0.7-1.5,1.5c0,0.8,0.7,1.5,1.5,1.5c0.9,0,1.5-0.7,1.5-1.5C529.4-387.7,528.7-388.4,527.9-388.4
					 M515.6-373.8c0,0.6,0.5,1.1,1.1,1.1c0.6,0,1.1-0.5,1.1-1.1s-0.5-1.1-1.1-1.1C516.1-374.9,515.6-374.4,515.6-373.8 M516.6-352.7
					c0,0.3,0.1,0.6,0.2,0.8c-0.2,0.2-0.3,0.5-0.3,0.9c0,0.8,0.6,1.4,1.4,1.4c0.8,0,1.4-0.6,1.4-1.3c0.7-0.3,1.2-1,1.2-1.8
					c0-1.1-0.9-1.9-1.9-1.9C517.5-354.7,516.6-353.8,516.6-352.7 M525.3-336.4c-0.2,0-0.4,0.2-0.4,0.4c0,0.2,0.2,0.4,0.4,0.4
					s0.4-0.2,0.4-0.4C525.7-336.2,525.5-336.4,525.3-336.4 M470.8-347.7c0-1.1-0.9-2-2-2c-1.1,0-2,0.9-2,2c0,1.1,0.9,2,2,2
					C469.9-345.7,470.8-346.6,470.8-347.7 M486.9-387.5c0,0.8,0.6,1.5,1.4,1.6c0.3,0.3,0.7,0.5,1.1,0.5c0.9,0,1.6-0.7,1.6-1.6
					c0-0.8-0.6-1.5-1.4-1.6c-0.3-0.3-0.7-0.5-1.1-0.5C487.7-389.2,486.9-388.4,486.9-387.5 M471.3-421.7c0,1,0.8,1.8,1.8,1.8
					c1,0,1.8-0.8,1.8-1.8c0-1-0.8-1.8-1.8-1.8C472.1-423.5,471.3-422.7,471.3-421.7 M489.9-361.4c0-0.4-0.3-0.7-0.7-0.7
					c-0.3,0-0.5,0.2-0.6,0.5c-0.2-0.1-0.5-0.2-0.8-0.2c-0.9,0-1.5,0.7-1.5,1.5c0,0.8,0.7,1.5,1.5,1.5c0.9,0,1.5-0.7,1.5-1.5
					c0-0.2,0-0.3-0.1-0.5C489.7-360.8,489.9-361,489.9-361.4 M474.7-434.9c0-0.7-0.5-1.2-1.2-1.2c-0.7,0-1.2,0.5-1.2,1.2
					c0,0.7,0.5,1.2,1.2,1.2C474.2-433.7,474.7-434.3,474.7-434.9 M465.7-349c1,0,1.8-0.8,1.8-1.8c0-1-0.8-1.8-1.8-1.8
					c-1,0-1.8,0.8-1.8,1.8C463.9-349.8,464.7-349,465.7-349 M462.4-371.9c0,0.4,0.3,0.7,0.7,0.7s0.7-0.3,0.7-0.7
					c0-0.4-0.3-0.7-0.7-0.7S462.4-372.3,462.4-371.9 M462.8-359.9c0.4,0,0.7-0.3,0.7-0.7c0-0.4-0.3-0.7-0.7-0.7
					c-0.4,0-0.7,0.3-0.7,0.7C462.1-360.2,462.4-359.9,462.8-359.9 M463.9-354.1c0.5,0,1-0.4,1-1c0-0.5-0.4-1-1-1c-0.5,0-1,0.4-1,1
					C462.9-354.5,463.3-354.1,463.9-354.1 M530.2-423.1c0.6,0,1.1-0.5,1.1-1.1c0-0.6-0.5-1.1-1.1-1.1c-0.6,0-1.1,0.5-1.1,1.1
					C529.1-423.6,529.6-423.1,530.2-423.1 M464.5-397.2c-0.9,0-1.6,0.7-1.6,1.6c0,0.9,0.7,1.6,1.6,1.6s1.6-0.7,1.6-1.6
					C466.2-396.5,465.4-397.2,464.5-397.2 M526.9-411.8c0,0.3,0.1,0.5,0.3,0.7c0.2,0.9,0.9,1.5,1.9,1.5c1.1,0,1.9-0.9,1.9-1.9
					c0-1-0.9-1.9-1.9-1.9c-0.5,0-1,0.2-1.4,0.6C527.2-412.7,526.9-412.3,526.9-411.8 M506.3-379.8c0,1.1,0.9,2.1,2.1,2.1
					c1.2,0,2.1-0.9,2.1-2.1c0-1.1-0.9-2.1-2.1-2.1C507.2-381.9,506.3-381,506.3-379.8 M510.1-430.4c0-0.3-0.3-0.6-0.6-0.6
					c-0.3,0-0.6,0.3-0.6,0.6c0,0.3,0.3,0.6,0.6,0.6C509.9-429.8,510.1-430.1,510.1-430.4 M508.2-389.7c-0.6,0-1,0.5-1,1
					c0,0.6,0.5,1,1,1c0.6,0,1-0.5,1-1C509.2-389.2,508.7-389.7,508.2-389.7 M490.2-435.3c0-0.4-0.3-0.7-0.7-0.7
					c-0.4,0-0.7,0.3-0.7,0.7c0,0.4,0.3,0.7,0.7,0.7C489.9-434.7,490.2-435,490.2-435.3 M513.1-431.8c0,1,0.9,1.9,1.9,1.9
					s1.9-0.8,1.9-1.9c0-0.6-0.2-1-0.6-1.4c0,0,0.1,0,0.1,0c0.7,0,1.2-0.5,1.2-1.2c0-0.7-0.5-1.2-1.2-1.2c-0.7,0-1.2,0.5-1.2,1.2
					c0,0.3,0.1,0.5,0.3,0.7c-0.2,0-0.3-0.1-0.5-0.1C514-433.7,513.1-432.8,513.1-431.8 M511.1-409.1c0,0.4,0.3,0.8,0.8,0.8
					c0.4,0,0.8-0.3,0.8-0.7c0.1,0.1,0.3,0.1,0.5,0.1c0.6,0,1.2-0.5,1.2-1.2c0-0.6-0.5-1.2-1.2-1.2c-0.6,0-1.2,0.5-1.2,1.2
					c0,0.1,0,0.2,0.1,0.3c0,0-0.1,0-0.1,0C511.4-409.9,511.1-409.5,511.1-409.1 M472.7-428.2c0,0.3,0.2,0.5,0.5,0.5
					c0.3,0,0.5-0.2,0.5-0.5s-0.2-0.5-0.5-0.5C472.9-428.7,472.7-428.5,472.7-428.2 M455.5-345.6c0,0.6,0.5,1.2,1.2,1.2
					s1.2-0.5,1.2-1.2c0-0.6-0.5-1.2-1.2-1.2S455.5-346.3,455.5-345.6 M456.7-325.5c0-0.5-0.4-1-1-1c-0.5,0-1,0.4-1,1
					c0,0.5,0.4,1,1,1C456.2-324.5,456.7-324.9,456.7-325.5 M455.3-338.2c-0.6,0-1.2,0.5-1.2,1.1c0,0.6,0.5,1.1,1.2,1.1
					c0.6,0,1.2-0.5,1.2-1.1C456.5-337.7,456-338.2,455.3-338.2 M456.9-379.7c0,0.5,0.4,0.8,0.8,0.8c0.5,0,0.8-0.4,0.8-0.8
					c0-0.5-0.4-0.8-0.8-0.8C457.3-380.5,456.9-380.2,456.9-379.7 M458.3-388.7c-0.4,0-0.8,0.3-0.8,0.8c0,0.4,0.3,0.8,0.8,0.8
					c0.4,0,0.8-0.3,0.8-0.8C459.1-388.4,458.7-388.7,458.3-388.7 M456.3-363.4c0-0.3-0.2-0.5-0.6-0.5c-0.3,0-0.6,0.2-0.6,0.5
					c0,0.3,0.2,0.5,0.6,0.5C456.1-362.8,456.3-363.1,456.3-363.4 M458.3-337.6c-0.3,0-0.6,0.3-0.6,0.6c0,0.3,0.3,0.6,0.6,0.6
					s0.6-0.3,0.6-0.6C458.9-337.3,458.6-337.6,458.3-337.6 M529.3-439.7c0,0.6,0.5,1.1,1.1,1.1s1.1-0.5,1.1-1.1c0-0.2,0-0.3-0.1-0.4
					h-2.1C529.3-440,529.3-439.9,529.3-439.7 M457.9-343.4c-0.8,0-1.4,0.6-1.4,1.4c0,0.1,0,0.3,0.1,0.4c-0.1,0-0.2-0.1-0.3-0.1
					c-0.7,0-1.2,0.5-1.2,1.2c0,0.7,0.5,1.2,1.2,1.2c0.7,0,1.2-0.5,1.2-1.2c0-0.1,0-0.1,0-0.2c0.1,0,0.3,0.1,0.4,0.1
					c0.8,0,1.4-0.6,1.4-1.4C459.2-342.8,458.6-343.4,457.9-343.4 M464.2-381.1c0,0.6,0.5,1.1,1.1,1.1c0.6,0,1.1-0.5,1.1-1.1
					c0-0.6-0.5-1.1-1.1-1.1C464.7-382.2,464.2-381.7,464.2-381.1 M464.7-365.6c0,0.7,0.6,1.2,1.2,1.2c0.7,0,1.2-0.6,1.2-1.2
					c0-0.7-0.6-1.2-1.2-1.2C465.3-366.9,464.7-366.3,464.7-365.6 M466.9-370c-0.2,0-0.4,0-0.6,0.1c-0.1-0.4-0.5-0.7-1-0.7
					c-0.6,0-1,0.4-1,1c0,0.5,0.4,1,1,1c0,0.1,0,0.1,0,0.2c0,0.9,0.7,1.6,1.6,1.6c0.9,0,1.6-0.7,1.6-1.6
					C468.5-369.3,467.8-370,466.9-370 M469.3-374.7c0.5,0,0.9-0.4,0.9-0.9c0-0.5-0.4-0.9-0.9-0.9c-0.5,0-0.9,0.4-0.9,0.9
					C468.4-375.1,468.8-374.7,469.3-374.7 M466.8-386.7c0-0.4-0.3-0.6-0.7-0.6s-0.7,0.3-0.7,0.6c0,0.4,0.3,0.6,0.7,0.6
					S466.8-386.3,466.8-386.7 M455.9-390.5c-0.4,0-0.8,0.3-0.8,0.7c0,0.4,0.3,0.7,0.8,0.7c0.4,0,0.8-0.3,0.8-0.7
					C456.6-390.1,456.3-390.5,455.9-390.5 M467.3-410c-0.3,0-0.6,0.2-0.6,0.6c0,0.3,0.3,0.6,0.6,0.6c0.3,0,0.6-0.2,0.6-0.6
					C467.9-409.7,467.7-410,467.3-410 M453.6-360.1c0,0.4,0.3,0.8,0.8,0.8c0.4,0,0.8-0.3,0.8-0.8c0-0.4-0.3-0.8-0.8-0.8
					C453.9-360.8,453.6-360.5,453.6-360.1 M454.7-384c0,0.3,0.3,0.6,0.6,0.6c0.3,0,0.6-0.3,0.6-0.6c0-0.3-0.3-0.6-0.6-0.6
					C455-384.5,454.7-384.3,454.7-384 M452.9-329.5c0,0.7,0.6,1.3,1.4,1.3c0.8,0,1.4-0.6,1.4-1.3c0-0.7-0.6-1.3-1.4-1.3
					C453.5-330.8,452.9-330.2,452.9-329.5 M464.5-389c0,0.8,0.6,1.4,1.4,1.4c0.8,0,1.4-0.6,1.4-1.4c0-0.8-0.6-1.4-1.4-1.4
					C465.2-390.4,464.5-389.8,464.5-389 M527.3-347.7c0.6,0,1.2-0.5,1.2-1.1c0-0.6-0.5-1.1-1.2-1.1c-0.6,0-1.2,0.5-1.2,1.1
					C526.1-348.2,526.6-347.7,527.3-347.7 M468.9-372c0.3,0,0.5-0.2,0.5-0.5c0-0.3-0.2-0.5-0.5-0.5c-0.3,0-0.5,0.2-0.5,0.5
					C468.4-372.2,468.6-372,468.9-372 M461.5-402.5c0.3,0.2,0.6,0.4,1,0.4c0.9,0,1.6-0.7,1.6-1.6c0-0.3-0.1-0.5-0.2-0.7
					c0.3-0.3,0.5-0.7,0.5-1.2c0-0.9-0.7-1.6-1.6-1.6s-1.6,0.7-1.6,1.6c0,0.2,0.1,0.5,0.2,0.7c-0.1,0.1-0.2,0.2-0.3,0.3
					c-0.4-0.4-0.9-0.6-1.4-0.6c-1.1,0-1.9,0.9-1.9,1.9c0,0.4,0.1,0.7,0.3,1c-0.3,0.1-0.4,0.4-0.4,0.7c0,0.4,0.3,0.7,0.8,0.7
					c0.4,0,0.7-0.3,0.7-0.6c0.2,0.1,0.4,0.1,0.6,0.1C460.5-401.5,461.2-401.9,461.5-402.5 M516.2-354.7c0.3,0,0.5-0.2,0.5-0.5
					c0-0.3-0.2-0.5-0.5-0.5s-0.5,0.2-0.5,0.5C515.7-355,515.9-354.7,516.2-354.7 M515.1-342.6c-0.3,0-0.6,0.2-0.6,0.5
					s0.2,0.5,0.6,0.5c0.3,0,0.5-0.2,0.5-0.5S515.4-342.6,515.1-342.6 M515.9-365.5c-0.8,0-1.5,0.6-1.5,1.4c0,0.8,0.7,1.4,1.5,1.4
					c0.8,0,1.5-0.6,1.5-1.4C517.3-364.8,516.7-365.5,515.9-365.5 M517.7-360.4c0-0.7-0.6-1.2-1.2-1.2c-0.7,0-1.2,0.6-1.2,1.2
					c0,0.7,0.6,1.2,1.2,1.2C517.1-359.2,517.7-359.7,517.7-360.4 M523.4-366.6c-1.3,0-2.3,1-2.3,2.3c0,1.2,1,2.3,2.3,2.3
					c0.7,0,1.3-0.3,1.7-0.8c0,0,0,0.1,0,0.1c0,0.4,0.3,0.7,0.7,0.7s0.7-0.3,0.7-0.7c0-0.4-0.3-0.7-0.7-0.7c-0.1,0-0.3,0-0.4,0.1
					c0.2-0.3,0.3-0.6,0.3-1C525.7-365.6,524.6-366.6,523.4-366.6 M521.4-368.5c-0.4,0-0.7,0.3-0.7,0.7c0,0.4,0.3,0.7,0.7,0.7
					c0.4,0,0.7-0.3,0.7-0.7C522.1-368.2,521.8-368.5,521.4-368.5 M516.7-345.4c0,0.4,0.1,0.7,0.2,1c0,0,0,0.1,0,0.1
					c0,0.3,0.3,0.6,0.6,0.6c0,0,0,0,0.1,0c0.4,0.3,0.8,0.4,1.3,0.4c0.3,0,0.6-0.1,0.9-0.2c0,0.7,0.6,1.3,1.4,1.3
					c0.2,0,0.4,0,0.5-0.1c0.1,0,0.1,0.1,0.2,0.1c0.2,0,0.4-0.2,0.4-0.4c0-0.1,0-0.1,0-0.2c0.1-0.2,0.2-0.5,0.2-0.8
					c0-0.8-0.6-1.4-1.4-1.4c-0.1,0-0.1,0-0.2,0c0-0.2,0.1-0.3,0.1-0.5c0-0.4-0.1-0.8-0.3-1.1c0.3,0.3,0.8,0.5,1.3,0.5
					c1.1,0,1.9-0.9,1.9-1.9c0-0.5-0.2-0.9-0.5-1.2c0.1,0.1,0.3,0.2,0.5,0.2c0.5,0,0.9-0.4,0.9-0.9c0-0.5-0.4-0.9-0.9-0.9
					c-0.5,0-0.9,0.4-0.9,0.9c0,0.2,0.1,0.3,0.2,0.5c-0.3-0.3-0.8-0.5-1.3-0.5c-1.1,0-1.9,0.9-1.9,1.9c0,0.4,0.1,0.7,0.3,1
					c-0.4-0.3-0.9-0.5-1.4-0.5C517.6-347.5,516.7-346.6,516.7-345.4 M513.1-333.2c0,1,0.8,1.7,1.7,1.7c1,0,1.7-0.8,1.7-1.7
					c0-0.3-0.1-0.5-0.2-0.7c0.1-0.2,0.1-0.3,0.1-0.5c0-0.6-0.5-1.2-1.2-1.2c-0.5,0-0.9,0.3-1.1,0.8
					C513.6-334.6,513.1-334,513.1-333.2 M502.6-348.2c0,0.5,0.2,0.9,0.6,1.2c-0.1-0.1-0.2-0.1-0.3-0.1c-0.3,0-0.5,0.2-0.5,0.5
					c0,0.3,0.2,0.5,0.5,0.5c0.3,0,0.5-0.2,0.5-0.5c0-0.1-0.1-0.3-0.1-0.4c0.2,0.2,0.5,0.2,0.8,0.2c0.5,0,0.9-0.2,1.2-0.6
					c0,0.1-0.1,0.2-0.1,0.3c0,0.2,0.2,0.4,0.4,0.5c-0.5,0.3-0.9,0.8-0.9,1.4c0,0.9,0.7,1.6,1.6,1.6c0.9,0,1.6-0.7,1.6-1.6
					s-0.7-1.6-1.6-1.6c-0.1,0-0.1,0-0.2,0c0.1-0.1,0.1-0.2,0.1-0.3c0-0.3-0.2-0.5-0.5-0.5c-0.1,0-0.3,0.1-0.4,0.1
					c0.1-0.2,0.2-0.5,0.2-0.8c0-0.8-0.7-1.5-1.5-1.5C503.3-349.8,502.6-349.1,502.6-348.2 M507-353.8c0,1,0.8,1.9,1.8,2
					c0,0.1-0.1,0.2-0.1,0.4c0,0.6,0.5,1.1,1.1,1.1c0.6,0,1.1-0.5,1.1-1.1c0-0.4-0.2-0.8-0.6-1c0.3-0.4,0.5-0.8,0.5-1.4c0,0,0,0,0,0
					c0.3,0.2,0.7,0.4,1,0.4c1,0,1.7-0.8,1.7-1.7c0-1-0.8-1.7-1.7-1.7c-0.9,0-1.7,0.7-1.7,1.7c-0.4-0.3-0.8-0.5-1.3-0.5
					C507.9-355.8,507-354.9,507-353.8 M499.2-350.5c0-0.4-0.3-0.7-0.7-0.7c-0.4,0-0.7,0.3-0.7,0.7c0,0.4,0.3,0.7,0.7,0.7
					C498.9-349.9,499.2-350.2,499.2-350.5 M499.6-340.1c1,0,1.8-0.8,1.8-1.8c0-1-0.8-1.8-1.8-1.8c-1,0-1.8,0.8-1.8,1.8
					C497.8-340.9,498.6-340.1,499.6-340.1 M511.8-367.3c0.6,0,1-0.4,1-1c0-0.6-0.5-1-1-1c-0.6,0-1,0.4-1,1
					C510.8-367.7,511.2-367.3,511.8-367.3 M508.5-358.4c0,1,0.8,1.7,1.7,1.7s1.7-0.8,1.7-1.7c0,0,0,0,0,0c0.1-0.2,0.1-0.3,0.1-0.5
					c0-0.6-0.5-1.1-1.1-1.1c-0.1,0-0.1,0-0.1,0c-0.2-0.1-0.4-0.1-0.6-0.1C509.3-360.2,508.5-359.4,508.5-358.4 M505.5-350.6
					c0.8,0,1.5-0.7,1.5-1.5c0-0.8-0.7-1.5-1.5-1.5c-0.8,0-1.5,0.7-1.5,1.5C503.9-351.3,504.6-350.6,505.5-350.6 M517.1-317.2
					c0.1,0,0.2,0,0.3,0c-0.1-0.1-0.3-0.3-0.3-0.4c-0.8-0.1-1.5-0.8-1.5-1.6c0-0.6,0.4-1.2,0.9-1.5c-0.1-0.1-0.2-0.3-0.2-0.5
					c0-0.4,0.3-0.7,0.7-0.7c0.3,0,0.5,0.1,0.6,0.3c0,0,0,0,0,0c0-1.1,0.9-2,2-2c1.1,0,2,0.9,2,2c0,1.1-0.9,2-2,2
					c-0.2,0-0.5-0.1-0.7-0.1c0,0.1,0.1,0.3,0.1,0.4c0,0,0,0,0,0.1c0.4,0.2,0.6,0.6,0.6,1.1c0,0.7-0.6,1.3-1.3,1.3c0,0,0,0-0.1,0
					c0.3,0.2,0.5,0.5,0.7,0.8c0.1,0.2,0.2,0.3,0.3,0.5c0-0.5,0.4-0.9,0.9-0.9c0.5,0,0.9,0.4,0.9,0.9c0,0.5-0.4,0.9-0.9,0.9
					c-0.4,0-0.8-0.3-0.9-0.7c0,0.1,0,0.1,0,0.2c0,0.4-0.2,0.8-0.5,1.1c0,0.1,0,0.3-0.1,0.4c0.4,0.1,0.7,0.5,0.7,0.9c0,0.6-0.5,1-1,1
					c-0.6,0-1-0.4-1-1c0-0.1,0-0.2,0.1-0.3c-0.4-0.1-0.8-0.4-0.9-0.7c-0.7-0.3-1.1-0.9-1.1-1.7C515.2-316.4,516.1-317.2,517.1-317.2
					 M517.5-320.9c0,0,0.1,0,0.1,0c0-0.1,0-0.1-0.1-0.2C517.6-321,517.6-320.9,517.5-320.9 M512-301.5c0-0.3-0.3-0.6-0.6-0.6
					c-0.3,0-0.6,0.3-0.6,0.6c0,0.3,0.3,0.6,0.6,0.6C511.8-300.9,512-301.2,512-301.5 M512.6-288.3c0.6,0,1.1-0.5,1.1-1.1
					c0-0.6-0.5-1.1-1.1-1.1c-0.6,0-1.1,0.5-1.1,1.1C511.4-288.8,511.9-288.3,512.6-288.3 M516.1-298.8c0-0.8-0.6-1.4-1.4-1.4
					c-0.8,0-1.4,0.6-1.4,1.4c0,0.5,0.3,0.9,0.7,1.2c-0.2,0.2-0.3,0.4-0.3,0.6c0,0.5,0.4,0.9,0.9,0.9c0.5,0,0.9-0.4,0.9-0.9
					c0-0.2-0.1-0.4-0.2-0.5C515.7-297.6,516.1-298.2,516.1-298.8 M517.9-328.8c0,0.4,0.3,0.6,0.7,0.6c0.3,0,0.6-0.2,0.6-0.5
					c0.2,0.7,0.9,1.1,1.6,1.1c1,0,1.8-0.8,1.8-1.7c0-1-0.8-1.7-1.8-1.7c-1,0-1.8,0.8-1.8,1.7c0,0,0,0.1,0,0.1
					c-0.1-0.2-0.3-0.3-0.5-0.3C518.2-329.4,517.9-329.1,517.9-328.8 M524.6-346.8c0,0.6,0.5,1,1,1c0.6,0,1-0.5,1-1c0-0.6-0.5-1-1-1
					C525.1-347.8,524.6-347.4,524.6-346.8 M527.1-291.3c0.9,0,1.6-0.7,1.6-1.6c0-0.9-0.7-1.6-1.6-1.6c-0.6,0-1,0.3-1.3,0.7
					c0,0,0,0,0-0.1c0-0.4-0.3-0.7-0.7-0.8c0.3-0.3,0.4-0.7,0.4-1.1c0-0.9-0.8-1.7-1.7-1.7c-0.9,0-1.7,0.8-1.7,1.7
					c0,0.9,0.8,1.7,1.7,1.7c0.1,0,0.2,0,0.2,0c0,0.1-0.1,0.2-0.1,0.3c0,0.5,0.4,0.9,0.9,0.9c0.3,0,0.5-0.1,0.7-0.3
					c0,0.1,0,0.2,0,0.3C525.6-292,526.3-291.3,527.1-291.3 M525-291.7c-0.4,0-0.7,0.3-0.7,0.7c0,0.4,0.3,0.7,0.7,0.7
					c0.4,0,0.7-0.3,0.7-0.7C525.7-291.4,525.4-291.7,525-291.7 M518.3-292.4c0,0.3,0.3,0.6,0.6,0.6c0.3,0,0.6-0.3,0.6-0.6
					c0-0.3-0.3-0.6-0.6-0.6C518.6-293,518.3-292.7,518.3-292.4 M524.2-289.5c-0.8,0-1.5,0.7-1.5,1.5c0,0.8,0.7,1.5,1.5,1.5
					c0.8,0,1.5-0.7,1.5-1.5C525.7-288.8,525.1-289.5,524.2-289.5 M528-382.9c0-0.3-0.3-0.6-0.6-0.6c-0.3,0-0.6,0.3-0.6,0.6
					s0.3,0.6,0.6,0.6C527.7-382.3,528-382.6,528-382.9 M521.1-359c0.2,0,0.3,0,0.5,0.1c0,0,0-0.1,0-0.1c0-0.7,0.5-1.3,1.2-1.4
					c0.2-0.2,0.4-0.3,0.7-0.4c0-0.1,0-0.1,0-0.2c0-0.7,0.6-1.3,1.3-1.3c0.7,0,1.3,0.6,1.3,1.3c0,0.1,0,0.2,0,0.3
					c0.1-0.6,0.7-1.1,1.3-1.1c0.8,0,1.4,0.6,1.4,1.4c0,0.7-0.6,1.4-1.4,1.4c-0.3,0-0.6-0.1-0.8-0.3c0.1,0.2,0.1,0.5,0.1,0.7
					c0,1.3-1,2.3-2.3,2.3c-0.7,0-1.3-0.3-1.7-0.7c-0.2,0.6-0.7,1-1.4,1c-0.8,0-1.5-0.6-1.5-1.5C519.6-358.4,520.2-359,521.1-359
					 M525.7-360.4c0,0,0.1,0.1,0.1,0.1c0-0.1,0-0.1,0-0.2c0-0.1,0-0.2,0-0.2C525.8-360.6,525.7-360.5,525.7-360.4 M521-302
					c0-0.9-0.7-1.6-1.6-1.6c-0.9,0-1.6,0.7-1.6,1.6c0,0.4,0.1,0.7,0.3,1c-0.2,0.2-0.3,0.4-0.3,0.7c0,0.5,0.4,1,1,1c0.5,0,1-0.4,1-1
					c0,0,0-0.1,0-0.1C520.5-300.7,521-301.3,521-302 M497.2-351.6c0-0.6-0.5-1.1-1.1-1.1c-0.6,0-1.1,0.5-1.1,1.1
					c0,0.6,0.5,1.1,1.1,1.1C496.7-350.5,497.2-351,497.2-351.6 M482.3-368.1c-0.7,0-1.3,0.6-1.3,1.2c0,0.7,0.6,1.2,1.3,1.2
					c0.7,0,1.3-0.6,1.3-1.2C483.6-367.6,483-368.1,482.3-368.1 M480.6-384.6c0-1-0.8-1.9-1.9-1.9c-1,0-1.9,0.8-1.9,1.9
					s0.8,1.9,1.9,1.9C479.8-382.8,480.6-383.6,480.6-384.6 M477.8-367.3c0,0.6,0.5,1,1,1s1-0.4,1-1c0-0.6-0.5-1-1-1
					S477.8-367.9,477.8-367.3 M479-361.3c0.7,0,1.3-0.6,1.3-1.3c0-0.7-0.6-1.3-1.3-1.3c-0.7,0-1.3,0.6-1.3,1.3
					C477.6-361.9,478.2-361.3,479-361.3 M488.9-374.9c0-0.5-0.4-0.8-0.8-0.8c-0.5,0-0.8,0.4-0.8,0.8c0,0.5,0.4,0.8,0.8,0.8
					C488.5-374.1,488.9-374.5,488.9-374.9 M484.7-360.4c0.7,0,1.2-0.5,1.2-1.2c0-0.3-0.1-0.6-0.3-0.8c-0.1-0.4-0.5-0.7-0.9-0.7
					c-0.5,0-0.9,0.4-1,0.9c-0.1,0.2-0.2,0.4-0.2,0.6C483.5-360.9,484-360.4,484.7-360.4 M499-333.7c0-0.4-0.3-0.7-0.7-0.7
					c-0.4,0-0.7,0.3-0.7,0.7c0,0.4,0.3,0.7,0.7,0.7C498.7-333,499-333.3,499-333.7 M485-327.4c0.4,0,0.8-0.3,0.8-0.8
					c0-0.4-0.3-0.8-0.8-0.8c-0.4,0-0.8,0.3-0.8,0.8C484.2-327.8,484.5-327.4,485-327.4 M484.8-353.2c-0.3,0-0.5,0.1-0.7,0.2
					c-0.2-0.7-0.8-1.2-1.5-1.2c-0.4,0-0.8,0.1-1,0.4c0-0.1,0-0.2,0-0.3c0-0.2,0-0.3-0.1-0.5c0.9-0.1,1.6-0.8,1.6-1.7
					c0-1-0.8-1.7-1.8-1.7s-1.8,0.8-1.8,1.7c0,0.1,0,0.2,0,0.3c-1,0-1.8,0.9-1.8,1.9c0,1,0.8,1.9,1.9,1.9c0.5,0,1-0.2,1.3-0.5
					c0,0.1,0,0.1,0,0.2c0,0.9,0.7,1.6,1.6,1.6c0.2,0,0.4,0,0.6-0.1c0.1,0.8,0.8,1.4,1.6,1.4c0.9,0,1.7-0.7,1.7-1.7
					C486.5-352.5,485.7-353.2,484.8-353.2 M493.5-367.4c0,0.3,0.3,0.6,0.6,0.6c0.3,0,0.6-0.3,0.6-0.6c0-0.3-0.3-0.6-0.6-0.6
					C493.8-368,493.5-367.7,493.5-367.4 M479.2-336.6c-0.1,0.2-0.2,0.4-0.2,0.7c0,0.8,0.6,1.4,1.4,1.4c0.4,0,0.8-0.2,1.1-0.5
					c0.5-0.3,0.8-0.8,0.8-1.3c0-0.9-0.7-1.5-1.6-1.5C479.9-337.9,479.3-337.3,479.2-336.6 M483.6-343.4c0,0.3,0.2,0.5,0.5,0.5
					c0.3,0,0.5-0.2,0.5-0.5c0-0.2-0.2-0.5-0.5-0.5C483.8-343.9,483.6-343.7,483.6-343.4 M498.6-325.9c0,0.3,0.3,0.6,0.6,0.6
					c0.3,0,0.6-0.3,0.6-0.6c0-0.3-0.3-0.6-0.6-0.6C498.9-326.5,498.6-326.3,498.6-325.9 M501.5-329.9c0-0.8-0.7-1.5-1.5-1.5
					c-0.8,0-1.5,0.7-1.5,1.5c0,0.8,0.7,1.5,1.5,1.5C500.9-328.4,501.5-329,501.5-329.9 M486.4-330.6c-0.4,0-0.7,0.3-0.7,0.7
					c0,0.4,0.3,0.7,0.7,0.7c0.4,0,0.7-0.3,0.7-0.7C487.1-330.2,486.8-330.6,486.4-330.6 M494.8-335.7c-0.3,0-0.6,0.3-0.6,0.6
					c0,0.3,0.3,0.6,0.6,0.6c0.3,0,0.6-0.3,0.6-0.6C495.5-335.4,495.2-335.7,494.8-335.7 M495-398c0-0.3-0.2-0.5-0.5-0.5
					c-0.3,0-0.5,0.2-0.5,0.5c0,0.3,0.2,0.5,0.5,0.5C494.8-397.5,495-397.7,495-398 M494.2-328.1c0,1,0.8,1.9,1.9,1.9
					c1,0,1.9-0.8,1.9-1.9c0-1-0.8-1.9-1.9-1.9C495-330,494.2-329.1,494.2-328.1 M492.2-361.2c-0.1,0-0.2-0.1-0.4-0.1
					c-0.1,0-0.2,0-0.3,0c-0.1-0.1-0.2-0.1-0.4-0.1c-0.4,0-0.7,0.3-0.7,0.7c0,0.1,0,0.1,0,0.2c-0.1,0.2-0.2,0.4-0.2,0.7
					c0,0.8,0.7,1.5,1.5,1.5s1.5-0.7,1.5-1.5c0-0.3-0.1-0.5-0.2-0.7c0.1,0,0.2,0.1,0.4,0.1c0.8,0,1.5-0.7,1.5-1.5
					c0-0.6-0.4-1.2-0.9-1.4c0.1,0,0.2,0.1,0.4,0.1c0.5,0,1-0.4,1-1c0-0.2-0.1-0.4-0.2-0.5c0.2-0.2,0.4-0.5,0.4-0.9
					c0-0.7-0.6-1.2-1.3-1.2c-0.7,0-1.3,0.6-1.3,1.2c0,0.4,0.2,0.7,0.5,1c-0.1,0.1-0.1,0.3-0.1,0.4c0,0.4,0.2,0.7,0.6,0.9
					c-0.2-0.1-0.4-0.1-0.6-0.1c-0.8,0-1.5,0.7-1.5,1.5C492-361.6,492.1-361.4,492.2-361.2 M521.8-385.2c0.1,0,0.1,0,0.2,0
					c0.4,0,0.7-0.3,0.7-0.7c0-0.4-0.3-0.7-0.7-0.7c-0.2,0-0.3,0.1-0.5,0.2c-0.3,0.1-0.5,0.3-0.5,0.6c0,0.3,0.3,0.6,0.6,0.6
					C521.7-385.1,521.8-385.2,521.8-385.2 M492.9-369.9c-0.3,0-0.6,0.3-0.6,0.6c0,0.3,0.3,0.6,0.6,0.6c0.3,0,0.6-0.3,0.6-0.6
					C493.5-369.6,493.3-369.9,492.9-369.9 M496.3-371.3c0,1.1,0.9,2,2,2c1.1,0,2-0.9,2-2s-0.9-2-2-2
					C497.3-373.3,496.3-372.4,496.3-371.3 M499.1-380.3c0-0.5-0.4-1-1-1s-1,0.4-1,1c0,0.5,0.4,1,1,1S499.1-379.8,499.1-380.3
					 M382.9-365.9c0-0.8-0.7-1.5-1.6-1.5c-0.9,0-1.6,0.7-1.6,1.5c0,0.9,0.7,1.5,1.6,1.5C382.2-364.4,382.9-365.1,382.9-365.9
					 M402.3-352.1c-0.4,0-0.7,0.3-0.7,0.7c0,0.4,0.3,0.7,0.7,0.7c0.4,0,0.7-0.3,0.7-0.7C403-351.8,402.7-352.1,402.3-352.1
					 M378-334.3c0,0.9,0.7,1.6,1.6,1.6c0.9,0,1.6-0.7,1.6-1.6c0-0.9-0.7-1.6-1.6-1.6C378.7-335.9,378-335.2,378-334.3 M373.7-361.9
					c0,1.1,0.9,1.9,1.9,1.9c1.1,0,1.9-0.9,1.9-1.9c0-1.1-0.9-1.9-1.9-1.9C374.5-363.8,373.7-362.9,373.7-361.9 M377-414.2
					c0-0.4-0.3-0.7-0.7-0.7c-0.4,0-0.7,0.3-0.7,0.7c0,0.4,0.3,0.7,0.7,0.7C376.7-413.5,377-413.8,377-414.2 M375.4-399.5
					c0,0.3,0.2,0.5,0.5,0.5c0.3,0,0.5-0.2,0.5-0.5c0-0.3-0.2-0.5-0.5-0.5C375.6-400,375.4-399.7,375.4-399.5 M400.9-347.1
					c0.4,0,0.8-0.3,0.8-0.8s-0.3-0.8-0.8-0.8c-0.4,0-0.8,0.3-0.8,0.8S400.5-347.1,400.9-347.1 M397.6-358.4c-1,0-1.7,0.8-1.7,1.7
					c0,1,0.8,1.7,1.7,1.7c1,0,1.7-0.8,1.7-1.7C399.4-357.6,398.6-358.4,397.6-358.4 M401.6-369.7c0-0.6-0.5-1-1-1c-0.6,0-1,0.4-1,1
					c0,0.6,0.5,1,1,1C401.2-368.7,401.6-369.2,401.6-369.7 M399.9-345.3c0-1.2-0.9-2.1-2.1-2.1c-1.2,0-2.1,0.9-2.1,2.1
					c0,1.2,0.9,2.1,2.1,2.1C399-343.2,399.9-344.2,399.9-345.3 M357.9-338.6c0-0.9-0.8-1.7-1.7-1.7c-1,0-1.7,0.8-1.7,1.7
					c0,0.9,0.8,1.7,1.7,1.7C357.2-336.9,357.9-337.6,357.9-338.6 M371.7-353.8c0,0.8,0.7,1.5,1.5,1.5c0.8,0,1.5-0.7,1.5-1.5
					c0-0.8-0.7-1.5-1.5-1.5C372.4-355.3,371.7-354.6,371.7-353.8 M353.1-330c0-1-0.8-1.9-1.9-1.9c-1,0-1.9,0.8-1.9,1.9
					c0,1,0.8,1.9,1.9,1.9C352.3-328.1,353.1-328.9,353.1-330 M362.8-363c0,0.3,0.3,0.6,0.6,0.6c0.3,0,0.6-0.3,0.6-0.6
					c0-0.3-0.3-0.6-0.6-0.6C363-363.6,362.8-363.3,362.8-363 M364.7-327.7c0,0.3,0.3,0.6,0.6,0.6c0.3,0,0.6-0.3,0.6-0.6
					c0-0.3-0.3-0.6-0.6-0.6C365-328.3,364.7-328,364.7-327.7 M373.6-338.9c1.1,0,2-0.9,2-2c0-1.1-0.9-2-2-2c-1.1,0-2,0.9-2,2
					C371.6-339.8,372.5-338.9,373.6-338.9 M525.2-435.5c-0.4,0-0.7,0.3-0.7,0.7c0,0.4,0.3,0.7,0.7,0.7c0.4,0,0.7-0.3,0.7-0.7
					C525.8-435.2,525.5-435.5,525.2-435.5 M394.1-346.9c-0.3,0-0.5,0.2-0.5,0.5c0,0.3,0.2,0.5,0.5,0.5c0.3,0,0.5-0.2,0.5-0.5
					C394.6-346.7,394.3-346.9,394.1-346.9 M444.2-369.3c0,0.3,0.3,0.6,0.6,0.6c0.3,0,0.6-0.3,0.6-0.6c0-0.3-0.3-0.6-0.6-0.6
					C444.5-369.9,444.2-369.6,444.2-369.3 M445.2-356c-1.1,0-2,0.9-2,2c0,1.1,0.9,2,2,2s2-0.9,2-2C447.2-355.1,446.3-356,445.2-356
					 M444.3-372.4c-0.3,0-0.5,0.2-0.5,0.5s0.2,0.5,0.5,0.5c0.3,0,0.5-0.2,0.5-0.5S444.6-372.4,444.3-372.4 M441.6-386.8
					c0,0.3,0.3,0.6,0.6,0.6c0.3,0,0.6-0.3,0.6-0.6c0-0.3-0.3-0.6-0.6-0.6C441.9-387.4,441.6-387.1,441.6-386.8 M442.3-412.2
					c-0.6,0-1.2,0.5-1.2,1.2c0,0.6,0.5,1.1,1.2,1.1s1.2-0.5,1.2-1.1C443.5-411.7,443-412.2,442.3-412.2 M443-337.1
					c0,0.2,0.2,0.4,0.4,0.4c0.2,0,0.4-0.2,0.4-0.4c0-0.2-0.2-0.4-0.4-0.4C443.2-337.5,443-337.3,443-337.1 M446.9-395.7
					c0-0.4-0.3-0.7-0.7-0.7c-0.4,0-0.7,0.3-0.7,0.7c0,0.4,0.3,0.7,0.7,0.7C446.6-395,446.9-395.3,446.9-395.7 M440.8-348
					c0,0.6,0.5,1,1,1c0.6,0,1-0.5,1-1c0-0.6-0.5-1-1-1C441.2-349,440.8-348.5,440.8-348 M399.3-404.2c0-0.8-0.6-1.4-1.4-1.4
					s-1.4,0.6-1.4,1.4c0,0.8,0.6,1.4,1.4,1.4S399.3-403.4,399.3-404.2 M393.4-360c0-1-0.8-1.7-1.7-1.7s-1.7,0.8-1.7,1.7
					c0,1,0.8,1.7,1.7,1.7S393.4-359,393.4-360 M446.6-399.9c-0.3,0-0.6,0.3-0.6,0.6c0,0.3,0.3,0.6,0.6,0.6c0.3,0,0.6-0.3,0.6-0.6
					C447.2-399.6,447-399.9,446.6-399.9 M389.9-351.9c0.6,0,1.1-0.5,1.1-1.1c0-0.6-0.5-1.1-1.1-1.1s-1.1,0.5-1.1,1.1
					C388.7-352.4,389.2-351.9,389.9-351.9 M395.1-381.3c0,1.1,0.9,2.1,2.1,2.1s2.1-0.9,2.1-2.1c0-1.1-0.9-2.1-2.1-2.1
					S395.1-382.4,395.1-381.3 M390.1-377.2c0-0.6-0.5-1-1-1c-0.6,0-1,0.5-1,1c0,0.6,0.5,1,1,1C389.7-376.2,390.1-376.6,390.1-377.2
					 M386.2-381.8c0-0.3-0.2-0.5-0.5-0.5s-0.5,0.2-0.5,0.5c0,0.3,0.2,0.5,0.5,0.5S386.2-381.5,386.2-381.8 M385.9-344.2
					c0,0.5,0.4,0.9,0.9,0.9c0.5,0,0.9-0.4,0.9-0.9c0-0.5-0.4-0.9-0.9-0.9C386.4-345.1,385.9-344.7,385.9-344.2 M388.5-350.9
					c0-0.4-0.3-0.6-0.7-0.6c-0.4,0-0.7,0.3-0.7,0.6c0,0.4,0.3,0.6,0.7,0.6C388.2-350.2,388.5-350.5,388.5-350.9 M386.6-357.4
					c-1.1,0-2,0.9-2,2c0,1.1,0.9,2,2,2s2-0.9,2-2C388.6-356.5,387.7-357.4,386.6-357.4 M386-363.4c0.5,0,0.9-0.4,0.9-0.9
					c0-0.5-0.4-0.9-0.9-0.9c-0.5,0-0.9,0.4-0.9,0.9C385.1-363.8,385.5-363.4,386-363.4 M383.8-350c0,0.5,0.4,1,1,1c0.5,0,1-0.4,1-1
					c0-0.5-0.4-1-1-1C384.3-351,383.8-350.6,383.8-350 M443.9-326.4c0,0.4,0.3,0.7,0.7,0.7s0.7-0.3,0.7-0.7c0-0.4-0.3-0.7-0.7-0.7
					S443.9-326.7,443.9-326.4 M339.5-337.1c0-0.3-0.3-0.6-0.6-0.6c-0.4,0-0.6,0.3-0.6,0.6c0,0.3,0.3,0.6,0.6,0.6
					C339.2-336.5,339.5-336.8,339.5-337.1 M338.6-331.5c1.2,0,2.2-1,2.2-2.2c0-1.2-1-2.2-2.2-2.2c-1.2,0-2.2,1-2.2,2.2
					C336.4-332.5,337.4-331.5,338.6-331.5 M335.5-352.6c0.6,0,1.1-0.5,1.1-1.1c0-0.6-0.5-1.1-1.1-1.1c-0.6,0-1.1,0.5-1.1,1.1
					C334.4-353.1,334.9-352.6,335.5-352.6 M315.6-362.1c0.4,0,0.7-0.3,0.7-0.7c0-0.4-0.3-0.7-0.7-0.7c-0.4,0-0.7,0.3-0.7,0.7
					C314.9-362.5,315.2-362.1,315.6-362.1 M334.3-355.1c0.3,0,0.6-0.3,0.6-0.6c0-0.3-0.3-0.6-0.6-0.6c-0.3,0-0.6,0.3-0.6,0.6
					C333.8-355.3,334-355.1,334.3-355.1 M325.1-340.3c0-0.8-0.7-1.5-1.5-1.5c-0.8,0-1.5,0.7-1.5,1.5c0,0.8,0.7,1.5,1.5,1.5
					C324.4-338.8,325.1-339.4,325.1-340.3 M334-367.6c0-0.7-0.6-1.2-1.3-1.2c-0.7,0-1.3,0.6-1.3,1.2c0,0.7,0.6,1.2,1.3,1.2
					C333.5-366.4,334-366.9,334-367.6 M332.5-369.5c0,0.3,0.3,0.6,0.6,0.6c0.3,0,0.6-0.3,0.6-0.6c0-0.3-0.3-0.6-0.6-0.6
					C332.8-370.1,332.5-369.8,332.5-369.5 M351.7-366.9c0,1.1,0.9,1.9,1.9,1.9c1.1,0,1.9-0.9,1.9-1.9c0-1.1-0.9-1.9-1.9-1.9
					C352.5-368.8,351.7-368,351.7-366.9 M354.5-402.6c0-0.3-0.2-0.5-0.5-0.5c-0.3,0-0.5,0.2-0.5,0.5s0.2,0.5,0.5,0.5
					C354.3-402.1,354.5-402.3,354.5-402.6 M335.2-395.1c0-0.8-0.6-1.4-1.4-1.4c-0.8,0-1.4,0.6-1.4,1.4c0,0.8,0.6,1.4,1.4,1.4
					C334.6-393.8,335.2-394.4,335.2-395.1 M330.8-331.8c0,0.8,0.6,1.4,1.4,1.4s1.4-0.6,1.4-1.4c0-0.8-0.6-1.4-1.4-1.4
					S330.8-332.5,330.8-331.8 M318.4-357.4c0-0.4-0.3-0.8-0.8-0.8c-0.4,0-0.8,0.3-0.8,0.8c0,0.4,0.3,0.8,0.8,0.8
					C318-356.7,318.4-357,318.4-357.4 M355-343.7c0-1-0.8-1.8-1.8-1.8c-1,0-1.8,0.8-1.8,1.8c0,1,0.8,1.8,1.8,1.8
					C354.2-341.9,355-342.8,355-343.7 M309.7-332.1c0,0.4,0.3,0.7,0.7,0.7c0.4,0,0.7-0.3,0.7-0.7c0-0.4-0.3-0.7-0.7-0.7
					C310.1-332.8,309.7-332.5,309.7-332.1 M370.2-350c0-0.8-0.7-1.5-1.5-1.5c-0.8,0-1.5,0.7-1.5,1.5c0,0.8,0.7,1.5,1.5,1.5
					C369.5-348.5,370.2-349.2,370.2-350 M474.2-332.3c0.4,0,0.8-0.4,0.8-0.8c0-0.4-0.4-0.8-0.8-0.8c-0.4,0-0.8,0.4-0.8,0.8
					C473.4-332.7,473.7-332.3,474.2-332.3 M476.9-413.6c-0.5,0-1,0.4-1,1c0,0.5,0.4,1,1,1c0.5,0,1-0.4,1-1
					C477.8-413.2,477.4-413.6,476.9-413.6 M473.1-336.2c0.7,0,1.3-0.6,1.3-1.3c0-0.7-0.6-1.3-1.3-1.3c-0.7,0-1.3,0.6-1.3,1.3
					C471.8-336.8,472.4-336.2,473.1-336.2 M470.4-415.4c0,0.5,0.4,0.9,0.9,0.9s0.9-0.4,0.9-0.9c0-0.5-0.4-0.9-0.9-0.9
					S470.4-416,470.4-415.4 M481.7-350.1c-0.4,0-0.7,0.3-0.7,0.7c0,0.4,0.3,0.7,0.7,0.7c0.4,0,0.7-0.3,0.7-0.7
					C482.5-349.8,482.1-350.1,481.7-350.1 M474.5-329.8c-0.1,0.1-0.1,0.2-0.1,0.4c0,0.4,0.3,0.7,0.7,0.7c0.4,0,0.7-0.3,0.7-0.7
					c0-0.2-0.1-0.4-0.3-0.6c0.3-0.2,0.6-0.6,0.6-1c0-0.7-0.6-1.3-1.3-1.3c-0.7,0-1.3,0.6-1.3,1.3
					C473.4-330.4,473.9-329.9,474.5-329.8 M471.5-392.6c0.4,0,0.7-0.3,0.7-0.7c0-0.4-0.3-0.7-0.7-0.7c-0.4,0-0.7,0.3-0.7,0.7
					C470.8-392.9,471.2-392.6,471.5-392.6 M472.1-379.3c0.3,0,0.6-0.3,0.6-0.6c0-0.3-0.3-0.6-0.6-0.6c-0.3,0-0.6,0.3-0.6,0.6
					C471.5-379.5,471.8-379.3,472.1-379.3 M469.7-328.1c-0.7,0-1.2,0.5-1.2,1.2c0,0.7,0.5,1.2,1.2,1.2s1.2-0.5,1.2-1.2
					C470.9-327.5,470.4-328.1,469.7-328.1 M471.8-386.2c0.3,0,0.5-0.2,0.5-0.5c0-0.3-0.2-0.5-0.5-0.5c-0.3,0-0.5,0.2-0.5,0.5
					C471.2-386.5,471.5-386.2,471.8-386.2 M473-357.2c0.7,0,1.2-0.5,1.2-1.2c0-0.7-0.6-1.2-1.2-1.2c-0.7,0-1.2,0.5-1.2,1.2
					C471.7-357.8,472.3-357.2,473-357.2 M477.8-342.6c0.5,0,0.8-0.4,0.8-0.8c0-0.1,0-0.2-0.1-0.3c0.3-0.2,0.5-0.5,0.5-0.8
					c0-0.5-0.4-1-1-1c-0.5,0-1,0.4-1,1c0,0.2,0.1,0.3,0.2,0.5c-0.2,0.2-0.3,0.4-0.3,0.6C477-343,477.3-342.6,477.8-342.6
					 M479.5-326.2c0-0.7-0.5-1.2-1.2-1.2c-0.7,0-1.2,0.5-1.2,1.2c0,0.7,0.5,1.2,1.2,1.2C479-325,479.5-325.5,479.5-326.2
					 M477.5-372.4c0-0.4-0.4-0.8-0.8-0.8c-0.4,0-0.8,0.4-0.8,0.8c0,0.4,0.4,0.8,0.8,0.8C477.2-371.6,477.5-372,477.5-372.4
					 M474.4-342c-0.9,0-1.6,0.7-1.6,1.6c0,0.9,0.7,1.6,1.6,1.6c0.9,0,1.6-0.7,1.6-1.6C476-341.3,475.3-342,474.4-342 M505.3-373.2
					c0.2-0.2,0.2-0.5,0.2-0.9c0-0.9-0.7-1.6-1.7-1.6c-0.9,0-1.7,0.7-1.7,1.6c0,0.9,0.7,1.6,1.7,1.6c0.5,0,1-0.3,1.3-0.7
					c-0.1,0.1-0.1,0.2-0.1,0.4c0,0.4,0.3,0.7,0.7,0.7c0.4,0,0.7-0.3,0.7-0.7c0-0.4-0.3-0.7-0.7-0.7
					C505.6-373.4,505.4-373.3,505.3-373.2 M507-374.6c0.6,0,1-0.5,1-1c0-0.6-0.5-1-1-1c-0.6,0-1,0.5-1,1
					C506-375.1,506.4-374.6,507-374.6 M503.7-424.2c-1,0-1.8,0.8-1.8,1.8c0,1,0.8,1.8,1.8,1.8c1,0,1.8-0.8,1.8-1.8
					C505.6-423.4,504.7-424.2,503.7-424.2 M510.9-412.8c-0.3,0-0.5,0.2-0.5,0.5c0,0.3,0.2,0.5,0.5,0.5c0.3,0,0.5-0.2,0.5-0.5
					C511.4-412.5,511.2-412.8,510.9-412.8 M494.7-418.4c-0.9,0-1.5,0.7-1.5,1.5c0,0.8,0.7,1.5,1.5,1.5c0.9,0,1.5-0.7,1.5-1.5
					C496.3-417.8,495.6-418.4,494.7-418.4 M496.2-387.2c0,0.8,0.6,1.4,1.4,1.4c0.8,0,1.4-0.6,1.4-1.4c0-0.8-0.6-1.4-1.4-1.4
					C496.9-388.6,496.2-388,496.2-387.2 M499.5-404.2c-0.8,0-1.4,0.6-1.4,1.4c0,0.8,0.6,1.4,1.4,1.4c0.4,0,0.7-0.2,1-0.4
					c0.1,1,1,1.8,2.1,1.8c1.2,0,2.1-0.9,2.1-2.1s-0.9-2.1-2.1-2.1c-0.7,0-1.4,0.4-1.7,0.9C500.6-403.8,500.1-404.2,499.5-404.2
					 M478.3-394.5c-0.7,0-1.3,0.6-1.3,1.3c0,0.7,0.6,1.3,1.3,1.3c0.7,0,1.3-0.6,1.3-1.3C479.6-393.9,479-394.5,478.3-394.5
					 M523.9-417.3c0.2,0,0.4-0.2,0.4-0.4c0-0.2-0.2-0.4-0.4-0.4s-0.4,0.2-0.4,0.4C523.4-417.5,523.6-417.3,523.9-417.3 M522.4-425.6
					c-1.1,0-2.1,0.9-2.1,2c0,0.5,0.2,1,0.6,1.4c-0.3,0.3-0.4,0.7-0.4,1.1c0,1,0.8,1.8,1.8,1.8s1.8-0.8,1.8-1.8c0-0.4-0.1-0.7-0.3-1
					c0.4-0.4,0.7-0.9,0.7-1.5C524.5-424.7,523.6-425.6,522.4-425.6 M523.2-414.7c0,0.5,0.4,0.9,0.9,0.9c0.5,0,0.9-0.4,0.9-0.9
					c0-0.5-0.4-0.9-0.9-0.9C523.6-415.6,523.2-415.2,523.2-414.7 M519.5-398.9c-0.3,0-0.6,0.3-0.6,0.6c0,0.3,0.3,0.6,0.6,0.6
					c0.3,0,0.6-0.3,0.6-0.6C520.1-398.6,519.9-398.9,519.5-398.9 M518.8-394.9c-1,0-1.9,0.8-1.9,1.8c0,1,0.8,1.8,1.9,1.8
					s1.9-0.8,1.9-1.8C520.7-394.1,519.8-394.9,518.8-394.9 M519.5-428.1c-0.1,0-0.2,0-0.3,0.1c-0.2-0.6-0.8-1-1.5-1
					c-0.9,0-1.6,0.7-1.6,1.6c0,0.9,0.7,1.6,1.6,1.6c0.8,0,1.5-0.6,1.6-1.3c0.1,0,0.1,0,0.2,0c0.3,0,0.5-0.2,0.5-0.5
					C520-427.9,519.8-428.1,519.5-428.1 M501.1-418.5c0,0.9,0.8,1.7,1.7,1.7c0.9,0,1.7-0.8,1.7-1.7c0-0.9-0.8-1.7-1.7-1.7
					C501.8-420.2,501.1-419.5,501.1-418.5 M480.9-378.8c-0.7,0-1.4,0.6-1.4,1.3s0.6,1.3,1.4,1.3c0.3,0,0.5-0.1,0.7-0.2
					c-0.1,0.2-0.2,0.4-0.2,0.7c0,0.7,0.6,1.2,1.2,1.2s1.2-0.5,1.2-1.2c0-0.2,0-0.3-0.1-0.4c0.4-0.2,0.7-0.6,0.7-1
					c0-0.6-0.5-1.1-1.1-1.1c-0.6,0-1.1,0.5-1.1,1.1c0,0.1,0,0.2,0.1,0.3c-0.1,0-0.2,0.1-0.3,0.1c0.2-0.2,0.3-0.5,0.3-0.8
					C482.2-378.2,481.6-378.8,480.9-378.8 M491.9-394.8c0,0.6,0.5,1.2,1.2,1.2c0.7,0,1.2-0.5,1.2-1.2c0-0.6-0.5-1.2-1.2-1.2
					C492.4-396,491.9-395.5,491.9-394.8 M482.7-393.2c0,0.8,0.6,1.4,1.4,1.4c0.8,0,1.4-0.6,1.4-1.4c0-0.8-0.6-1.4-1.4-1.4
					C483.3-394.6,482.7-393.9,482.7-393.2 M477.6-388.3c0,1,0.8,1.7,1.7,1.7c1,0,1.7-0.8,1.7-1.7c0-1-0.8-1.7-1.7-1.7
					C478.4-390,477.6-389.3,477.6-388.3 M480.9-400.1c-0.3,0-0.5,0.2-0.5,0.5c0,0.3,0.2,0.5,0.5,0.5c0.3,0,0.5-0.2,0.5-0.5
					C481.4-399.8,481.2-400.1,480.9-400.1 M485.1-413.4c-0.4,0-0.7,0.3-0.7,0.7c0,0.4,0.3,0.7,0.7,0.7c0.4,0,0.7-0.3,0.7-0.7
					C485.8-413.1,485.5-413.4,485.1-413.4 M483.1-407c-0.6,0-1.1,0.5-1.1,1.1c0,0.6,0.5,1.1,1.1,1.1c0.6,0,1.1-0.5,1.1-1.1
					C484.2-406.5,483.7-407,483.1-407 M487.8-379.4c0.6,0,1-0.4,1-1c0-0.6-0.5-1-1-1c-0.6,0-1,0.5-1,1
					C486.8-379.8,487.3-379.4,487.8-379.4 M486.4-372.2c0,0.3,0.3,0.6,0.6,0.6s0.6-0.3,0.6-0.6c0-0.3-0.3-0.6-0.6-0.6
					S486.4-372.5,486.4-372.2 M492.1-411.3c-0.5,0-1,0.4-1,0.9c0,0.5,0.4,0.9,1,0.9s1-0.4,1-0.9C493-410.9,492.6-411.3,492.1-411.3
					 M485.1-383c-0.7,0-1.3,0.6-1.3,1.3s0.6,1.3,1.3,1.3c0.7,0,1.3-0.6,1.3-1.3S485.8-383,485.1-383 M485.5-401.4
					c-0.3,0-0.5,0.2-0.5,0.5c0,0.3,0.2,0.5,0.5,0.5s0.5-0.2,0.5-0.5C486-401.2,485.8-401.4,485.5-401.4 M485.6-369.8
					c0,0.5,0.4,0.8,0.8,0.8c0.5,0,0.8-0.4,0.8-0.8c0-0.5-0.4-0.8-0.8-0.8C486-370.7,485.6-370.3,485.6-369.8 M424.1-348.6
					c0.5,0,1-0.4,1-1c0-0.5-0.4-1-1-1s-1,0.4-1,1C423.2-349.1,423.6-348.6,424.1-348.6 M427.3-359c0.3,0,0.6-0.3,0.6-0.6
					c0-0.3-0.3-0.6-0.6-0.6c-0.3,0-0.6,0.3-0.6,0.6C426.7-359.3,426.9-359,427.3-359 M427-396.6c-1,0-1.9,0.8-1.9,1.9
					c0,1,0.9,1.9,1.9,1.9s1.9-0.8,1.9-1.9C428.9-395.8,428-396.6,427-396.6 M429.8-344c0.7,0,1.2-0.5,1.2-1.2c0-0.7-0.5-1.2-1.2-1.2
					c-0.7,0-1.2,0.5-1.2,1.2C428.6-344.5,429.1-344,429.8-344 M434.8-350.4c0.2,0,0.4-0.1,0.5-0.3c0.1,0.3,0.4,0.5,0.8,0.5
					c0.5,0,0.9-0.4,0.9-0.9c0-0.5-0.4-0.9-0.9-0.9c-0.4,0-0.7,0.3-0.8,0.6c-0.1-0.2-0.3-0.3-0.5-0.3c-0.3,0-0.6,0.3-0.6,0.6
					S434.5-350.4,434.8-350.4 M431.3-338.4c0,0.9,0.7,1.7,1.6,1.8c-0.4,0.1-0.7,0.5-0.7,1c0,0.6,0.5,1.1,1.1,1.1s1.1-0.5,1.1-1.1
					c0-0.5-0.4-0.9-0.8-1c0.8-0.2,1.4-0.9,1.4-1.8c0-1-0.8-1.8-1.8-1.8C432.1-340.1,431.3-339.3,431.3-338.4 M445.7-332.2
					c0,0.3,0.2,0.5,0.5,0.5s0.5-0.2,0.5-0.5s-0.2-0.5-0.5-0.5S445.7-332.4,445.7-332.2 M419.5-340.6c0-0.4-0.3-0.7-0.7-0.7
					c-0.4,0-0.7,0.3-0.7,0.7s0.3,0.7,0.7,0.7C419.1-339.9,419.5-340.2,419.5-340.6 M484.1-337.9c0.9,0,1.7-0.8,1.7-1.7
					c0-0.9-0.8-1.7-1.7-1.7c-0.9,0-1.7,0.8-1.7,1.7C482.4-338.6,483.2-337.9,484.1-337.9 M420.3-356.7c0,0.4,0.3,0.7,0.7,0.7
					c0.4,0,0.7-0.3,0.7-0.7c0-0.4-0.3-0.7-0.7-0.7C420.6-357.4,420.3-357.1,420.3-356.7 M433.6-328.7c1,0,1.8-0.8,1.8-1.7
					c0-1-0.8-1.7-1.8-1.7c-1,0-1.8,0.8-1.8,1.7C431.9-329.4,432.7-328.7,433.6-328.7 M423.9-365.5c0-0.3-0.3-0.6-0.6-0.6
					c-0.4,0-0.6,0.3-0.6,0.6c0,0.3,0.3,0.6,0.6,0.6C423.6-364.8,423.9-365.1,423.9-365.5 M442-342.8c0-0.8-0.6-1.4-1.4-1.4
					c-0.8,0-1.4,0.6-1.4,1.4c0,0.8,0.6,1.4,1.4,1.4C441.3-341.4,442-342.1,442-342.8 M431.3-343.3c0.2,0,0.4-0.2,0.4-0.4
					s-0.2-0.4-0.4-0.4c-0.2,0-0.5,0.2-0.5,0.4S431-343.3,431.3-343.3 M445.3-348.3c-0.9,0-1.6,0.7-1.6,1.6c0,0.9,0.7,1.6,1.6,1.6
					c0.9,0,1.6-0.7,1.6-1.6C446.9-347.6,446.2-348.3,445.3-348.3 M438-366.3c0.3,0,0.6-0.3,0.6-0.6c0-0.3-0.3-0.6-0.6-0.6
					s-0.6,0.3-0.6,0.6C437.4-366.5,437.7-366.3,438-366.3 M436.6-378.6c-0.8,0-1.4,0.6-1.4,1.4c0,0.8,0.6,1.4,1.4,1.4
					s1.4-0.6,1.4-1.4C438-378,437.4-378.6,436.6-378.6 M430.2-354.5c0,1.1,0.9,2.1,2.1,2.1c1.1,0,2.1-0.9,2.1-2.1
					c0-1.1-0.9-2.1-2.1-2.1C431.1-356.5,430.2-355.6,430.2-354.5 M435.3-425.1c-1,0-1.8,0.8-1.8,1.8c0,1,0.8,1.8,1.8,1.8
					c1,0,1.8-0.8,1.8-1.8C437.1-424.3,436.3-425.1,435.3-425.1 M431.8-364.9c0,0.7,0.5,1.2,1.2,1.2s1.2-0.5,1.2-1.2
					c0-0.7-0.5-1.2-1.2-1.2S431.8-365.6,431.8-364.9 M421.9-359.7c0,1.1,0.9,2,2,2s2-0.9,2-2c0-1.1-0.9-2-2-2
					S421.9-360.8,421.9-359.7 M531-422.8c0,0.6,0.3,1,0.7,1.3v-2.6C531.2-423.9,531-423.4,531-422.8 M514.5-440.1
					c0,0.8,0.7,1.4,1.5,1.4c0.8,0,1.5-0.6,1.5-1.4c0,0,0,0,0,0L514.5-440.1C514.5-440.1,514.5-440.1,514.5-440.1 M489.5-357.4
					c0-0.5-0.4-0.9-1-0.9c-0.5,0-1,0.4-1,0.9s0.4,0.9,1,0.9C489.1-356.5,489.5-356.9,489.5-357.4 M487.7-349.2c-0.6,0-1,0.5-1,1
					c0,0.6,0.5,1,1,1c0.6,0,1-0.5,1-1C488.7-348.7,488.2-349.2,487.7-349.2 M450.5-384.8c0.3,0,0.5-0.2,0.5-0.5
					c0-0.3-0.2-0.5-0.5-0.5c-0.3,0-0.5,0.2-0.5,0.5C450.1-385,450.3-384.8,450.5-384.8 M419.9-376.2c-0.6,0-1.1,0.5-1.1,1.1
					c0,0.6,0.5,1.1,1.1,1.1c0.6,0,1.1-0.5,1.1-1.1C421.1-375.7,420.6-376.2,419.9-376.2 M407.2-326.8c0.8,0,1.4-0.6,1.4-1.4
					c0-0.8-0.6-1.4-1.4-1.4c-0.8,0-1.4,0.6-1.4,1.4C405.8-327.4,406.5-326.8,407.2-326.8 M414.6-361.8c0-0.7-0.6-1.2-1.2-1.2
					c-0.7,0-1.2,0.6-1.2,1.2c0,0.7,0.6,1.2,1.2,1.2C414-360.5,414.6-361.1,414.6-361.8 M417.5-351c0.7,0,1.3-0.6,1.4-1.3
					c0.2,0.1,0.4,0.1,0.7,0.1c1.1,0,1.9-0.9,1.9-1.9c0-1.1-0.9-1.9-1.9-1.9c-1.1,0-1.9,0.9-1.9,1.9c0,0.1,0,0.2,0,0.3
					c-0.1,0-0.1,0-0.2,0c-0.8,0-1.4,0.6-1.4,1.4C416.1-351.6,416.7-351,417.5-351 M415.6-353.2c0.3,0,0.5-0.2,0.5-0.5
					c0-0.3-0.2-0.5-0.5-0.5c-0.3,0-0.5,0.2-0.5,0.5C415.1-353.4,415.3-353.2,415.6-353.2 M421.1-348.8c-1.2,0-2.1,0.9-2.1,2.1
					c0,1.2,1,2.1,2.1,2.1c1.2,0,2.1-0.9,2.1-2.1C423.2-347.8,422.3-348.8,421.1-348.8 M415.2-335.8c0-0.6-0.5-1.2-1.2-1.2
					c-0.5,0-0.9,0.3-1.1,0.7c-0.9,0-1.7,0.8-1.7,1.7c0,1,0.8,1.7,1.7,1.7s1.7-0.8,1.7-1.7c0-0.1,0-0.2,0-0.3
					C415-335,415.2-335.4,415.2-335.8 M414.1-327.3c-0.4,0-0.7,0.3-0.7,0.7c0,0.4,0.3,0.7,0.7,0.7s0.7-0.3,0.7-0.7
					C414.8-327,414.5-327.3,414.1-327.3 M406.1-380.3c0,0.8,0.6,1.4,1.4,1.4c0.8,0,1.4-0.6,1.4-1.4s-0.6-1.4-1.4-1.4
					C406.7-381.7,406.1-381.1,406.1-380.3 M407.1-419.6c-0.9,0-1.5,0.7-1.5,1.5c0,0.8,0.7,1.5,1.5,1.5c0.9,0,1.5-0.7,1.5-1.5
					C408.7-418.9,408-419.6,407.1-419.6"/>
			</g>
		</g>
		<g class="st1">
			<defs>
				<rect id="SVGID_13_" width="107" height="30"/>
			</defs>
			<clipPath id="SVGID_14_">
				<use xlink:href="#SVGID_13_"  style="overflow:visible;"/>
			</clipPath>
			<g class="st3">
				<defs>
					<rect id="SVGID_15_" width="107" height="30"/>
				</defs>
				<clipPath id="SVGID_16_">
					<use xlink:href="#SVGID_15_"  style="overflow:visible;"/>
				</clipPath>
				<path class="st4" d="M72.8,21.4c-0.7-0.2-0.8-0.4-0.5-1c0.5-0.8,0.9-1.6,1.2-2.5c0.1-0.3,0.3-0.8-0.1-1
					c-0.4-0.2-0.5,0.3-0.7,0.5c-0.8,0.9-1.2,2-1.7,3.1c-0.2,0.6-0.6,1.1-0.9,1.6c-0.2,0.2-0.4,0.4-0.7,0.3c-0.3-0.2-0.3-0.5-0.1-0.7
					c0.5-1.2,0.9-2.3,1.6-3.4c0.2-0.3,0.5-0.7,0.6-1.3c-0.8,0.9-1.4,1.8-1.8,2.8c-0.3,1-0.8,1.8-1.4,2.7c-0.2,0.3-0.4,0.7-0.8,0.5
					c-0.5-0.2-0.3-0.7-0.1-1c1-1.5,1.4-3.3,2.3-4.9c0.1-0.2,0.2-0.4,0.3-0.6c0.1-0.2,0.2-0.4,0-0.5c-0.2-0.2-0.3,0.1-0.5,0.2
					c-1.3,1.4-2.2,3.1-2.8,4.9c-0.1,0.3-0.2,0.6-0.4,0.9c-0.2,0.3-0.4,0.5-0.7,0.4c-0.4-0.2-0.4-0.6-0.2-0.8c0.9-1.3,0.7-3,1.5-4.4
					c0.1-0.1,0.1-0.3,0.1-0.5c-0.3-0.1-0.4,0.1-0.5,0.3c-1.2,1.4-2.2,2.9-2.9,4.7c-0.1,0.4-0.3,0.7-0.5,1.1
					c-0.1,0.2-0.3,0.3-0.6,0.2c-0.2-0.1-0.3-0.3-0.3-0.5c0-0.2,0.1-0.5,0.2-0.7c0.6-1.4,0.8-2.8,1.3-4.2c0.1-0.2,0.2-0.4,0-0.6
					c-0.2-0.2-0.4,0.1-0.5,0.3c-1.1,1.3-2.2,2.7-2.8,4.4c-0.2,0.5-0.4,1.2-1.1,0.9C58.6,22,59,21.4,59.2,21c0.6-1.2,0.9-2.6,1.4-3.9
					c0.1-0.3,0.2-0.7,0-0.9c-0.3-0.3-0.6,0-0.9,0.2c-1,0.7-1.6,1.8-2,2.8c-0.5,1.1-1.2,2.1-1.7,3.3c-0.2,0.4-0.5,0.8-1.1,0.6
					c-0.3-0.1-0.5,0.1-0.7,0.2c-1.2,0.6-1.9,0.2-2-1.1c0-0.3,0.2-0.8-0.2-1c-0.4-0.2-0.6,0.3-0.9,0.5c-0.7,0.4-1.3,0.9-2,1.4
					c-0.7,0.5-1.5,0.6-2.3,0.2c-0.5-0.2-0.9-0.4-1.5,0c-0.4,0.3-0.7-0.2-0.6-0.8c0.1-0.6,0.4-1.1,0.5-1.6c0.6-2.4,1.8-4.6,2.3-7
					c0-0.3,0.2-0.5,0.1-0.8c-0.3,0.1-0.3,0.4-0.4,0.6c-0.6,2.1-1.9,4-2.9,5.9c-0.3,0.5-0.6,1-1.1,1.3c-0.8,0.6-1.5,0.4-1.7-0.6
					c-0.1-0.3-0.1-0.6-0.1-1c0.1-1.4,0.1-2.9,0.4-4.3c0-0.1,0.1-0.3-0.1-0.5c-0.4,0.7-0.7,1.3-1.1,1.9c-0.8,1.4-1.5,2.9-2.4,4.3
					c-0.4,0.6-0.5,1.3-0.9,1.8c-0.2,0.3-0.4,0.7-0.8,0.5c-0.4-0.2-0.2-0.6,0-0.9c1.7-3.9,3.4-7.8,5.8-11.3c0.8-1.1,1.4-2.4,2-3.6
					c0.1-0.3,0.3-0.8,0.8-0.7c0.5,0.2,0.4,0.6,0.2,1c-0.1,0.3-0.1,0.6-0.1,0.9c0,0.4-0.2,0.8-0.6,1.1c-0.5,0.3-0.7,0.8-0.8,1.3
					c-0.8,2.7-1.1,5.4-1.3,8.2c0,0.1,0,0.3,0,0.5c0,0.2,0,0.4,0.2,0.5c0.2,0.1,0.3-0.1,0.4-0.2c0.8-0.8,1.3-1.8,1.7-2.7
					c1-2.1,1.9-4.2,2.8-6.3c0.5-1.1,0.7-2.3,1-3.5c0.2-0.9,0.5-1.8,0.8-2.7c0.2-0.4,0.4-0.9,0.9-0.6c0.5,0.2,0.3,0.7,0.2,1.1
					c-0.4,1.7-1.2,3.3-1.5,5c0,0.2-0.1,0.4-0.1,0.6c0,2-0.3,3.9-1,5.7c0,0.1,0,0.1,0,0.2c0.3,0,0.4-0.2,0.5-0.4
					c0.8-1.1,1.9-1.6,3.2-1.8c0.8-0.1,1.6,0,2,0.8c0.3,0.4,0.5,0.3,0.9,0.1c0.2-0.1,0.5-0.3,0.7-0.1c0.3,0.2,0.1,0.5,0,0.8
					c-0.8,1-1.2,2.1-1.7,3.2c-0.4,0.9-0.5,2-0.5,3c0,0.5,0.4,0.6,0.8,0.4c0.9-0.4,1.4-1.1,1.9-1.9c0.5-1,0.8-2,1.2-3.1
					c0.1-0.4,0.4-0.8,0.8-0.9c0.4-0.1,0.8-0.4,1-0.7c0.1-0.1,0.1-0.2,0.2-0.2c0.5-0.5,1-1,1.7-0.8c0.7,0.2,0.9,0.9,1,1.6
					c0,0.1,0.1,0.2,0.2,0.4c0.5-0.6,0.9-1,1.4-1.5c0.2-0.2,0.5-0.5,0.9-0.3c0.4,0.2,0.4,0.5,0.4,0.9c0,0.4-0.3,1,0.1,1.1
					c0.4,0.2,0.6-0.5,0.9-0.8c0.3-0.3,0.6-0.6,0.9-0.9c0.2-0.3,0.5-0.5,0.9-0.4c0.4,0.1,0.5,0.5,0.5,0.8c0,0.1,0.1,0.3,0.1,0.6
					c0.4-0.5,0.7-0.9,1.1-1.2c0.4-0.4,0.7-0.9,1.4-0.8c0.6,0.2,0.5,0.8,0.6,1.3c0.3,0,0.5-0.2,0.6-0.4c0.4-0.3,0.6-0.3,1.1,0
					c0.8,0.5,1.7,1.2,2.8,0.7c0.2-0.1,0.5-0.2,0.7-0.1c1.2,0.6,2.5-0.1,3.7,0.3c0.3,0.1,0.6,0,0.9-0.2c0.6-0.4,1.2-0.9,1.8-1.3
					c0.3-0.2,0.6-0.5,0.9-0.3c0.3,0.2,0.4,0.6,0.4,0.9c0,0.7-0.1,1.5-0.2,2.2c0,0.2,0,0.4,0,0.7c0.5-0.2,0.6-0.6,0.8-0.8
					c1.1-1.5,2.6-2.6,3.6-4.2c0.2-0.3,0.4-0.6,0.6-0.9c0.2-0.2,0.3-0.5,0.7-0.4c0.3,0.1,0.3,0.4,0.2,0.7c-0.1,0.7-0.6,1.3-1,1.9
					c-0.8,1.5-2,2.9-2.4,4.6c-0.1,0.5-0.1,1,0,1.5c0.2,1.3,0.8,1.7,2,1.2c1.1-0.5,2-1.2,2.8-2.1c0.3-0.3,0.5-0.5,0.8-0.8
					c0.2-0.2,0.5-0.2,0.7-0.1c0.3,0.2,0.2,0.4,0,0.7c-0.1,0.2-0.3,0.5-0.4,0.7c-0.1,0.5,0,1,0.5,1.3c0.6,0.3,1.2,0.7,2,0.5
					c0,0,0.1-0.1,0.1-0.1c0.1-1,0.8-1.2,1.6-1.3c0.3-0.1,0.6-0.4,0.9-0.7c2.4-2.5,5.3-4.6,8-6.7c0.4-0.3,0.8-0.6,1.3-0.8
					c0.2-0.1,0.4-0.1,0.5,0c0.2,0.2,0,0.4-0.2,0.5c-2.8,2-5.2,4.5-7.8,6.8c-0.9,0.8-1.8,1.6-2.5,2.7c-0.4,0.6-1,0.8-1.7,0.8
					c-1.3,0.1-2.5-0.3-3.3-1.5c-0.3-0.4-0.6-0.4-0.9-0.1c-0.5,0.3-0.9,0.7-1.4,1c-1.4,1-3.6,0.7-3.8-1.5c-0.1-1.3-0.2-1.6,0.4-3.3
					c-1,0.9-1.5,1.9-1.9,2.9c0,0.1-0.1,0.2-0.1,0.3c-0.1,0.2-0.2,0.5-0.4,0.5c-0.3,0-0.4-0.3-0.5-0.5c-0.1-0.9-0.1-1.9,0-2.8
					c0.1-0.6,0.2-1.1,0.2-1.7c0-0.6-0.3-0.6-0.7-0.3c-0.1,0.1-0.3,0.2-0.4,0.3c-0.6,0.3-0.6,0.6-0.2,1.2c0.7,0.9,0.5,2.2-0.5,3.2
					c-1.6,1.6-3.5,2.3-5.7,1.9c-0.8-0.2-1.6-0.2-2.5-0.3c-0.2,0-0.5-0.1-0.6-0.4C72.3,21.7,72.6,21.6,72.8,21.4
					c0.2,0.1,0.4,0.1,0.5,0.1c1-0.1,2.1,0,2.8-1.1c0.1-0.2,0.3-0.4,0.1-0.6c-0.1-0.2-0.4-0.1-0.6-0.1c-0.4,0-0.9,0.2-1.2-0.2
					c-0.3-0.4-0.4-0.2-0.6,0.1C73.5,20.3,73.2,20.9,72.8,21.4 M53.4,16.8c0-1.2-0.9-1.8-2.2-1.4c-0.5,0.2-1.3,0.3-1.1,1.2
					c0,0.2-0.1,0.3-0.3,0.4c-2,1-2.2,3-2.9,4.8c-0.2,0.5,0.2,0.8,0.7,0.7c0.2,0,0.4-0.1,0.6-0.2c1.9-0.7,3.1-2.4,4.8-3.3
					c0.1,0,0.2-0.2,0.1-0.2C52.9,18.1,53.4,17.5,53.4,16.8 M76.9,21.9c1.5-0.1,2.7-0.8,3.7-1.9c0.2-0.2,0.3-0.6,0.4-0.9
					c0.1-0.5-0.2-0.9-0.5-1.2c-0.3-0.3-0.7-0.2-1.1,0c-0.5,0.3-1,0.5-1.5,0.8c-0.3,0.2-0.5,0.4-0.6,0.7c-0.1,0.7-0.4,1.4-0.8,2
					C76.3,21.8,76.5,22,76.9,21.9 M76.6,18.2c0-0.1,0-0.3-0.2-0.3c-0.5,0-0.8,0.4-1.1,0.7c-0.1,0.1-0.1,0.2,0,0.3c0,0,0,0,0.1,0
					C75.7,19.2,76.6,18.7,76.6,18.2 M78.2,17.1c-0.3,0.1-0.6,0.1-0.7,0.5c0,0.2,0.1,0.3,0.3,0.3c0.3-0.1,0.7-0.1,0.9-0.5
					C78.8,17.1,78.5,17.2,78.2,17.1 M76,16.9c-0.7,0.1-1.2,0.3-1.2,1C75.2,17.6,75.5,17.4,76,16.9"/>
				<path class="st4" d="M35,6.8c-0.1,0.7-0.6,1.2-0.9,1.9c-1,2.8-2.1,5.7-3.2,8.5c-0.2,0.7-0.2,1.4-0.7,2.1
					c-0.4-0.7-0.2-1.4-0.1-2.1c0-0.2,0.2-0.5,0-0.6c-0.2-0.1-0.4,0.1-0.6,0.2c-0.8,0.4-1.5,0.8-2.3,1.1c-1,0.4-2,0.5-3.1,0.2
					c-0.5-0.2-0.8,0-1,0.4c-0.1,0.3-0.3,0.5-0.5,0.7c-0.4,0.4-0.8,0.7-1.2,0.1c-0.2-0.3-0.4-0.2-0.7,0c-0.3,0.3-0.7,0.5-1.1,0.7
					c-0.5,0.3-1.1,0.4-1.5-0.1c-0.3-0.3-0.6-0.2-0.9,0c-0.4,0.3-0.9,0.7-1.3,1c-0.4,0.2-0.8,0.3-1.2,0.2c-0.6-0.3-1,0-1.3,0.4
					c-0.4,0.5-0.9,0.8-1.4,1.1C10.8,23.2,9.8,23,9,22.2c-0.5-0.5-0.8-0.2-1,0.2c-1.1,1.9-2.5,3.6-3.8,5.4c-0.4,0.6-0.9,1.1-1.3,1.6
					c-0.2,0.2-0.4,0.7-0.8,0.4C1.7,29.6,2,29.3,2.2,29c1.1-1.5,2.2-3.1,3.3-4.6c1.7-2.3,3-4.9,4-7.6c0.8-2.2,1.3-4.6,2-6.8
					c0.2-0.6,0.4-1.2,0.6-1.8c0.1-0.3,0.4-0.6,0.7-0.5c0.4,0.1,0.4,0.5,0.4,0.8c0,0.4-0.2,0.8-0.5,1.2c-0.4,0.6-0.6,1.3-0.7,2
					c-0.2,1.1-0.7,2.2-1,3.2c-0.1,0.2-0.2,0.4-0.1,0.7c0.3-0.1,0.4-0.4,0.6-0.6c1-1.2,2.1-2.2,3.8-1.8c0.4,0.1,0.6-0.2,0.7-0.5
					c0.4-0.7,0.8-1.3,1.5-1.7c0.3-0.2,0.6-0.4,1-0.2c0.4,0.2,0.4,0.6,0.4,1c0,0.5-0.4,1-0.5,1.6c-0.3-0.4-0.1-0.7-0.1-0.9
					c0-0.2,0.2-0.5-0.1-0.7c-0.3-0.1-0.5,0-0.7,0.2c-0.7,0.7-1.2,1.6-1.1,2.5c0.1,1.8-0.4,3.3-1.4,4.8c-0.1,0.2-0.4,0.5-0.2,0.7
					c0.2,0.3,0.4-0.1,0.7-0.2c1.7-0.6,2.2-2.1,2.7-3.7c0.5-1.7,1.5-3.1,2.4-4.6c0.1-0.2,0.3-0.4,0.6-0.5c0.3-0.2,0.7-0.2,1,0
					c0.3,0.3,0.2,0.6,0.1,1c-0.6,1.6-1.7,2.8-2.5,4.3c-0.4,0.6-0.7,1.2-1.1,1.8c-0.2,0.3-0.3,0.6,0,0.9c0.3,0.3,0.5,0,0.7-0.1
					c1-0.5,1.8-1.3,2.1-2.4c0.4-1.1,0.7-2.1,1.3-3.1c0.2-0.3,0.4-0.5,0.6-0.8c0.2-0.2,0.6-0.4,0.9-0.2c0.3,0.2,0.2,0.5,0.1,0.8
					c0,0.3-0.2,0.5-0.1,0.8c0.2,0.1,0.3,0,0.3-0.1c0.9-1.1,2.2-1.3,3.4-1.7c1-0.3,2-0.1,2.7,0.6c0.4,0.3,0.5,0.2,0.6-0.2
					c1.1-2.7,2-5.4,2.9-8.1c0.5-1.4,1-2.7,1.9-3.9c0.2-0.3,0.5-0.7,1-0.6c0.5,0.2,0.5,0.7,0.5,1.1c-0.1,1.2-0.7,2.3-1.2,3.3
					c-0.3,0.6-0.6,1.3-1.2,1.8c-0.1-0.4,0.1-0.7,0.3-1c0.5-0.9,1-1.8,1.1-2.8c0-0.2,0.1-0.4-0.2-0.4c-0.2,0-0.2,0.2-0.3,0.3
					c-0.6,1.2-1.1,2.5-1.4,3.8C34.9,6.3,34.9,6.6,35,6.8 M14.8,14c-0.7,0-1.1,0.1-1.2,0.2c-0.2,0.4,0.2,0.6,0.2,0.9
					c-0.1,0.2,0.2,0.7-0.4,0.6c-0.8-0.2-1.3,0.1-1.8,0.8c-0.7,1-1.1,2.3-1.8,3.3c-0.3,0.4-0.4,1-0.2,1.6c0.2,0.6,0.7,1,1.3,0.8
					c1.4-0.4,2.6-1.3,3-2.6c0.5-1.5,1-3.1,1.5-4.6C15.5,14.2,15.4,13.9,14.8,14 M25.4,17.4c1.6-0.2,3.1-0.9,4.4-1.8
					c0.4-0.3,0.8-0.8,0.6-1.4c-0.2-0.6-0.6-0.9-1.2-1.1c-0.3-0.1-0.6-0.1-1,0c-0.5,0.2-0.9,0.3-1.4,0c-0.2-0.1-0.5-0.1-0.7,0.2
					c-0.4,0.9-1.4,1.4-1.8,2.3c-0.2,0.5-0.8,0.9-0.6,1.4C24.2,17.4,24.9,17.3,25.4,17.4 M22,18.2c0,0.2-0.1,0.4,0.1,0.5
					c0.2,0.1,0.3,0,0.4-0.2c0.2-0.2,0.4-0.3,0.4-0.6c0.1-0.3,0.1-0.7-0.3-0.8c-0.3-0.1-0.4,0.3-0.5,0.5C22.1,17.8,22.1,18.1,22,18.2
					 M21.5,12.1c-0.8,0.7-1,1.8-1.5,2.7C20.6,14,21.2,13.2,21.5,12.1"/>
				<path class="st4" d="M23.6,1c0.2,0,0.5,0,0.6,0.3c0.1,0.3-0.3,0.2-0.4,0.3c-2.2,0.5-4.2,1.6-6.3,2.4C13.2,5.7,9.1,7.6,5,9.8
					c-0.9,0.5-1.8,1.1-2.6,1.9c-0.5,0.5-1,0.8-1.6,1.1c-0.3,0.1-0.6,0.2-0.7-0.1c-0.2-0.3-0.1-0.6,0.2-0.8c0.2-0.2,0.5-0.4,0.8-0.6
					c3-2.1,6.4-3.6,9.6-5.3c3.5-1.8,7.2-3,10.8-4.5C22.1,1.2,22.9,1.1,23.6,1"/>
				<path class="st4" d="M26.8,10.2c-0.2-0.5-0.1-0.9-0.1-1.4c0.1-1.6,0.2-3.1,0.3-4.7c0-0.3,0.1-0.6,0.4-0.6c0.4,0,0.4,0.3,0.4,0.6
					c0.1,0.8-0.1,1.5-0.2,2.3c-0.2,1.1-0.5,2.1-0.5,3.2C27.1,9.8,27.1,10,26.8,10.2"/>
			</g>
		</g>
	</g>
</g>
</svg>
