<?xml version="1.0" standalone="no"?>
<!DOCTYPE svg PUBLIC "-//W3C//DTD SVG 20010904//EN"
 "http://www.w3.org/TR/2001/REC-SVG-20010904/DTD/svg10.dtd">
<svg version="1.0" xmlns="http://www.w3.org/2000/svg"
 width="817.000000pt" height="672.000000pt" viewBox="0 0 817.000000 672.000000"
 preserveAspectRatio="xMidYMid meet">

<g transform="translate(0.000000,672.000000) scale(0.100000,-0.100000)"
fill="#000000" stroke="none">
<path d="M7120 5899 c-30 -4 -95 -12 -145 -18 -258 -30 -469 -78 -667 -150
-32 -12 -66 -21 -77 -21 -11 0 -22 -4 -26 -9 -3 -5 -22 -15 -43 -22 -20 -6
-45 -18 -54 -27 -10 -8 -18 -12 -18 -9 0 10 -121 -44 -165 -74 -22 -14 -51
-30 -65 -34 -14 -4 -35 -14 -48 -22 -26 -16 -172 -94 -244 -130 -27 -13 -48
-28 -48 -32 0 -5 -8 -11 -17 -15 -10 -3 -45 -21 -78 -41 -33 -19 -71 -40 -85
-47 -14 -7 -34 -22 -45 -33 -11 -11 -37 -29 -58 -40 -21 -11 -55 -36 -76 -55
-20 -19 -50 -42 -67 -50 -16 -8 -54 -34 -84 -57 -64 -50 -61 -48 -125 -92 -28
-19 -52 -38 -55 -41 -3 -3 -43 -37 -90 -74 -47 -38 -99 -82 -116 -100 -17 -17
-44 -43 -60 -58 -16 -16 -33 -32 -39 -38 -5 -6 -36 -35 -67 -65 -32 -30 -58
-62 -58 -70 0 -8 -7 -15 -16 -15 -14 0 -62 -47 -250 -242 -25 -27 -50 -48 -55
-48 -5 0 -9 -8 -9 -17 0 -10 -21 -38 -45 -61 -25 -24 -43 -48 -39 -53 3 -5 -1
-9 -9 -9 -18 0 -127 -126 -127 -147 0 -7 -8 -13 -18 -13 -10 0 -25 -11 -32
-25 -7 -14 -17 -25 -22 -25 -4 0 -8 -6 -8 -13 0 -7 -20 -33 -45 -57 -25 -24
-45 -51 -45 -60 0 -8 -10 -20 -22 -25 -13 -6 -21 -12 -19 -15 3 -3 -9 -19 -25
-36 -16 -18 -48 -52 -71 -78 -24 -25 -43 -50 -43 -55 0 -5 -13 -22 -30 -38
-16 -15 -30 -35 -30 -44 0 -17 -37 -56 -45 -48 -10 11 84 213 106 229 4 3 11
19 15 35 9 39 33 75 49 75 8 0 11 8 9 18 -5 19 68 139 98 160 10 7 18 19 18
27 0 8 6 18 13 22 13 8 107 129 107 139 0 2 11 17 24 31 14 15 23 30 20 35 -3
4 1 8 9 8 8 0 17 9 20 20 8 31 8 31 49 85 45 60 49 97 13 121 -18 12 -29 13
-38 6 -7 -6 -26 -9 -42 -8 -57 7 -117 -63 -79 -91 11 -8 13 -13 5 -13 -13 0
-50 -38 -51 -52 0 -7 -50 -78 -80 -115 -5 -6 -12 -23 -16 -38 -4 -15 -13 -29
-20 -32 -8 -3 -14 -9 -14 -15 0 -5 -11 -24 -25 -42 -14 -18 -25 -38 -25 -44 0
-7 -4 -12 -10 -12 -5 0 -10 -4 -10 -10 0 -19 -87 -136 -146 -198 -23 -23 -45
-49 -48 -58 -3 -8 -10 -12 -16 -9 -5 3 -10 -1 -10 -10 0 -8 -7 -18 -15 -21 -8
-4 -15 -11 -15 -16 0 -6 -36 -46 -80 -89 -44 -43 -80 -82 -80 -86 0 -5 -14
-16 -31 -25 -17 -10 -28 -21 -25 -26 3 -4 -30 -42 -72 -83 -42 -40 -75 -80
-74 -86 2 -7 -4 -13 -12 -13 -8 0 -35 -28 -60 -62 -50 -71 -84 -105 -138 -137
-36 -22 -91 -82 -100 -110 -5 -17 -28 -24 -80 -24 -26 -1 -43 6 -61 23 -48 50
-56 71 -58 165 -2 85 6 134 42 240 6 17 21 64 34 105 110 347 139 430 147 430
5 0 8 6 7 13 -2 14 3 30 37 103 13 28 31 73 40 100 9 27 24 67 34 89 9 22 30
70 45 107 15 37 33 72 41 79 8 6 14 20 14 31 0 10 7 21 15 24 8 4 15 14 15 24
0 10 9 22 21 25 11 4 19 14 17 23 -2 9 7 27 19 40 20 22 63 100 63 115 0 3 14
27 31 52 17 25 53 90 79 144 37 75 46 102 37 111 -9 9 -9 11 2 8 17 -4 39 54
40 104 1 47 -25 65 -70 49 -16 -6 -35 -8 -42 -5 -7 2 -34 -15 -60 -39 -46 -42
-47 -44 -36 -76 9 -27 8 -35 -6 -50 -12 -14 -13 -21 -4 -26 8 -6 6 -12 -9 -24
-11 -9 -33 -38 -48 -66 -84 -156 -113 -217 -119 -254 -4 -22 -11 -43 -16 -47
-5 -3 -9 -13 -9 -22 0 -26 -92 -203 -123 -237 -15 -16 -38 -41 -52 -55 -14
-14 -25 -29 -25 -33 0 -4 -13 -22 -29 -40 -51 -59 -195 -219 -238 -266 -24
-25 -43 -52 -43 -58 0 -7 -4 -13 -10 -13 -5 0 -44 -37 -87 -82 -117 -123 -164
-168 -174 -168 -5 0 -9 -7 -9 -15 0 -8 -4 -15 -10 -15 -5 0 -10 -8 -10 -17 0
-15 -2 -15 -9 -4 -7 11 -12 7 -24 -15 -8 -16 -28 -41 -43 -55 -16 -15 -36 -35
-45 -45 -16 -18 -140 -132 -157 -143 -5 -3 -11 -14 -15 -24 -4 -9 -15 -21 -24
-24 -10 -4 -92 -80 -183 -169 -91 -90 -181 -178 -201 -196 -19 -18 -99 -95
-177 -170 -79 -76 -149 -138 -158 -138 -8 0 -17 -7 -20 -15 -4 -9 -27 -25 -53
-36 -110 -49 -142 -64 -256 -121 -66 -33 -124 -64 -129 -69 -17 -16 -45 -10
-60 13 -20 31 -21 133 -2 183 8 22 15 48 16 58 0 9 6 17 14 17 21 0 29 32 11
43 -12 6 -13 12 -6 21 8 10 5 16 -13 24 -25 11 -66 6 -66 -9 0 -4 -12 -14 -27
-21 -28 -13 -28 -15 -31 -118 -3 -90 10 -227 25 -265 2 -7 -20 -27 -49 -45
-106 -66 -118 -75 -124 -95 -4 -11 -14 -29 -24 -40 -18 -21 -27 -105 -11 -105
5 0 11 7 15 15 3 8 11 15 18 15 10 0 10 -2 0 -9 -8 -5 -14 -25 -15 -45 -1 -38
0 -40 85 -123 69 -69 72 -71 101 -84 15 -7 27 -16 27 -21 0 -4 7 -8 15 -8 8 0
15 -4 15 -8 0 -18 212 -102 258 -102 10 0 28 -8 42 -17 13 -9 39 -16 57 -15
18 2 33 -1 33 -6 0 -5 55 -15 121 -21 67 -7 133 -17 146 -22 13 -5 42 -9 64
-9 22 0 39 -5 39 -11 0 -7 5 -8 12 -3 7 5 27 8 43 6 17 -2 271 -5 565 -6 368
-2 539 0 548 7 12 9 13 1 7 -48 -7 -55 -16 -108 -28 -160 -15 -65 -18 -127 -7
-140 10 -12 9 -15 -4 -15 -13 0 -16 -5 -11 -21 4 -11 8 -71 9 -133 2 -62 6
-118 10 -125 4 -6 2 -19 -6 -28 -11 -15 -11 -16 5 -10 12 5 17 3 15 -5 -3 -7
18 -34 45 -60 45 -44 54 -48 98 -48 38 0 51 4 59 20 6 11 17 20 25 20 8 0 15
5 15 12 0 6 22 48 48 92 71 119 78 141 58 199 -16 47 -16 49 8 102 31 68 70
183 86 257 11 47 16 56 27 47 10 -9 13 -8 13 5 0 9 -5 16 -11 16 -6 0 -9 6 -6
13 2 6 10 11 16 10 6 -2 11 5 11 16 0 23 46 31 255 46 119 8 191 14 225 20 19
3 53 7 75 10 239 27 314 36 335 39 14 3 61 10 105 16 44 6 87 15 95 19 8 4 33
7 55 6 22 -1 45 1 50 5 6 4 26 10 45 14 19 3 46 9 60 11 14 3 41 7 60 9 19 2
48 9 65 16 16 6 52 14 80 17 27 3 53 10 56 15 4 6 12 7 18 4 6 -4 25 -1 41 8
26 12 30 12 30 0 0 -8 -6 -14 -14 -14 -23 0 -54 -61 -59 -118 -3 -29 -1 -55 4
-58 5 -3 9 -14 9 -24 0 -57 55 -20 64 44 7 46 23 72 71 118 43 41 137 113 157
121 39 14 10 76 -35 77 -10 0 -46 -9 -80 -21 -34 -12 -75 -23 -92 -25 -16 -2
-84 -15 -150 -28 -66 -14 -134 -26 -151 -26 -17 0 -34 -3 -38 -7 -6 -6 -81
-22 -231 -48 -16 -3 -48 -7 -71 -9 -22 -1 -47 -7 -54 -11 -8 -5 -32 -10 -55
-11 -22 -2 -67 -5 -100 -7 -34 -2 -70 -9 -80 -14 -11 -6 -58 -13 -105 -17
-159 -11 -205 -17 -208 -27 -3 -6 -9 -5 -18 2 -11 9 -32 8 -91 -1 -43 -7 -105
-14 -138 -15 -33 -1 -88 -5 -122 -9 -57 -7 -61 -6 -58 11 10 47 13 167 4 195
-5 18 -5 34 -1 37 20 14 -15 243 -47 315 -12 25 -21 49 -21 54 0 13 20 51 48
89 12 17 22 37 22 45 0 7 9 24 20 38 11 14 20 30 20 36 0 6 6 17 14 24 8 6 13
17 10 24 -3 7 9 28 26 47 17 19 76 104 132 189 118 182 114 178 130 162 9 -9
9 -12 0 -12 -28 0 -4 -86 36 -128 7 -8 33 -15 58 -15 35 0 55 7 90 31 24 18
50 32 58 32 7 0 18 11 24 25 6 14 18 25 26 25 7 0 16 7 20 15 3 8 17 20 31 25
14 5 25 14 25 20 0 5 7 10 15 10 8 0 15 4 15 9 0 8 90 81 208 168 31 23 67 51
80 62 l22 21 -6 -25 c-16 -65 49 -121 118 -101 20 6 40 14 44 19 15 15 33 6
53 -28 18 -30 25 -35 59 -35 27 0 47 7 64 23 14 13 52 41 84 63 33 21 76 52
97 68 21 16 46 30 55 31 10 0 38 15 62 32 44 30 88 56 163 97 21 11 46 28 57
38 10 10 22 18 26 18 4 0 15 6 23 14 9 8 25 16 36 18 11 1 22 5 25 9 12 13
102 69 111 69 5 0 21 12 36 26 34 34 39 25 14 -27 -12 -23 -21 -50 -21 -60 0
-9 -6 -22 -14 -28 -8 -7 -17 -28 -21 -49 -4 -20 -10 -41 -13 -47 -4 -5 -7 -14
-8 -20 -2 -5 -10 -32 -18 -60 -9 -27 -18 -88 -21 -135 -5 -74 -2 -92 18 -140
23 -54 24 -55 85 -71 34 -9 74 -14 90 -12 42 7 149 58 167 79 6 7 26 21 46 31
20 10 53 33 75 50 21 17 63 45 92 62 29 17 62 40 74 51 12 11 27 20 33 20 7 0
20 9 30 20 10 11 24 20 32 20 7 0 13 3 13 8 0 7 17 18 80 48 19 9 39 22 43 30
4 8 15 14 22 14 8 0 15 4 15 9 0 5 17 16 38 24 20 8 47 27 59 41 13 14 27 26
32 26 5 0 26 16 47 35 22 20 48 44 59 54 11 10 30 21 42 25 12 4 34 21 49 38
14 18 37 38 51 45 26 13 26 13 20 -24 -4 -21 -21 -67 -38 -103 -44 -91 -47
-98 -59 -162 -6 -32 -18 -65 -26 -73 -9 -8 -12 -20 -9 -25 4 -6 2 -16 -3 -23
-5 -7 -15 -29 -22 -50 -7 -22 -18 -51 -26 -65 -8 -15 -14 -34 -14 -43 0 -9 -6
-19 -14 -22 -13 -5 -22 -55 -31 -162 -3 -27 -8 -63 -12 -80 -7 -33 -7 -38 2
-106 5 -43 7 -46 38 -47 42 -1 100 27 112 56 5 12 18 25 27 28 10 3 18 9 18
13 0 4 25 34 55 66 30 32 55 63 55 70 0 6 16 30 35 52 19 23 35 46 35 53 0 6
16 28 36 48 20 20 55 59 78 86 22 27 58 68 78 90 21 23 38 44 38 49 0 4 21 29
48 56 59 61 146 160 150 172 2 5 10 9 18 9 8 0 14 6 14 13 0 8 11 19 25 25 14
7 30 23 35 37 5 14 16 25 25 25 8 0 15 5 15 10 0 11 32 48 118 132 28 29 52
57 52 63 0 5 16 26 35 45 28 27 122 143 177 215 5 6 45 57 90 114 92 115 112
141 181 236 26 36 47 70 47 75 0 5 11 21 24 37 13 15 31 44 41 63 10 19 21 37
24 40 13 11 91 160 91 174 0 5 7 17 15 26 15 17 58 122 75 185 5 17 16 55 25
85 56 184 75 357 51 455 -27 111 -54 203 -71 236 -45 86 -147 181 -175 164 -6
-4 -10 -1 -10 4 0 6 -8 11 -18 11 -10 0 -26 6 -37 14 -39 26 -373 51 -485 35z
m-110 -118 c0 -10 -11 -26 -25 -35 -14 -9 -23 -21 -20 -27 4 -5 10 -7 15 -4 4
3 10 0 12 -7 6 -17 28 0 28 21 0 14 6 17 25 13 18 -3 25 0 25 11 0 25 42 29
67 5 13 -12 23 -16 23 -10 0 22 20 12 26 -12 8 -32 87 -54 136 -37 17 6 34 7
37 3 7 -11 139 -25 236 -26 58 -1 73 2 87 19 16 19 17 19 37 1 12 -11 21 -28
21 -39 0 -11 9 -28 21 -38 12 -10 23 -35 26 -58 3 -23 11 -41 17 -41 8 0 11
-13 8 -35 -3 -22 1 -40 11 -49 20 -20 16 -186 -8 -328 -5 -28 -3 -38 7 -38 9
-1 8 -5 -4 -14 -10 -7 -18 -20 -18 -29 0 -9 -5 -19 -10 -22 -6 -4 -8 -16 -4
-27 4 -13 0 -24 -13 -33 -17 -14 -17 -14 2 -15 11 -1 14 -4 8 -7 -7 -2 -13
-12 -13 -21 0 -9 -7 -26 -15 -36 -8 -11 -15 -30 -15 -43 0 -13 -7 -26 -15 -29
-8 -4 -15 -15 -15 -26 0 -12 -4 -17 -12 -12 -6 4 -8 3 -4 -4 6 -10 -29 -81
-47 -93 -5 -4 -6 -12 -3 -18 4 -6 1 -11 -6 -11 -7 0 -18 -10 -24 -23 -55 -109
-80 -152 -86 -155 -5 -2 -8 -12 -8 -23 0 -10 -4 -19 -10 -19 -5 0 -10 -4 -10
-10 0 -5 -18 -27 -39 -49 -22 -22 -42 -49 -46 -61 -3 -11 -15 -25 -26 -30 -10
-6 -26 -25 -35 -43 -16 -30 -47 -72 -104 -143 -14 -17 -38 -48 -55 -69 -53
-69 -226 -270 -259 -300 -11 -11 -39 -42 -61 -70 -22 -27 -76 -85 -120 -130
-44 -44 -109 -112 -144 -150 -36 -39 -80 -82 -99 -97 -18 -15 -46 -44 -62 -65
-15 -21 -42 -53 -59 -71 -17 -18 -31 -37 -31 -41 0 -4 -9 -16 -20 -26 -11 -10
-20 -22 -20 -26 0 -11 -29 -45 -92 -110 -27 -27 -48 -54 -48 -59 0 -6 -4 -10
-10 -10 -5 0 -10 10 -10 22 0 22 -2 21 -31 -8 -23 -23 -33 -44 -36 -78 -3 -25
-12 -51 -19 -57 -19 -16 -18 10 2 81 8 30 16 64 18 75 2 11 15 45 29 75 14 30
31 79 37 108 7 28 16 55 21 58 5 3 9 14 9 24 0 11 11 44 25 74 14 30 25 60 25
65 0 6 4 19 9 29 38 74 74 222 75 313 1 30 13 49 74 116 39 44 72 85 72 91 0
6 18 26 40 43 22 18 40 36 40 41 0 10 61 91 73 96 4 2 7 13 7 25 0 11 6 28 14
36 13 15 56 90 82 141 39 80 60 138 94 260 7 25 17 58 23 74 6 15 11 85 11
155 1 133 -7 164 -57 218 -41 46 -231 83 -293 57 -24 -10 -34 -10 -44 -1 -10
9 -14 9 -17 0 -3 -7 -14 -13 -25 -13 -23 0 -168 -49 -182 -62 -6 -4 -20 -8
-33 -8 -12 0 -37 -13 -55 -29 -20 -17 -48 -31 -68 -33 -19 -1 -41 -11 -48 -20
-7 -10 -22 -18 -32 -18 -10 0 -22 -4 -25 -10 -3 -5 -15 -10 -26 -10 -10 0 -19
-4 -19 -10 0 -5 -9 -10 -19 -10 -11 0 -22 -4 -25 -9 -4 -5 -27 -19 -52 -32
-26 -12 -59 -34 -73 -48 -15 -15 -32 -26 -37 -24 -12 4 -93 -81 -125 -132 -37
-59 -68 -138 -76 -190 -5 -41 -8 -46 -28 -41 -13 3 -35 -4 -58 -19 -20 -14
-41 -25 -46 -25 -6 0 -11 -7 -11 -17 0 -21 -32 -93 -41 -93 -4 0 -10 -16 -13
-36 -4 -19 -18 -55 -32 -79 -13 -24 -24 -49 -24 -55 0 -13 -71 -163 -81 -170
-3 -3 -18 -30 -32 -60 -13 -31 -32 -62 -41 -69 -9 -7 -16 -22 -16 -32 0 -10
-9 -23 -20 -29 -12 -6 -20 -21 -20 -35 0 -16 -6 -25 -15 -25 -8 0 -15 -7 -15
-15 0 -8 -20 -24 -44 -35 -24 -11 -46 -25 -48 -31 -2 -7 -15 -14 -29 -16 -13
-2 -32 -13 -42 -24 -10 -12 -20 -19 -23 -16 -4 3 -18 -5 -32 -19 -15 -13 -32
-24 -37 -24 -6 0 -35 -13 -65 -29 -30 -17 -72 -37 -92 -46 -21 -10 -38 -21
-38 -26 0 -5 -3 -8 -7 -7 -20 5 -143 -50 -143 -64 0 -5 -10 -8 -23 -8 -12 0
-58 -20 -101 -45 -44 -25 -82 -45 -84 -45 -3 0 -14 -7 -24 -17 -17 -15 -18
-15 -20 13 -2 38 -1 44 5 77 5 24 0 31 -33 53 -48 32 -80 26 -80 -16 0 -16 5
-30 11 -32 7 -2 9 -13 5 -26 -6 -17 -13 -21 -30 -16 -15 3 -30 -3 -49 -20 -56
-52 -62 -27 -12 48 40 61 41 63 18 88 -22 24 -48 23 -86 -4 -17 -13 -39 -27
-48 -33 -106 -66 -298 -210 -366 -275 -33 -31 -57 -48 -67 -44 -24 9 -94 -27
-106 -55 -16 -37 -58 -67 -73 -52 -13 13 -15 133 -4 188 7 37 45 101 94 158
19 22 37 45 41 50 39 54 70 93 85 109 9 11 17 24 17 30 0 6 9 19 20 31 11 11
55 63 96 115 42 52 95 118 118 145 24 28 69 82 101 120 33 39 61 72 65 75 3 3
25 30 50 60 25 30 54 64 65 76 11 12 40 45 65 74 24 29 102 112 172 183 71 71
128 133 128 138 0 4 9 10 20 14 11 3 19 10 17 14 -1 4 16 23 38 42 22 19 53
47 69 62 16 15 33 27 37 27 5 0 9 5 9 10 0 10 48 57 179 176 74 67 85 76 171
145 41 33 86 69 100 80 52 42 132 89 142 83 5 -3 12 3 15 15 3 11 14 23 24 26
10 4 19 11 19 16 0 5 8 13 18 16 9 4 52 33 94 64 43 32 87 61 98 64 11 4 33
18 47 31 15 14 33 22 40 20 7 -3 13 -2 13 2 0 8 33 28 130 80 36 19 72 41 81
48 8 8 20 14 25 14 12 0 97 40 104 49 9 11 137 71 153 71 8 0 20 7 28 16 16
20 63 44 85 44 10 0 25 6 33 13 9 7 36 19 61 26 25 7 65 22 90 32 25 11 54 21
65 24 11 2 36 9 55 14 19 6 49 11 66 11 17 0 40 9 54 22 14 13 34 21 46 20 13
-2 32 2 43 7 12 7 22 7 26 2 3 -6 17 -4 33 5 15 7 44 14 64 14 20 0 40 5 43
10 4 6 15 8 26 5 10 -4 24 -3 30 1 6 3 32 8 57 10 25 2 50 8 56 14 15 15 26
12 26 -9z m-350 -942 c-7 -11 -14 -18 -17 -15 -8 8 5 36 17 36 7 0 7 -6 0 -21z
m103 -16 c-22 -15 -32 -53 -15 -53 8 0 10 -15 12 -92 1 -44 -47 -236 -77 -308
-33 -79 -92 -208 -110 -240 -8 -14 -17 -33 -20 -42 -3 -10 -9 -18 -14 -18 -5
0 -9 -6 -9 -14 0 -8 -8 -21 -18 -28 -24 -18 -98 -109 -105 -130 -4 -10 -13
-18 -21 -18 -8 0 -26 -20 -40 -45 -15 -25 -31 -45 -36 -45 -6 0 -10 -9 -10
-21 0 -11 -4 -18 -9 -15 -4 3 -19 -6 -31 -19 -20 -21 -33 -25 -84 -25 -34 0
-67 -4 -75 -9 -8 -5 -24 -6 -37 -1 -14 6 -26 5 -29 0 -16 -26 -138 32 -148 72
-3 9 -23 28 -44 41 -22 14 -64 56 -94 94 -30 37 -57 70 -61 71 -5 2 -8 11 -8
21 0 9 -11 33 -25 53 -14 21 -24 41 -23 45 1 4 -1 33 -6 64 -4 35 -3 66 4 85
18 45 21 73 11 92 -12 22 43 124 104 197 47 56 116 91 146 74 11 -5 17 -14 14
-19 -3 -5 -1 -11 5 -15 6 -3 13 2 16 12 23 72 24 73 70 73 30 0 65 10 104 30
l60 30 0 -24 c0 -26 15 -43 24 -27 3 4 24 11 46 15 22 3 40 10 40 15 0 5 21
11 48 14 26 2 63 9 82 15 19 6 73 20 120 32 47 11 89 25 94 30 6 6 22 10 37
10 15 0 31 5 34 10 3 6 19 10 36 10 16 0 29 5 29 10 0 6 8 10 18 9 14 0 13 -3
-5 -16z m-206 -15 c-3 -8 -6 -5 -6 6 -1 11 2 17 5 13 3 -3 4 -12 1 -19z
m-2777 -613 c-7 -9 -15 -13 -17 -11 -6 6 20 36 26 30 2 -2 -2 -10 -9 -19z
m-1160 -99 c0 -3 -4 -8 -10 -11 -5 -3 -10 -1 -10 4 0 6 5 11 10 11 6 0 10 -2
10 -4z m-42 -51 c-6 -14 -15 -25 -20 -25 -5 0 -1 11 8 25 9 14 18 25 20 25 2
0 -2 -11 -8 -25z m2967 -10 c8 -19 22 -50 30 -69 8 -19 15 -39 15 -44 0 -19
20 -24 38 -10 15 12 16 11 4 -4 -12 -14 -11 -22 4 -48 10 -16 21 -30 24 -30 3
0 50 -42 103 -93 118 -114 184 -150 269 -149 32 1 58 -3 58 -9 0 -5 -4 -9 -10
-9 -5 0 -40 -30 -77 -68 -37 -37 -89 -77 -115 -90 -26 -13 -50 -27 -53 -33 -4
-5 -10 -7 -15 -4 -5 3 -23 -7 -40 -22 -31 -27 -129 -98 -187 -135 -18 -11 -33
-26 -33 -34 0 -8 -6 -14 -12 -13 -16 3 -88 -40 -88 -52 0 -5 -7 -9 -15 -9 -8
0 -15 -4 -15 -10 0 -5 -15 -17 -32 -26 -18 -9 -48 -30 -66 -48 -27 -26 -42
-31 -85 -32 -81 -3 -93 -7 -142 -53 -90 -83 -130 -37 -106 122 13 84 58 229
73 235 4 2 8 11 8 19 0 8 16 44 35 80 19 36 35 70 35 77 0 7 9 22 21 34 11 12
18 26 15 31 -7 11 91 111 109 111 8 0 15 3 15 8 0 14 86 102 99 102 11 0 11 3
1 15 -10 12 -10 15 3 15 15 0 32 33 43 85 7 34 65 195 70 195 2 0 10 -16 19
-35z m-2961 -74 c6 -9 -7 -57 -25 -96 -5 -11 -10 -30 -12 -43 -2 -12 -9 -28
-15 -34 -7 -7 -12 -24 -12 -38 0 -14 -9 -43 -20 -65 -11 -22 -20 -45 -20 -53
0 -8 -8 -26 -18 -40 -11 -15 -27 -60 -37 -99 -11 -40 -22 -73 -27 -73 -4 0 -8
-10 -8 -22 -1 -13 -8 -41 -16 -63 -8 -22 -17 -57 -19 -78 -3 -21 -7 -42 -10
-47 -8 -13 -34 -161 -36 -205 -3 -72 35 -201 64 -213 4 -2 13 -10 20 -17 37
-37 148 -74 170 -57 7 5 24 12 40 16 15 4 36 15 47 26 11 11 26 20 34 20 8 0
16 7 20 15 3 8 11 15 18 15 17 0 68 54 68 72 0 7 9 19 20 26 25 15 49 71 52
123 1 22 8 45 15 51 7 6 13 16 13 22 0 7 19 30 42 51 27 25 36 30 25 15 -9
-14 -20 -32 -24 -40 -4 -8 -9 -17 -12 -20 -10 -8 -51 -87 -51 -96 0 -5 5 -2
10 6 5 8 13 15 17 15 9 1 93 83 93 91 0 3 24 30 53 61 28 30 56 62 61 71 12
21 48 51 61 52 6 0 16 14 23 30 8 17 19 30 26 30 14 0 50 38 79 83 18 28 37
36 37 15 0 -6 -12 -36 -26 -67 -46 -101 -53 -116 -59 -138 -3 -13 -11 -23 -16
-23 -5 0 -9 -11 -9 -25 0 -13 -6 -42 -14 -62 -7 -21 -20 -58 -27 -83 -7 -25
-24 -62 -38 -84 -15 -21 -35 -53 -45 -70 -53 -86 -113 -173 -128 -187 -10 -9
-18 -21 -18 -26 0 -20 -30 -69 -59 -97 -16 -16 -27 -34 -25 -40 3 -7 -11 -29
-31 -50 -19 -21 -35 -42 -35 -48 0 -5 -10 -24 -22 -41 -12 -17 -33 -53 -47
-81 -24 -46 -51 -71 -51 -47 0 5 -14 31 -32 57 -24 35 -32 58 -31 86 1 21 -2
36 -7 33 -12 -7 -51 34 -74 78 -10 20 -25 38 -32 41 -8 3 -14 11 -14 18 -1 17
-86 98 -128 121 -17 10 -37 15 -42 12 -6 -4 -18 -1 -27 7 -20 16 -308 17 -393
0 -95 -17 -175 -36 -180 -42 -5 -5 -11 -6 -60 -8 -18 -1 -30 -7 -30 -16 0 -8
-6 -13 -12 -13 -26 2 -108 -16 -108 -23 0 -4 -6 -8 -12 -7 -32 1 -49 -4 -43
-13 6 -9 -68 -35 -94 -33 -8 1 -20 -4 -25 -11 -6 -7 -30 -19 -53 -26 -24 -7
-43 -16 -43 -20 0 -4 -10 -7 -22 -6 -26 1 -36 24 -14 32 9 3 13 10 10 15 -3 5
4 9 15 9 12 0 21 6 21 13 0 14 231 239 266 257 13 8 24 18 24 23 0 15 211 217
226 217 8 0 14 7 14 15 0 8 34 49 75 91 41 42 75 80 75 85 0 4 9 11 20 14 11
3 20 13 20 21 0 8 7 14 15 14 8 0 19 9 25 20 6 11 17 20 25 20 8 0 26 17 40
38 13 20 36 46 50 56 14 10 25 24 25 31 0 7 27 36 60 66 33 29 60 59 60 66 0
7 5 13 10 13 6 0 36 28 68 62 31 33 78 82 105 109 26 26 47 50 47 54 0 5 16
23 35 42 20 19 33 39 30 44 -4 5 -2 9 4 9 5 0 12 -4 15 -9z m2813 -113 c-7
-17 -19 -34 -26 -36 -9 -3 -10 0 -2 14 5 11 12 27 15 37 3 9 10 17 16 17 6 0
5 -12 -3 -32z m-89 -110 c-12 -18 -24 -35 -25 -37 -2 -2 -5 -2 -8 1 -10 10 17
67 33 71 26 5 26 1 0 -35z m-3233 -248 c-3 -5 -11 -10 -16 -10 -6 0 -7 5 -4
10 3 6 11 10 16 10 6 0 7 -4 4 -10z m4260 -514 c-20 -31 -41 -59 -46 -62 -5
-3 -16 -21 -24 -40 -8 -20 -19 -33 -25 -29 -16 10 -2 44 34 87 17 21 44 54 60
73 43 53 43 34 1 -29z m-3525 17 c-1 -15 -30 -46 -37 -40 -3 4 2 16 12 27 19
21 25 24 25 13z m-608 -303 c14 0 18 -5 14 -15 -3 -8 0 -15 6 -15 7 0 22 -10
35 -22 18 -17 26 -19 36 -9 9 9 9 14 -3 21 -8 5 -11 12 -7 16 4 4 15 -2 24
-13 10 -11 29 -20 43 -19 18 1 26 -5 28 -21 2 -12 15 -26 32 -33 16 -7 34 -25
41 -43 7 -18 25 -48 39 -67 15 -19 50 -81 78 -137 50 -101 72 -176 54 -187
-14 -8 -110 -199 -138 -274 -14 -37 -30 -73 -36 -79 -6 -7 -8 -20 -4 -28 3 -9
2 -13 -4 -10 -6 3 -10 0 -11 -7 -2 -31 -8 -51 -23 -67 -8 -9 -20 -48 -26 -86
-6 -38 -16 -75 -21 -82 -12 -14 -34 -14 -544 -13 -390 1 -381 1 -440 0 -22 0
-76 4 -120 10 -103 13 -266 29 -330 34 -27 1 -57 5 -65 8 -8 3 -44 13 -80 22
-36 9 -72 19 -80 21 -8 2 -35 10 -60 16 -25 6 -50 18 -56 25 -6 8 -17 14 -24
14 -21 0 -110 34 -110 42 0 4 -17 16 -38 27 -49 25 -122 92 -122 112 0 9 -7
22 -15 29 -13 11 -14 10 -9 -4 11 -30 -5 -17 -37 31 -37 53 -42 43 60 113 29
19 58 40 65 47 10 9 16 9 25 0 8 -8 14 -8 22 0 9 9 18 8 36 -4 34 -22 153 -12
190 16 14 12 31 21 37 21 18 0 151 110 263 218 30 28 61 52 69 52 8 0 14 6 14
14 0 8 18 22 40 32 22 10 40 22 40 28 0 6 5 5 11 -1 11 -11 42 -1 59 18 10 10
76 38 145 59 39 13 74 26 79 31 6 5 17 9 25 9 11 0 10 -4 -5 -15 -14 -11 -15
-14 -4 -15 22 0 43 16 36 28 -3 6 7 13 25 17 22 5 34 3 40 -6 6 -10 9 -8 9 9
0 24 15 30 23 8 4 -9 15 -12 32 -8 17 3 24 9 21 18 -4 11 1 13 19 8 28 -7 85
15 85 32 0 17 31 26 46 13 9 -8 33 -8 85 0 39 7 79 9 89 6 9 -3 22 1 28 8 12
14 77 14 184 3 40 -5 48 -3 48 10 0 12 -6 15 -24 10 -12 -3 -26 -3 -30 1 -9
10 36 33 52 28 8 -3 23 -5 34 -5z m68 -20 c0 -5 -2 -10 -4 -10 -3 0 -8 5 -11
10 -3 6 -1 10 4 10 6 0 11 -4 11 -10z m-1646 -505 c-4 -8 -12 -15 -20 -15 -17
0 -18 17 -1 23 22 9 27 7 21 -8z m2101 -282 c7 -62 11 -148 9 -190 -3 -43 -5
-95 -5 -115 0 -35 -2 -38 -37 -43 -20 -4 -56 -10 -80 -14 -23 -5 -44 -5 -47
-1 -2 4 -25 4 -50 0 -51 -8 -51 -7 -30 59 8 25 25 80 37 121 11 41 25 79 30
85 4 5 8 17 8 27 0 10 5 18 10 18 6 0 10 7 10 16 0 8 9 32 19 52 22 42 66 137
76 167 12 31 34 -50 50 -182z m-12 -467 c16 -12 16 -14 1 -20 -13 -5 -14 -9
-4 -21 8 -10 9 -15 2 -15 -13 0 -34 -70 -38 -125 -3 -46 -21 -121 -35 -148 -5
-10 -7 -22 -4 -27 3 -4 1 -10 -3 -12 -13 -5 -23 -68 -12 -68 6 0 10 -9 10 -20
0 -15 -9 -22 -30 -26 -16 -4 -30 -10 -30 -14 0 -4 -9 -10 -20 -13 -11 -3 -23
-13 -27 -24 -4 -10 -13 -24 -20 -31 -7 -7 -15 -29 -19 -49 -6 -33 -30 -73 -44
-73 -4 0 -16 18 -29 40 -18 33 -23 58 -25 147 -2 60 1 131 5 158 4 28 11 77
14 110 3 33 8 75 12 94 5 32 8 53 12 91 3 35 21 45 88 51 120 10 177 9 196 -5z
m-383 -656 c0 -5 -2 -10 -4 -10 -3 0 -8 5 -11 10 -3 6 -1 10 4 10 6 0 11 -4
11 -10z"/>
<path d="M6747 5710 c3 -11 0 -20 -6 -20 -6 0 -11 -4 -11 -10 0 -12 10 -13 29
-1 8 5 11 16 6 30 -8 27 -25 28 -18 1z"/>
<path d="M7075 5720 c-4 -6 7 -10 25 -10 18 0 29 4 25 10 -3 6 -15 10 -25 10
-10 0 -22 -4 -25 -10z"/>
<path d="M6825 5680 c3 -5 8 -10 11 -10 2 0 4 5 4 10 0 6 -5 10 -11 10 -5 0
-7 -4 -4 -10z"/>
<path d="M5684 5245 c-18 -14 -17 -14 12 -15 19 0 34 6 38 15 7 20 -24 20 -50
0z"/>
<path d="M5290 5055 c-10 -12 -10 -15 3 -15 9 0 21 -8 26 -17 12 -20 14 -9 5
25 -7 26 -17 28 -34 7z"/>
<path d="M6050 4650 c0 -5 7 -10 16 -10 8 0 12 5 9 10 -3 6 -10 10 -16 10 -5
0 -9 -4 -9 -10z"/>
<path d="M5390 75 c0 -8 5 -15 10 -15 6 0 10 7 10 15 0 8 -4 15 -10 15 -5 0
-10 -7 -10 -15z"/>
</g>
</svg>
